G04 EAGLE Gerber X2 export*
%TF.Part,Single*%
%TF.FileFunction,Copper,L1,Top,Mixed*%
%TF.FilePolarity,Positive*%
%TF.GenerationSoftware,Autodesk,EAGLE,9.1.3*%
%TF.CreationDate,2018-09-04T16:18:44Z*%
G75*
%MOIN*%
%FSLAX36Y36*%
%LPD*%
%AMOC8*
5,1,8,0,0,1.08239X$1,22.5*%
G01*
%ADD10R,0.074000X0.074000*%
%ADD11C,0.074000*%
%ADD12C,0.150000*%
%ADD13C,0.030000*%
%ADD14C,0.050000*%
%ADD15C,0.010000*%

G36*
X262646Y17535D02*
X262646Y17535D01*
X262920Y17531D01*
X263265Y17613D01*
X263616Y17657D01*
X263871Y17758D01*
X264138Y17822D01*
X264451Y17988D01*
X264780Y18118D01*
X265002Y18280D01*
X265245Y18408D01*
X265507Y18646D01*
X265794Y18854D01*
X265969Y19066D01*
X266172Y19250D01*
X266366Y19546D01*
X266592Y19818D01*
X266710Y20067D01*
X266860Y20296D01*
X266976Y20631D01*
X267126Y20951D01*
X267178Y21220D01*
X267267Y21481D01*
X267296Y21834D01*
X267362Y22181D01*
X267345Y22455D01*
X267367Y22729D01*
X267307Y23078D01*
X267285Y23431D01*
X267200Y23693D01*
X267154Y23963D01*
X267008Y24286D01*
X266899Y24623D01*
X266752Y24855D01*
X266640Y25105D01*
X266419Y25381D01*
X266230Y25681D01*
X266030Y25870D01*
X265859Y26084D01*
X265576Y26297D01*
X265318Y26540D01*
X265078Y26672D01*
X264858Y26838D01*
X264286Y27119D01*
X254117Y31331D01*
X231331Y54117D01*
X218999Y83888D01*
X218999Y116112D01*
X231331Y145883D01*
X254117Y168669D01*
X283888Y181001D01*
X316112Y181001D01*
X345883Y168669D01*
X368669Y145883D01*
X381001Y116112D01*
X381001Y83888D01*
X368669Y54117D01*
X345883Y31331D01*
X335714Y27119D01*
X335475Y26983D01*
X335220Y26882D01*
X334934Y26674D01*
X334626Y26498D01*
X334428Y26307D01*
X334206Y26146D01*
X333980Y25873D01*
X333726Y25627D01*
X333583Y25393D01*
X333407Y25181D01*
X333257Y24862D01*
X333071Y24559D01*
X332990Y24297D01*
X332873Y24049D01*
X332807Y23701D01*
X332703Y23363D01*
X332689Y23088D01*
X332638Y22819D01*
X332660Y22465D01*
X332643Y22112D01*
X332698Y21843D01*
X332715Y21569D01*
X332824Y21231D01*
X332895Y20885D01*
X333016Y20639D01*
X333101Y20377D01*
X333290Y20078D01*
X333445Y19760D01*
X333623Y19551D01*
X333770Y19319D01*
X334028Y19076D01*
X334257Y18807D01*
X334482Y18649D01*
X334682Y18460D01*
X334992Y18289D01*
X335281Y18085D01*
X335538Y17988D01*
X335778Y17855D01*
X336121Y17766D01*
X336452Y17641D01*
X336725Y17610D01*
X336991Y17541D01*
X337627Y17501D01*
X2962373Y17501D01*
X2962646Y17535D01*
X2962920Y17531D01*
X2963265Y17613D01*
X2963616Y17657D01*
X2963871Y17758D01*
X2964138Y17822D01*
X2964451Y17988D01*
X2964780Y18118D01*
X2965002Y18280D01*
X2965245Y18408D01*
X2965507Y18646D01*
X2965794Y18854D01*
X2965969Y19066D01*
X2966172Y19250D01*
X2966366Y19546D01*
X2966592Y19818D01*
X2966710Y20067D01*
X2966860Y20296D01*
X2966976Y20631D01*
X2967126Y20951D01*
X2967178Y21220D01*
X2967267Y21481D01*
X2967296Y21834D01*
X2967362Y22181D01*
X2967345Y22455D01*
X2967367Y22729D01*
X2967307Y23078D01*
X2967285Y23431D01*
X2967200Y23693D01*
X2967154Y23963D01*
X2967008Y24286D01*
X2966899Y24623D01*
X2966752Y24855D01*
X2966640Y25105D01*
X2966419Y25381D01*
X2966230Y25681D01*
X2966030Y25870D01*
X2965859Y26084D01*
X2965576Y26297D01*
X2965318Y26540D01*
X2965078Y26672D01*
X2964858Y26838D01*
X2964286Y27119D01*
X2954117Y31331D01*
X2931331Y54117D01*
X2918999Y83888D01*
X2918999Y116112D01*
X2931331Y145883D01*
X2954117Y168669D01*
X2983888Y181001D01*
X3016112Y181001D01*
X3045883Y168669D01*
X3068669Y145883D01*
X3081001Y116112D01*
X3081001Y83888D01*
X3068669Y54117D01*
X3045883Y31331D01*
X3035714Y27119D01*
X3035475Y26983D01*
X3035220Y26882D01*
X3034934Y26674D01*
X3034626Y26498D01*
X3034428Y26307D01*
X3034206Y26146D01*
X3033980Y25873D01*
X3033726Y25627D01*
X3033583Y25393D01*
X3033407Y25181D01*
X3033257Y24862D01*
X3033071Y24559D01*
X3032990Y24297D01*
X3032873Y24049D01*
X3032807Y23701D01*
X3032703Y23363D01*
X3032689Y23088D01*
X3032638Y22819D01*
X3032660Y22465D01*
X3032643Y22112D01*
X3032698Y21843D01*
X3032715Y21569D01*
X3032824Y21231D01*
X3032895Y20885D01*
X3033016Y20639D01*
X3033101Y20377D01*
X3033290Y20078D01*
X3033445Y19760D01*
X3033623Y19551D01*
X3033770Y19319D01*
X3034028Y19076D01*
X3034257Y18807D01*
X3034482Y18649D01*
X3034682Y18460D01*
X3034992Y18289D01*
X3035281Y18085D01*
X3035538Y17988D01*
X3035778Y17855D01*
X3036121Y17766D01*
X3036452Y17641D01*
X3036725Y17610D01*
X3036991Y17541D01*
X3037627Y17501D01*
X3162373Y17501D01*
X3162646Y17535D01*
X3162920Y17531D01*
X3163265Y17613D01*
X3163616Y17657D01*
X3163871Y17758D01*
X3164138Y17822D01*
X3164451Y17988D01*
X3164780Y18118D01*
X3165002Y18280D01*
X3165245Y18408D01*
X3165507Y18646D01*
X3165794Y18854D01*
X3165969Y19066D01*
X3166172Y19250D01*
X3166366Y19546D01*
X3166592Y19818D01*
X3166710Y20067D01*
X3166860Y20296D01*
X3166976Y20631D01*
X3167126Y20951D01*
X3167178Y21220D01*
X3167267Y21481D01*
X3167296Y21834D01*
X3167362Y22181D01*
X3167345Y22455D01*
X3167367Y22729D01*
X3167307Y23078D01*
X3167285Y23431D01*
X3167200Y23693D01*
X3167154Y23963D01*
X3167008Y24286D01*
X3166899Y24623D01*
X3166752Y24855D01*
X3166640Y25105D01*
X3166419Y25381D01*
X3166230Y25681D01*
X3166030Y25870D01*
X3165859Y26084D01*
X3165576Y26297D01*
X3165318Y26540D01*
X3165078Y26672D01*
X3164858Y26838D01*
X3164286Y27119D01*
X3154117Y31331D01*
X3131331Y54117D01*
X3118999Y83888D01*
X3118999Y116112D01*
X3131331Y145883D01*
X3154117Y168669D01*
X3183888Y181001D01*
X3216112Y181001D01*
X3245883Y168669D01*
X3268669Y145883D01*
X3272881Y135714D01*
X3273017Y135475D01*
X3273118Y135220D01*
X3273326Y134934D01*
X3273502Y134626D01*
X3273693Y134428D01*
X3273854Y134206D01*
X3274127Y133980D01*
X3274373Y133726D01*
X3274607Y133583D01*
X3274819Y133407D01*
X3275138Y133257D01*
X3275440Y133071D01*
X3275703Y132990D01*
X3275951Y132873D01*
X3276299Y132807D01*
X3276637Y132703D01*
X3276911Y132689D01*
X3277181Y132638D01*
X3277535Y132660D01*
X3277888Y132643D01*
X3278157Y132698D01*
X3278431Y132715D01*
X3278768Y132824D01*
X3279115Y132895D01*
X3279361Y133016D01*
X3279623Y133101D01*
X3279922Y133290D01*
X3280240Y133445D01*
X3280449Y133623D01*
X3280681Y133770D01*
X3280924Y134028D01*
X3281193Y134257D01*
X3281351Y134482D01*
X3281540Y134682D01*
X3281711Y134992D01*
X3281915Y135281D01*
X3282012Y135538D01*
X3282145Y135778D01*
X3282234Y136121D01*
X3282359Y136452D01*
X3282390Y136725D01*
X3282459Y136991D01*
X3282499Y137627D01*
X3282499Y2262373D01*
X3282465Y2262646D01*
X3282469Y2262920D01*
X3282387Y2263265D01*
X3282342Y2263616D01*
X3282242Y2263871D01*
X3282177Y2264138D01*
X3282012Y2264451D01*
X3281882Y2264780D01*
X3281720Y2265002D01*
X3281592Y2265245D01*
X3281354Y2265507D01*
X3281146Y2265794D01*
X3280934Y2265969D01*
X3280750Y2266172D01*
X3280454Y2266366D01*
X3280181Y2266592D01*
X3279933Y2266710D01*
X3279704Y2266860D01*
X3279369Y2266976D01*
X3279049Y2267126D01*
X3278779Y2267178D01*
X3278519Y2267267D01*
X3278166Y2267296D01*
X3277819Y2267362D01*
X3277545Y2267345D01*
X3277271Y2267367D01*
X3276922Y2267307D01*
X3276569Y2267285D01*
X3276307Y2267200D01*
X3276037Y2267154D01*
X3275714Y2267008D01*
X3275377Y2266899D01*
X3275145Y2266752D01*
X3274895Y2266640D01*
X3274618Y2266419D01*
X3274319Y2266230D01*
X3274130Y2266030D01*
X3273916Y2265859D01*
X3273703Y2265576D01*
X3273460Y2265318D01*
X3273327Y2265078D01*
X3273162Y2264858D01*
X3272881Y2264286D01*
X3268669Y2254117D01*
X3245883Y2231331D01*
X3216112Y2218999D01*
X3183888Y2218999D01*
X3154117Y2231331D01*
X3131331Y2254117D01*
X3118999Y2283888D01*
X3118999Y2316112D01*
X3131331Y2345883D01*
X3154117Y2368669D01*
X3164286Y2372881D01*
X3164525Y2373017D01*
X3164780Y2373118D01*
X3165066Y2373326D01*
X3165374Y2373502D01*
X3165572Y2373693D01*
X3165794Y2373854D01*
X3166019Y2374127D01*
X3166274Y2374373D01*
X3166417Y2374607D01*
X3166592Y2374819D01*
X3166743Y2375138D01*
X3166929Y2375440D01*
X3167009Y2375703D01*
X3167126Y2375951D01*
X3167193Y2376299D01*
X3167297Y2376637D01*
X3167311Y2376911D01*
X3167362Y2377181D01*
X3167340Y2377535D01*
X3167357Y2377888D01*
X3167302Y2378157D01*
X3167285Y2378431D01*
X3167176Y2378768D01*
X3167104Y2379115D01*
X3166984Y2379361D01*
X3166899Y2379623D01*
X3166710Y2379922D01*
X3166555Y2380240D01*
X3166377Y2380449D01*
X3166230Y2380681D01*
X3165971Y2380924D01*
X3165742Y2381193D01*
X3165518Y2381351D01*
X3165318Y2381540D01*
X3165008Y2381711D01*
X3164719Y2381915D01*
X3164462Y2382012D01*
X3164222Y2382145D01*
X3163879Y2382234D01*
X3163548Y2382359D01*
X3163275Y2382390D01*
X3163009Y2382459D01*
X3162373Y2382499D01*
X3037627Y2382499D01*
X3037354Y2382465D01*
X3037080Y2382469D01*
X3036735Y2382387D01*
X3036384Y2382342D01*
X3036129Y2382242D01*
X3035862Y2382177D01*
X3035549Y2382012D01*
X3035220Y2381882D01*
X3034998Y2381720D01*
X3034755Y2381592D01*
X3034493Y2381354D01*
X3034206Y2381146D01*
X3034031Y2380934D01*
X3033828Y2380750D01*
X3033633Y2380454D01*
X3033407Y2380181D01*
X3033290Y2379933D01*
X3033139Y2379704D01*
X3033024Y2379369D01*
X3032873Y2379049D01*
X3032822Y2378779D01*
X3032732Y2378519D01*
X3032704Y2378166D01*
X3032638Y2377819D01*
X3032655Y2377545D01*
X3032633Y2377271D01*
X3032693Y2376922D01*
X3032715Y2376569D01*
X3032799Y2376307D01*
X3032846Y2376037D01*
X3032992Y2375714D01*
X3033101Y2375377D01*
X3033247Y2375145D01*
X3033360Y2374895D01*
X3033580Y2374618D01*
X3033770Y2374319D01*
X3033970Y2374130D01*
X3034141Y2373916D01*
X3034424Y2373703D01*
X3034682Y2373460D01*
X3034922Y2373327D01*
X3035141Y2373162D01*
X3035714Y2372881D01*
X3045883Y2368669D01*
X3068669Y2345883D01*
X3081001Y2316112D01*
X3081001Y2283888D01*
X3068669Y2254117D01*
X3045883Y2231331D01*
X3016112Y2218999D01*
X2983888Y2218999D01*
X2954117Y2231331D01*
X2931331Y2254117D01*
X2918999Y2283888D01*
X2918999Y2316112D01*
X2931331Y2345883D01*
X2954117Y2368669D01*
X2964286Y2372881D01*
X2964525Y2373017D01*
X2964780Y2373118D01*
X2965066Y2373326D01*
X2965374Y2373502D01*
X2965572Y2373693D01*
X2965794Y2373854D01*
X2966019Y2374127D01*
X2966274Y2374373D01*
X2966417Y2374607D01*
X2966592Y2374819D01*
X2966743Y2375138D01*
X2966929Y2375440D01*
X2967009Y2375703D01*
X2967126Y2375951D01*
X2967193Y2376299D01*
X2967297Y2376637D01*
X2967311Y2376911D01*
X2967362Y2377181D01*
X2967340Y2377535D01*
X2967357Y2377888D01*
X2967302Y2378157D01*
X2967285Y2378431D01*
X2967176Y2378768D01*
X2967104Y2379115D01*
X2966984Y2379361D01*
X2966899Y2379623D01*
X2966710Y2379922D01*
X2966555Y2380240D01*
X2966377Y2380449D01*
X2966230Y2380681D01*
X2965971Y2380924D01*
X2965742Y2381193D01*
X2965518Y2381351D01*
X2965318Y2381540D01*
X2965008Y2381711D01*
X2964719Y2381915D01*
X2964462Y2382012D01*
X2964222Y2382145D01*
X2963879Y2382234D01*
X2963548Y2382359D01*
X2963275Y2382390D01*
X2963009Y2382459D01*
X2962373Y2382499D01*
X337627Y2382499D01*
X337354Y2382465D01*
X337080Y2382469D01*
X336735Y2382387D01*
X336384Y2382342D01*
X336129Y2382242D01*
X335862Y2382177D01*
X335549Y2382012D01*
X335220Y2381882D01*
X334998Y2381720D01*
X334755Y2381592D01*
X334493Y2381354D01*
X334206Y2381146D01*
X334031Y2380934D01*
X333828Y2380750D01*
X333633Y2380454D01*
X333407Y2380181D01*
X333290Y2379933D01*
X333139Y2379704D01*
X333024Y2379369D01*
X332873Y2379049D01*
X332822Y2378779D01*
X332732Y2378519D01*
X332704Y2378166D01*
X332638Y2377819D01*
X332655Y2377545D01*
X332633Y2377271D01*
X332693Y2376922D01*
X332715Y2376569D01*
X332799Y2376307D01*
X332846Y2376037D01*
X332992Y2375714D01*
X333101Y2375377D01*
X333247Y2375145D01*
X333360Y2374895D01*
X333580Y2374618D01*
X333770Y2374319D01*
X333970Y2374130D01*
X334141Y2373916D01*
X334424Y2373703D01*
X334682Y2373460D01*
X334922Y2373327D01*
X335141Y2373162D01*
X335714Y2372881D01*
X345883Y2368669D01*
X368669Y2345883D01*
X381001Y2316112D01*
X381001Y2283888D01*
X368669Y2254117D01*
X345883Y2231331D01*
X316112Y2218999D01*
X283888Y2218999D01*
X254117Y2231331D01*
X231331Y2254117D01*
X218999Y2283888D01*
X218999Y2316112D01*
X231331Y2345883D01*
X254117Y2368669D01*
X264286Y2372881D01*
X264525Y2373017D01*
X264780Y2373118D01*
X265066Y2373326D01*
X265374Y2373502D01*
X265572Y2373693D01*
X265794Y2373854D01*
X266019Y2374127D01*
X266274Y2374373D01*
X266417Y2374607D01*
X266592Y2374819D01*
X266743Y2375138D01*
X266929Y2375440D01*
X267009Y2375703D01*
X267126Y2375951D01*
X267193Y2376299D01*
X267297Y2376637D01*
X267311Y2376911D01*
X267362Y2377181D01*
X267340Y2377535D01*
X267357Y2377888D01*
X267302Y2378157D01*
X267285Y2378431D01*
X267176Y2378768D01*
X267104Y2379115D01*
X266984Y2379361D01*
X266899Y2379623D01*
X266710Y2379922D01*
X266555Y2380240D01*
X266377Y2380449D01*
X266230Y2380681D01*
X265971Y2380924D01*
X265742Y2381193D01*
X265518Y2381351D01*
X265318Y2381540D01*
X265008Y2381711D01*
X264719Y2381915D01*
X264462Y2382012D01*
X264222Y2382145D01*
X263879Y2382234D01*
X263548Y2382359D01*
X263275Y2382390D01*
X263009Y2382459D01*
X262373Y2382499D01*
X137627Y2382499D01*
X137354Y2382465D01*
X137080Y2382469D01*
X136735Y2382387D01*
X136384Y2382342D01*
X136129Y2382242D01*
X135862Y2382177D01*
X135549Y2382012D01*
X135220Y2381882D01*
X134998Y2381720D01*
X134755Y2381592D01*
X134493Y2381354D01*
X134206Y2381146D01*
X134031Y2380934D01*
X133828Y2380750D01*
X133633Y2380454D01*
X133407Y2380181D01*
X133290Y2379933D01*
X133139Y2379704D01*
X133024Y2379369D01*
X132873Y2379049D01*
X132822Y2378779D01*
X132732Y2378519D01*
X132704Y2378166D01*
X132638Y2377819D01*
X132655Y2377545D01*
X132633Y2377271D01*
X132693Y2376922D01*
X132715Y2376569D01*
X132799Y2376307D01*
X132846Y2376037D01*
X132992Y2375714D01*
X133101Y2375377D01*
X133247Y2375145D01*
X133360Y2374895D01*
X133580Y2374618D01*
X133770Y2374319D01*
X133970Y2374130D01*
X134141Y2373916D01*
X134424Y2373703D01*
X134682Y2373460D01*
X134922Y2373327D01*
X135141Y2373162D01*
X135714Y2372881D01*
X145883Y2368669D01*
X168669Y2345883D01*
X181001Y2316112D01*
X181001Y2283888D01*
X168669Y2254117D01*
X145883Y2231331D01*
X116112Y2218999D01*
X83888Y2218999D01*
X54117Y2231331D01*
X31331Y2254117D01*
X27119Y2264286D01*
X26983Y2264525D01*
X26882Y2264780D01*
X26674Y2265066D01*
X26498Y2265374D01*
X26307Y2265572D01*
X26146Y2265794D01*
X25873Y2266019D01*
X25627Y2266274D01*
X25393Y2266417D01*
X25181Y2266592D01*
X24862Y2266743D01*
X24559Y2266929D01*
X24297Y2267009D01*
X24049Y2267126D01*
X23701Y2267193D01*
X23363Y2267297D01*
X23088Y2267311D01*
X22819Y2267362D01*
X22465Y2267340D01*
X22112Y2267357D01*
X21843Y2267302D01*
X21569Y2267285D01*
X21231Y2267176D01*
X20885Y2267104D01*
X20639Y2266984D01*
X20377Y2266899D01*
X20078Y2266710D01*
X19760Y2266555D01*
X19551Y2266377D01*
X19319Y2266230D01*
X19076Y2265971D01*
X18807Y2265742D01*
X18649Y2265518D01*
X18460Y2265318D01*
X18289Y2265008D01*
X18085Y2264719D01*
X17988Y2264462D01*
X17855Y2264222D01*
X17766Y2263879D01*
X17641Y2263548D01*
X17610Y2263275D01*
X17541Y2263009D01*
X17501Y2262373D01*
X17501Y137627D01*
X17535Y137354D01*
X17531Y137080D01*
X17613Y136735D01*
X17657Y136384D01*
X17758Y136129D01*
X17822Y135862D01*
X17988Y135548D01*
X18118Y135220D01*
X18279Y134998D01*
X18408Y134755D01*
X18646Y134492D01*
X18854Y134206D01*
X19066Y134031D01*
X19250Y133828D01*
X19546Y133633D01*
X19818Y133408D01*
X20067Y133291D01*
X20296Y133140D01*
X20631Y133024D01*
X20951Y132874D01*
X21221Y132822D01*
X21481Y132733D01*
X21833Y132704D01*
X22181Y132638D01*
X22455Y132655D01*
X22729Y132633D01*
X23078Y132693D01*
X23431Y132715D01*
X23693Y132800D01*
X23963Y132846D01*
X24286Y132992D01*
X24623Y133101D01*
X24855Y133248D01*
X25105Y133360D01*
X25381Y133581D01*
X25681Y133770D01*
X25870Y133970D01*
X26084Y134141D01*
X26297Y134424D01*
X26540Y134682D01*
X26672Y134922D01*
X26838Y135141D01*
X27119Y135714D01*
X31331Y145883D01*
X54117Y168669D01*
X83888Y181001D01*
X116112Y181001D01*
X145883Y168669D01*
X168669Y145883D01*
X181001Y116112D01*
X181001Y83888D01*
X168669Y54117D01*
X145883Y31331D01*
X135714Y27119D01*
X135475Y26982D01*
X135220Y26882D01*
X134934Y26674D01*
X134626Y26498D01*
X134428Y26307D01*
X134206Y26146D01*
X133981Y25874D01*
X133726Y25627D01*
X133582Y25392D01*
X133408Y25181D01*
X133257Y24862D01*
X133071Y24559D01*
X132991Y24297D01*
X132874Y24049D01*
X132807Y23701D01*
X132703Y23363D01*
X132689Y23088D01*
X132638Y22819D01*
X132660Y22465D01*
X132643Y22112D01*
X132698Y21843D01*
X132715Y21569D01*
X132824Y21231D01*
X132896Y20885D01*
X133016Y20639D01*
X133101Y20377D01*
X133290Y20078D01*
X133445Y19760D01*
X133623Y19551D01*
X133770Y19319D01*
X134028Y19076D01*
X134258Y18807D01*
X134482Y18648D01*
X134682Y18460D01*
X134992Y18289D01*
X135281Y18085D01*
X135538Y17988D01*
X135778Y17855D01*
X136121Y17766D01*
X136452Y17641D01*
X136725Y17610D01*
X136991Y17541D01*
X137627Y17501D01*
X262373Y17501D01*
X262646Y17535D01*
G37*
%LPC*%
G36*
X745823Y1328999D02*
X745823Y1328999D01*
X738104Y1332196D01*
X732196Y1338104D01*
X728999Y1345823D01*
X728999Y1354177D01*
X732276Y1362087D01*
X732327Y1362275D01*
X732410Y1362451D01*
X732492Y1362876D01*
X732606Y1363295D01*
X732609Y1363490D01*
X732646Y1363681D01*
X732619Y1364113D01*
X732626Y1364547D01*
X732581Y1364736D01*
X732569Y1364931D01*
X732435Y1365344D01*
X732334Y1365765D01*
X732243Y1365937D01*
X732183Y1366123D01*
X731951Y1366489D01*
X731749Y1366872D01*
X731618Y1367016D01*
X731514Y1367181D01*
X731197Y1367479D01*
X730907Y1367799D01*
X730744Y1367906D01*
X730602Y1368040D01*
X730223Y1368249D01*
X729861Y1368487D01*
X729676Y1368551D01*
X729506Y1368645D01*
X729086Y1368753D01*
X728676Y1368894D01*
X728482Y1368910D01*
X728293Y1368959D01*
X727657Y1368999D01*
X693834Y1368999D01*
X682440Y1373719D01*
X673719Y1382440D01*
X668999Y1393834D01*
X668999Y1406166D01*
X673719Y1417560D01*
X682440Y1426281D01*
X693834Y1431001D01*
X2656166Y1431001D01*
X2667560Y1426281D01*
X2676281Y1417560D01*
X2681001Y1406166D01*
X2681001Y1393834D01*
X2676281Y1382440D01*
X2667560Y1373719D01*
X2656166Y1368999D01*
X2547343Y1368999D01*
X2547149Y1368975D01*
X2546955Y1368984D01*
X2546530Y1368897D01*
X2546100Y1368842D01*
X2545919Y1368771D01*
X2545728Y1368731D01*
X2545338Y1368541D01*
X2544936Y1368382D01*
X2544778Y1368267D01*
X2544603Y1368181D01*
X2544273Y1367901D01*
X2543922Y1367646D01*
X2543798Y1367495D01*
X2543650Y1367369D01*
X2543400Y1367015D01*
X2543124Y1366681D01*
X2543040Y1366505D01*
X2542928Y1366346D01*
X2542774Y1365940D01*
X2542590Y1365549D01*
X2542553Y1365357D01*
X2542484Y1365175D01*
X2542435Y1364744D01*
X2542354Y1364319D01*
X2542366Y1364124D01*
X2542344Y1363930D01*
X2542404Y1363501D01*
X2542431Y1363069D01*
X2542491Y1362883D01*
X2542518Y1362690D01*
X2542724Y1362087D01*
X2546001Y1354177D01*
X2546001Y1345823D01*
X2542804Y1338104D01*
X2536896Y1332196D01*
X2529177Y1328999D01*
X2520823Y1328999D01*
X2513104Y1332196D01*
X2507766Y1337535D01*
X2507458Y1337773D01*
X2507175Y1338040D01*
X2506966Y1338156D01*
X2506776Y1338303D01*
X2506419Y1338457D01*
X2506079Y1338645D01*
X2505847Y1338705D01*
X2505627Y1338800D01*
X2505243Y1338861D01*
X2504867Y1338959D01*
X2504470Y1338984D01*
X2504390Y1338997D01*
X2504342Y1338992D01*
X2504230Y1338999D01*
X2170769Y1338999D01*
X2170384Y1338951D01*
X2169995Y1338939D01*
X2169765Y1338872D01*
X2169527Y1338842D01*
X2169166Y1338700D01*
X2168792Y1338592D01*
X2168585Y1338470D01*
X2168362Y1338382D01*
X2168048Y1338153D01*
X2167713Y1337956D01*
X2167414Y1337694D01*
X2167349Y1337646D01*
X2167318Y1337609D01*
X2167234Y1337535D01*
X2161896Y1332196D01*
X2154177Y1328999D01*
X2145823Y1328999D01*
X2138104Y1332196D01*
X2132766Y1337535D01*
X2132459Y1337773D01*
X2132176Y1338040D01*
X2131966Y1338156D01*
X2131776Y1338303D01*
X2131419Y1338457D01*
X2131079Y1338645D01*
X2130847Y1338705D01*
X2130627Y1338800D01*
X2130243Y1338861D01*
X2129867Y1338959D01*
X2129470Y1338984D01*
X2129390Y1338997D01*
X2129342Y1338992D01*
X2129231Y1338999D01*
X1845769Y1338999D01*
X1845384Y1338951D01*
X1844995Y1338939D01*
X1844765Y1338872D01*
X1844527Y1338842D01*
X1844166Y1338700D01*
X1843792Y1338592D01*
X1843585Y1338470D01*
X1843362Y1338382D01*
X1843048Y1338153D01*
X1842713Y1337956D01*
X1842414Y1337694D01*
X1842349Y1337646D01*
X1842318Y1337609D01*
X1842234Y1337535D01*
X1836896Y1332196D01*
X1829177Y1328999D01*
X1820823Y1328999D01*
X1813104Y1332196D01*
X1807766Y1337535D01*
X1807458Y1337773D01*
X1807175Y1338040D01*
X1806966Y1338156D01*
X1806776Y1338303D01*
X1806419Y1338457D01*
X1806079Y1338645D01*
X1805847Y1338705D01*
X1805627Y1338800D01*
X1805243Y1338861D01*
X1804867Y1338959D01*
X1804470Y1338984D01*
X1804390Y1338997D01*
X1804342Y1338992D01*
X1804230Y1338999D01*
X1170769Y1338999D01*
X1170384Y1338951D01*
X1169995Y1338939D01*
X1169765Y1338872D01*
X1169527Y1338842D01*
X1169166Y1338700D01*
X1168792Y1338592D01*
X1168585Y1338470D01*
X1168362Y1338382D01*
X1168048Y1338153D01*
X1167713Y1337956D01*
X1167414Y1337694D01*
X1167349Y1337646D01*
X1167318Y1337609D01*
X1167234Y1337535D01*
X1161896Y1332196D01*
X1154177Y1328999D01*
X1145823Y1328999D01*
X1138104Y1332196D01*
X1132766Y1337535D01*
X1132458Y1337773D01*
X1132175Y1338040D01*
X1131966Y1338156D01*
X1131776Y1338303D01*
X1131419Y1338457D01*
X1131079Y1338645D01*
X1130847Y1338705D01*
X1130627Y1338800D01*
X1130243Y1338861D01*
X1129867Y1338959D01*
X1129470Y1338984D01*
X1129390Y1338997D01*
X1129342Y1338992D01*
X1129230Y1338999D01*
X1095769Y1338999D01*
X1095384Y1338951D01*
X1094995Y1338939D01*
X1094765Y1338872D01*
X1094527Y1338842D01*
X1094165Y1338699D01*
X1093792Y1338592D01*
X1093585Y1338470D01*
X1093362Y1338382D01*
X1093048Y1338153D01*
X1092713Y1337956D01*
X1092415Y1337694D01*
X1092349Y1337646D01*
X1092318Y1337608D01*
X1092234Y1337535D01*
X1086896Y1332196D01*
X1079177Y1328999D01*
X1070823Y1328999D01*
X1063104Y1332196D01*
X1057766Y1337535D01*
X1057458Y1337773D01*
X1057175Y1338040D01*
X1056966Y1338156D01*
X1056776Y1338303D01*
X1056419Y1338457D01*
X1056079Y1338645D01*
X1055847Y1338705D01*
X1055627Y1338800D01*
X1055243Y1338861D01*
X1054867Y1338959D01*
X1054470Y1338984D01*
X1054390Y1338997D01*
X1054342Y1338992D01*
X1054230Y1338999D01*
X770769Y1338999D01*
X770384Y1338951D01*
X769995Y1338939D01*
X769765Y1338872D01*
X769527Y1338842D01*
X769166Y1338700D01*
X768792Y1338592D01*
X768585Y1338470D01*
X768362Y1338382D01*
X768048Y1338153D01*
X767713Y1337956D01*
X767414Y1337694D01*
X767349Y1337646D01*
X767318Y1337609D01*
X767234Y1337535D01*
X761896Y1332196D01*
X754177Y1328999D01*
X745823Y1328999D01*
G37*
%LPD*%
%LPC*%
G36*
X895823Y1453999D02*
X895823Y1453999D01*
X888104Y1457196D01*
X882196Y1463104D01*
X878999Y1470823D01*
X878999Y1479177D01*
X882196Y1486896D01*
X888104Y1492804D01*
X895823Y1496001D01*
X904177Y1496001D01*
X911896Y1492804D01*
X917234Y1487465D01*
X917542Y1487226D01*
X917824Y1486960D01*
X918034Y1486844D01*
X918224Y1486697D01*
X918581Y1486543D01*
X918921Y1486355D01*
X919153Y1486295D01*
X919373Y1486200D01*
X919757Y1486139D01*
X920133Y1486041D01*
X920530Y1486016D01*
X920610Y1486003D01*
X920658Y1486008D01*
X920769Y1486001D01*
X1079230Y1486001D01*
X1079616Y1486049D01*
X1080005Y1486061D01*
X1080235Y1486127D01*
X1080473Y1486157D01*
X1080834Y1486300D01*
X1081208Y1486408D01*
X1081414Y1486530D01*
X1081637Y1486618D01*
X1081952Y1486846D01*
X1082287Y1487044D01*
X1082585Y1487306D01*
X1082651Y1487354D01*
X1082682Y1487391D01*
X1082766Y1487465D01*
X1088104Y1492804D01*
X1095823Y1496001D01*
X1104177Y1496001D01*
X1111896Y1492804D01*
X1117234Y1487465D01*
X1117542Y1487226D01*
X1117824Y1486960D01*
X1118034Y1486844D01*
X1118224Y1486697D01*
X1118581Y1486543D01*
X1118921Y1486355D01*
X1119153Y1486295D01*
X1119373Y1486200D01*
X1119757Y1486139D01*
X1120133Y1486041D01*
X1120530Y1486016D01*
X1120610Y1486003D01*
X1120658Y1486008D01*
X1120769Y1486001D01*
X1754231Y1486001D01*
X1754616Y1486049D01*
X1755005Y1486061D01*
X1755235Y1486127D01*
X1755473Y1486157D01*
X1755835Y1486301D01*
X1756208Y1486408D01*
X1756414Y1486530D01*
X1756638Y1486618D01*
X1756952Y1486847D01*
X1757287Y1487044D01*
X1757585Y1487306D01*
X1757651Y1487354D01*
X1757682Y1487391D01*
X1757766Y1487465D01*
X1763104Y1492803D01*
X1770823Y1496001D01*
X1779177Y1496001D01*
X1786896Y1492803D01*
X1792234Y1487465D01*
X1792541Y1487227D01*
X1792824Y1486960D01*
X1793034Y1486844D01*
X1793224Y1486697D01*
X1793581Y1486543D01*
X1793921Y1486355D01*
X1794153Y1486295D01*
X1794373Y1486200D01*
X1794757Y1486139D01*
X1795133Y1486041D01*
X1795530Y1486016D01*
X1795610Y1486003D01*
X1795658Y1486008D01*
X1795769Y1486001D01*
X1954231Y1486001D01*
X1954616Y1486049D01*
X1955005Y1486061D01*
X1955235Y1486127D01*
X1955473Y1486157D01*
X1955835Y1486301D01*
X1956208Y1486408D01*
X1956414Y1486530D01*
X1956638Y1486618D01*
X1956952Y1486847D01*
X1957287Y1487044D01*
X1957585Y1487306D01*
X1957651Y1487354D01*
X1957682Y1487391D01*
X1957766Y1487465D01*
X1963104Y1492803D01*
X1970823Y1496001D01*
X1979177Y1496001D01*
X1986896Y1492803D01*
X1992234Y1487465D01*
X1992541Y1487227D01*
X1992824Y1486960D01*
X1993034Y1486844D01*
X1993224Y1486697D01*
X1993581Y1486543D01*
X1993921Y1486355D01*
X1994153Y1486295D01*
X1994373Y1486200D01*
X1994757Y1486139D01*
X1995133Y1486041D01*
X1995530Y1486016D01*
X1995610Y1486003D01*
X1995658Y1486008D01*
X1995769Y1486001D01*
X2304230Y1486001D01*
X2304616Y1486049D01*
X2305005Y1486061D01*
X2305235Y1486127D01*
X2305473Y1486157D01*
X2305834Y1486300D01*
X2306208Y1486408D01*
X2306414Y1486530D01*
X2306637Y1486618D01*
X2306952Y1486846D01*
X2307287Y1487044D01*
X2307585Y1487306D01*
X2307651Y1487354D01*
X2307682Y1487391D01*
X2307766Y1487465D01*
X2313104Y1492804D01*
X2320823Y1496001D01*
X2329177Y1496001D01*
X2336896Y1492804D01*
X2342804Y1486896D01*
X2346001Y1479177D01*
X2346001Y1470823D01*
X2342804Y1463104D01*
X2336896Y1457196D01*
X2329177Y1453999D01*
X2320823Y1453999D01*
X2313104Y1457196D01*
X2307766Y1462535D01*
X2307458Y1462773D01*
X2307175Y1463040D01*
X2306966Y1463156D01*
X2306776Y1463303D01*
X2306419Y1463457D01*
X2306079Y1463645D01*
X2305847Y1463705D01*
X2305627Y1463800D01*
X2305243Y1463861D01*
X2304867Y1463959D01*
X2304470Y1463984D01*
X2304390Y1463997D01*
X2304342Y1463992D01*
X2304230Y1463999D01*
X1995769Y1463999D01*
X1995384Y1463951D01*
X1994995Y1463939D01*
X1994765Y1463872D01*
X1994527Y1463842D01*
X1994165Y1463699D01*
X1993792Y1463592D01*
X1993585Y1463470D01*
X1993362Y1463382D01*
X1993048Y1463153D01*
X1992713Y1462956D01*
X1992415Y1462694D01*
X1992349Y1462646D01*
X1992318Y1462608D01*
X1992234Y1462535D01*
X1986896Y1457196D01*
X1979177Y1453999D01*
X1970823Y1453999D01*
X1963104Y1457196D01*
X1957766Y1462535D01*
X1957459Y1462773D01*
X1957176Y1463040D01*
X1956966Y1463156D01*
X1956776Y1463303D01*
X1956419Y1463457D01*
X1956079Y1463645D01*
X1955847Y1463705D01*
X1955627Y1463800D01*
X1955243Y1463861D01*
X1954867Y1463959D01*
X1954470Y1463984D01*
X1954390Y1463997D01*
X1954342Y1463992D01*
X1954231Y1463999D01*
X1795769Y1463999D01*
X1795384Y1463951D01*
X1794995Y1463939D01*
X1794765Y1463872D01*
X1794527Y1463842D01*
X1794165Y1463699D01*
X1793792Y1463592D01*
X1793585Y1463470D01*
X1793362Y1463382D01*
X1793048Y1463153D01*
X1792713Y1462956D01*
X1792415Y1462694D01*
X1792349Y1462646D01*
X1792318Y1462608D01*
X1792234Y1462535D01*
X1786896Y1457196D01*
X1779177Y1453999D01*
X1770823Y1453999D01*
X1763104Y1457196D01*
X1757766Y1462535D01*
X1757459Y1462773D01*
X1757176Y1463040D01*
X1756966Y1463156D01*
X1756776Y1463303D01*
X1756419Y1463457D01*
X1756079Y1463645D01*
X1755847Y1463705D01*
X1755627Y1463800D01*
X1755243Y1463861D01*
X1754867Y1463959D01*
X1754470Y1463984D01*
X1754390Y1463997D01*
X1754342Y1463992D01*
X1754231Y1463999D01*
X1120769Y1463999D01*
X1120384Y1463951D01*
X1119995Y1463939D01*
X1119765Y1463872D01*
X1119527Y1463842D01*
X1119166Y1463700D01*
X1118792Y1463592D01*
X1118585Y1463470D01*
X1118362Y1463382D01*
X1118048Y1463153D01*
X1117713Y1462956D01*
X1117414Y1462694D01*
X1117349Y1462646D01*
X1117318Y1462609D01*
X1117234Y1462535D01*
X1111896Y1457196D01*
X1104177Y1453999D01*
X1095823Y1453999D01*
X1088104Y1457196D01*
X1082766Y1462535D01*
X1082458Y1462773D01*
X1082175Y1463040D01*
X1081966Y1463156D01*
X1081776Y1463303D01*
X1081419Y1463457D01*
X1081079Y1463645D01*
X1080847Y1463705D01*
X1080627Y1463800D01*
X1080243Y1463861D01*
X1079867Y1463959D01*
X1079470Y1463984D01*
X1079390Y1463997D01*
X1079342Y1463992D01*
X1079230Y1463999D01*
X920769Y1463999D01*
X920384Y1463951D01*
X919995Y1463939D01*
X919765Y1463872D01*
X919527Y1463842D01*
X919166Y1463700D01*
X918792Y1463592D01*
X918585Y1463470D01*
X918362Y1463382D01*
X918048Y1463153D01*
X917713Y1462956D01*
X917414Y1462694D01*
X917349Y1462646D01*
X917318Y1462609D01*
X917234Y1462535D01*
X911896Y1457196D01*
X904177Y1453999D01*
X895823Y1453999D01*
G37*
%LPD*%
%LPC*%
G36*
X1636900Y1597499D02*
X1636900Y1597499D01*
X1611594Y1604280D01*
X1588905Y1617379D01*
X1570379Y1635905D01*
X1557280Y1658594D01*
X1550499Y1683900D01*
X1550499Y1710100D01*
X1557280Y1735406D01*
X1570379Y1758094D01*
X1588905Y1776620D01*
X1611594Y1789720D01*
X1636900Y1796501D01*
X1663100Y1796501D01*
X1688406Y1789720D01*
X1711094Y1776620D01*
X1729620Y1758094D01*
X1742720Y1735406D01*
X1749501Y1710100D01*
X1749501Y1683900D01*
X1742720Y1658594D01*
X1729620Y1635905D01*
X1711094Y1617379D01*
X1688406Y1604280D01*
X1663100Y1597499D01*
X1636900Y1597499D01*
G37*
%LPD*%
%LPC*%
G36*
X3076900Y1597499D02*
X3076900Y1597499D01*
X3051594Y1604280D01*
X3028905Y1617379D01*
X3010379Y1635905D01*
X2997280Y1658594D01*
X2990499Y1683900D01*
X2990499Y1710100D01*
X2997280Y1735406D01*
X3010379Y1758094D01*
X3028905Y1776620D01*
X3051594Y1789720D01*
X3076900Y1796501D01*
X3103100Y1796501D01*
X3128406Y1789720D01*
X3151094Y1776620D01*
X3169620Y1758094D01*
X3182720Y1735406D01*
X3189501Y1710100D01*
X3189501Y1683900D01*
X3182720Y1658594D01*
X3169620Y1635905D01*
X3151094Y1617379D01*
X3128406Y1604280D01*
X3103100Y1597499D01*
X3076900Y1597499D01*
G37*
%LPD*%
%LPC*%
G36*
X196900Y1597499D02*
X196900Y1597499D01*
X171594Y1604280D01*
X148905Y1617379D01*
X130379Y1635905D01*
X117280Y1658594D01*
X110499Y1683900D01*
X110499Y1710100D01*
X117280Y1735406D01*
X130379Y1758094D01*
X148905Y1776620D01*
X171594Y1789720D01*
X196900Y1796501D01*
X223100Y1796501D01*
X248406Y1789720D01*
X271094Y1776620D01*
X289620Y1758094D01*
X302720Y1735406D01*
X309501Y1710100D01*
X309501Y1683900D01*
X302720Y1658594D01*
X289620Y1635905D01*
X271094Y1617379D01*
X248406Y1604280D01*
X223100Y1597499D01*
X196900Y1597499D01*
G37*
%LPD*%
%LPC*%
G36*
X196900Y603499D02*
X196900Y603499D01*
X171594Y610280D01*
X148905Y623379D01*
X130379Y641905D01*
X117280Y664594D01*
X110499Y689900D01*
X110499Y716100D01*
X117280Y741406D01*
X130379Y764094D01*
X148905Y782620D01*
X171594Y795720D01*
X196900Y802501D01*
X223100Y802501D01*
X248406Y795720D01*
X271094Y782620D01*
X289620Y764094D01*
X302720Y741406D01*
X309501Y716100D01*
X309501Y689900D01*
X302720Y664594D01*
X289620Y641905D01*
X271094Y623379D01*
X248406Y610280D01*
X223100Y603499D01*
X196900Y603499D01*
G37*
%LPD*%
%LPC*%
G36*
X1636900Y603499D02*
X1636900Y603499D01*
X1611594Y610280D01*
X1588905Y623379D01*
X1570379Y641905D01*
X1557280Y664594D01*
X1550499Y689900D01*
X1550499Y716100D01*
X1557280Y741406D01*
X1570379Y764094D01*
X1588905Y782620D01*
X1611594Y795720D01*
X1636900Y802501D01*
X1663100Y802501D01*
X1688406Y795720D01*
X1711094Y782620D01*
X1729620Y764094D01*
X1742720Y741406D01*
X1749501Y716100D01*
X1749501Y689900D01*
X1742720Y664594D01*
X1729620Y641905D01*
X1711094Y623379D01*
X1688406Y610280D01*
X1663100Y603499D01*
X1636900Y603499D01*
G37*
%LPD*%
%LPC*%
G36*
X3076900Y603499D02*
X3076900Y603499D01*
X3051594Y610280D01*
X3028905Y623379D01*
X3010379Y641905D01*
X2997280Y664594D01*
X2990499Y689900D01*
X2990499Y716100D01*
X2997280Y741406D01*
X3010379Y764094D01*
X3028905Y782620D01*
X3051594Y795720D01*
X3076900Y802501D01*
X3103100Y802501D01*
X3128406Y795720D01*
X3151094Y782620D01*
X3169620Y764094D01*
X3182720Y741406D01*
X3189501Y716100D01*
X3189501Y689900D01*
X3182720Y664594D01*
X3169620Y641905D01*
X3151094Y623379D01*
X3128406Y610280D01*
X3103100Y603499D01*
X3076900Y603499D01*
G37*
%LPD*%
%LPC*%
G36*
X2045823Y1778999D02*
X2045823Y1778999D01*
X2038104Y1782196D01*
X2032196Y1788104D01*
X2028999Y1795823D01*
X2028999Y1804177D01*
X2032196Y1811896D01*
X2038104Y1817804D01*
X2045823Y1821001D01*
X2054177Y1821001D01*
X2061896Y1817804D01*
X2067234Y1812465D01*
X2067542Y1812226D01*
X2067824Y1811960D01*
X2068034Y1811844D01*
X2068224Y1811697D01*
X2068581Y1811543D01*
X2068921Y1811355D01*
X2069153Y1811295D01*
X2069373Y1811200D01*
X2069757Y1811139D01*
X2070133Y1811041D01*
X2070530Y1811016D01*
X2070610Y1811003D01*
X2070658Y1811008D01*
X2070769Y1811001D01*
X2229230Y1811001D01*
X2229616Y1811049D01*
X2230005Y1811061D01*
X2230235Y1811127D01*
X2230473Y1811157D01*
X2230834Y1811300D01*
X2231208Y1811408D01*
X2231414Y1811530D01*
X2231637Y1811618D01*
X2231952Y1811846D01*
X2232287Y1812044D01*
X2232585Y1812306D01*
X2232651Y1812354D01*
X2232682Y1812391D01*
X2232766Y1812465D01*
X2238104Y1817804D01*
X2245823Y1821001D01*
X2254177Y1821001D01*
X2261896Y1817804D01*
X2267804Y1811896D01*
X2271001Y1804177D01*
X2271001Y1795823D01*
X2267804Y1788104D01*
X2261896Y1782196D01*
X2254177Y1778999D01*
X2245823Y1778999D01*
X2238104Y1782196D01*
X2232766Y1787535D01*
X2232458Y1787773D01*
X2232175Y1788040D01*
X2231966Y1788156D01*
X2231776Y1788303D01*
X2231419Y1788457D01*
X2231079Y1788645D01*
X2230847Y1788705D01*
X2230627Y1788800D01*
X2230243Y1788861D01*
X2229867Y1788959D01*
X2229470Y1788984D01*
X2229390Y1788997D01*
X2229342Y1788992D01*
X2229230Y1788999D01*
X2070769Y1788999D01*
X2070384Y1788951D01*
X2069995Y1788939D01*
X2069765Y1788872D01*
X2069527Y1788842D01*
X2069166Y1788700D01*
X2068792Y1788592D01*
X2068585Y1788470D01*
X2068362Y1788382D01*
X2068048Y1788153D01*
X2067713Y1787956D01*
X2067414Y1787694D01*
X2067349Y1787646D01*
X2067318Y1787609D01*
X2067234Y1787535D01*
X2061896Y1782196D01*
X2054177Y1778999D01*
X2045823Y1778999D01*
G37*
%LPD*%
%LPC*%
G36*
X2411447Y1111999D02*
X2411447Y1111999D01*
X2395642Y1118546D01*
X2383546Y1130642D01*
X2376999Y1146447D01*
X2376999Y1163553D01*
X2383546Y1179358D01*
X2395642Y1191454D01*
X2411447Y1198001D01*
X2428553Y1198001D01*
X2444358Y1191454D01*
X2456454Y1179358D01*
X2463001Y1163553D01*
X2463001Y1146447D01*
X2456454Y1130642D01*
X2444358Y1118546D01*
X2428553Y1111999D01*
X2411447Y1111999D01*
G37*
%LPD*%
%LPC*%
G36*
X2411447Y1211999D02*
X2411447Y1211999D01*
X2395642Y1218546D01*
X2383546Y1230642D01*
X2376999Y1246447D01*
X2376999Y1263553D01*
X2383546Y1279358D01*
X2395642Y1291454D01*
X2411447Y1298001D01*
X2428553Y1298001D01*
X2444358Y1291454D01*
X2456454Y1279358D01*
X2463001Y1263553D01*
X2463001Y1246447D01*
X2456454Y1230642D01*
X2444358Y1218546D01*
X2428553Y1211999D01*
X2411447Y1211999D01*
G37*
%LPD*%
%LPC*%
G36*
X971447Y1211999D02*
X971447Y1211999D01*
X955642Y1218546D01*
X943546Y1230642D01*
X936999Y1246447D01*
X936999Y1263553D01*
X943546Y1279358D01*
X955642Y1291454D01*
X971447Y1298001D01*
X988553Y1298001D01*
X1004358Y1291454D01*
X1016454Y1279358D01*
X1023001Y1263553D01*
X1023001Y1246447D01*
X1016454Y1230642D01*
X1004358Y1218546D01*
X988553Y1211999D01*
X971447Y1211999D01*
G37*
%LPD*%
%LPC*%
G36*
X2511447Y1201999D02*
X2511447Y1201999D01*
X2495642Y1208546D01*
X2483546Y1220642D01*
X2476999Y1236447D01*
X2476999Y1253553D01*
X2483546Y1269358D01*
X2495642Y1281454D01*
X2511447Y1288001D01*
X2528553Y1288001D01*
X2544358Y1281454D01*
X2556454Y1269358D01*
X2563001Y1253553D01*
X2563001Y1236447D01*
X2556454Y1220642D01*
X2544358Y1208546D01*
X2528553Y1201999D01*
X2511447Y1201999D01*
G37*
%LPD*%
%LPC*%
G36*
X2311447Y1201999D02*
X2311447Y1201999D01*
X2295642Y1208546D01*
X2283546Y1220642D01*
X2276999Y1236447D01*
X2276999Y1253553D01*
X2283546Y1269358D01*
X2295642Y1281454D01*
X2311447Y1288001D01*
X2328553Y1288001D01*
X2344358Y1281454D01*
X2356454Y1269358D01*
X2363001Y1253553D01*
X2363001Y1236447D01*
X2356454Y1220642D01*
X2344358Y1208546D01*
X2328553Y1201999D01*
X2311447Y1201999D01*
G37*
%LPD*%
%LPC*%
G36*
X1071447Y1201999D02*
X1071447Y1201999D01*
X1055642Y1208546D01*
X1043546Y1220642D01*
X1036999Y1236447D01*
X1036999Y1253553D01*
X1043546Y1269358D01*
X1055642Y1281454D01*
X1071447Y1288001D01*
X1088553Y1288001D01*
X1104358Y1281454D01*
X1116454Y1269358D01*
X1123001Y1253553D01*
X1123001Y1236447D01*
X1116454Y1220642D01*
X1104358Y1208546D01*
X1088553Y1201999D01*
X1071447Y1201999D01*
G37*
%LPD*%
%LPC*%
G36*
X871447Y1201999D02*
X871447Y1201999D01*
X855642Y1208546D01*
X843546Y1220642D01*
X836999Y1236447D01*
X836999Y1253553D01*
X843546Y1269358D01*
X855642Y1281454D01*
X871447Y1288001D01*
X888553Y1288001D01*
X904358Y1281454D01*
X916454Y1269358D01*
X923001Y1253553D01*
X923001Y1236447D01*
X916454Y1220642D01*
X904358Y1208546D01*
X888553Y1201999D01*
X871447Y1201999D01*
G37*
%LPD*%
%LPC*%
G36*
X871447Y1101999D02*
X871447Y1101999D01*
X855642Y1108546D01*
X843546Y1120642D01*
X836999Y1136447D01*
X836999Y1153553D01*
X843546Y1169358D01*
X855642Y1181454D01*
X871447Y1188001D01*
X888553Y1188001D01*
X904358Y1181454D01*
X916454Y1169358D01*
X923001Y1153553D01*
X923001Y1136447D01*
X916454Y1120642D01*
X904358Y1108546D01*
X888553Y1101999D01*
X871447Y1101999D01*
G37*
%LPD*%
%LPC*%
G36*
X2311447Y1101999D02*
X2311447Y1101999D01*
X2295642Y1108546D01*
X2283546Y1120642D01*
X2276999Y1136447D01*
X2276999Y1153553D01*
X2283546Y1169358D01*
X2295642Y1181454D01*
X2311447Y1188001D01*
X2328553Y1188001D01*
X2344358Y1181454D01*
X2356454Y1169358D01*
X2363001Y1153553D01*
X2363001Y1136447D01*
X2356454Y1120642D01*
X2344358Y1108546D01*
X2328553Y1101999D01*
X2311447Y1101999D01*
G37*
%LPD*%
%LPC*%
G36*
X771447Y1111999D02*
X771447Y1111999D01*
X755642Y1118546D01*
X743546Y1130642D01*
X736999Y1146447D01*
X736999Y1163553D01*
X743546Y1179358D01*
X755642Y1191454D01*
X771447Y1198001D01*
X788553Y1198001D01*
X804358Y1191454D01*
X816454Y1179358D01*
X823001Y1163553D01*
X823001Y1146447D01*
X816454Y1130642D01*
X804358Y1118546D01*
X788553Y1111999D01*
X771447Y1111999D01*
G37*
%LPD*%
%LPC*%
G36*
X971447Y1111999D02*
X971447Y1111999D01*
X955642Y1118546D01*
X943546Y1130642D01*
X936999Y1146447D01*
X936999Y1163553D01*
X943546Y1179358D01*
X955642Y1191454D01*
X971447Y1198001D01*
X988553Y1198001D01*
X1004358Y1191454D01*
X1016454Y1179358D01*
X1023001Y1163553D01*
X1023001Y1146447D01*
X1016454Y1130642D01*
X1004358Y1118546D01*
X988553Y1111999D01*
X971447Y1111999D01*
G37*
%LPD*%
%LPC*%
G36*
X2211447Y1111999D02*
X2211447Y1111999D01*
X2195642Y1118546D01*
X2183546Y1130642D01*
X2176999Y1146447D01*
X2176999Y1163553D01*
X2183546Y1179358D01*
X2195642Y1191454D01*
X2211447Y1198001D01*
X2228553Y1198001D01*
X2244358Y1191454D01*
X2256454Y1179358D01*
X2263001Y1163553D01*
X2263001Y1146447D01*
X2256454Y1130642D01*
X2244358Y1118546D01*
X2228553Y1111999D01*
X2211447Y1111999D01*
G37*
%LPD*%
%LPC*%
G36*
X789999Y1264999D02*
X789999Y1264999D01*
X789999Y1302000D01*
X818317Y1302001D01*
X820860Y1301319D01*
X823140Y1300003D01*
X825003Y1298140D01*
X826319Y1295860D01*
X827001Y1293317D01*
X827001Y1264999D01*
X789999Y1264999D01*
G37*
%LPD*%
%LPC*%
G36*
X2229999Y1264999D02*
X2229999Y1264999D01*
X2229999Y1302000D01*
X2258317Y1302001D01*
X2260860Y1301319D01*
X2263140Y1300003D01*
X2265003Y1298140D01*
X2266319Y1295860D01*
X2267001Y1293317D01*
X2267001Y1264999D01*
X2229999Y1264999D01*
G37*
%LPD*%
%LPC*%
G36*
X2529999Y1154999D02*
X2529999Y1154999D01*
X2529999Y1192000D01*
X2558317Y1192001D01*
X2560860Y1191319D01*
X2563140Y1190003D01*
X2565003Y1188140D01*
X2566319Y1185860D01*
X2567001Y1183317D01*
X2567001Y1154999D01*
X2529999Y1154999D01*
G37*
%LPD*%
%LPC*%
G36*
X1089999Y1154999D02*
X1089999Y1154999D01*
X1089999Y1192000D01*
X1118317Y1192001D01*
X1120860Y1191319D01*
X1123140Y1190003D01*
X1125003Y1188140D01*
X1126319Y1185860D01*
X1127001Y1183317D01*
X1127001Y1154999D01*
X1089999Y1154999D01*
G37*
%LPD*%
%LPC*%
G36*
X2229999Y1245001D02*
X2229999Y1245001D01*
X2267001Y1245001D01*
X2267001Y1216683D01*
X2266319Y1214140D01*
X2265003Y1211860D01*
X2263140Y1209997D01*
X2260860Y1208681D01*
X2258317Y1207999D01*
X2229999Y1207999D01*
X2229999Y1245001D01*
G37*
%LPD*%
%LPC*%
G36*
X1089999Y1135001D02*
X1089999Y1135001D01*
X1127001Y1135001D01*
X1127001Y1106683D01*
X1126319Y1104140D01*
X1125003Y1101860D01*
X1123140Y1099997D01*
X1120860Y1098681D01*
X1118317Y1097999D01*
X1089999Y1097999D01*
X1089999Y1135001D01*
G37*
%LPD*%
%LPC*%
G36*
X2529999Y1135001D02*
X2529999Y1135001D01*
X2567001Y1135001D01*
X2567001Y1106683D01*
X2566319Y1104140D01*
X2565003Y1101860D01*
X2563140Y1099997D01*
X2560860Y1098681D01*
X2558317Y1097999D01*
X2529999Y1097999D01*
X2529999Y1135001D01*
G37*
%LPD*%
%LPC*%
G36*
X789999Y1245001D02*
X789999Y1245001D01*
X827001Y1245001D01*
X827001Y1216683D01*
X826319Y1214140D01*
X825003Y1211860D01*
X823140Y1209997D01*
X820860Y1208681D01*
X818317Y1207999D01*
X789999Y1207999D01*
X789999Y1245001D01*
G37*
%LPD*%
%LPC*%
G36*
X2172999Y1264999D02*
X2172999Y1264999D01*
X2172999Y1293317D01*
X2173681Y1295860D01*
X2174997Y1298140D01*
X2176860Y1300003D01*
X2179140Y1301319D01*
X2181683Y1302001D01*
X2210001Y1302001D01*
X2210001Y1264999D01*
X2172999Y1264999D01*
G37*
%LPD*%
%LPC*%
G36*
X732999Y1264999D02*
X732999Y1264999D01*
X732999Y1293317D01*
X733681Y1295860D01*
X734997Y1298140D01*
X736860Y1300003D01*
X739140Y1301319D01*
X741683Y1302001D01*
X770001Y1302001D01*
X770001Y1264999D01*
X732999Y1264999D01*
G37*
%LPD*%
%LPC*%
G36*
X2472999Y1154999D02*
X2472999Y1154999D01*
X2472999Y1183317D01*
X2473681Y1185860D01*
X2474997Y1188140D01*
X2476860Y1190003D01*
X2479140Y1191319D01*
X2481683Y1192001D01*
X2510001Y1192001D01*
X2510001Y1154999D01*
X2472999Y1154999D01*
G37*
%LPD*%
%LPC*%
G36*
X1032999Y1154999D02*
X1032999Y1154999D01*
X1032999Y1183317D01*
X1033681Y1185860D01*
X1034997Y1188140D01*
X1036860Y1190003D01*
X1039140Y1191319D01*
X1041683Y1192001D01*
X1070001Y1192001D01*
X1070001Y1154999D01*
X1032999Y1154999D01*
G37*
%LPD*%
%LPC*%
G36*
X741683Y1207999D02*
X741683Y1207999D01*
X739140Y1208681D01*
X736860Y1209997D01*
X734997Y1211860D01*
X733681Y1214140D01*
X732999Y1216683D01*
X732999Y1245001D01*
X770001Y1245001D01*
X770001Y1207999D01*
X741683Y1207999D01*
G37*
%LPD*%
%LPC*%
G36*
X1041683Y1097999D02*
X1041683Y1097999D01*
X1039140Y1098681D01*
X1036860Y1099997D01*
X1034997Y1101860D01*
X1033681Y1104140D01*
X1032999Y1106683D01*
X1032999Y1135001D01*
X1070001Y1135001D01*
X1070001Y1097999D01*
X1041683Y1097999D01*
G37*
%LPD*%
%LPC*%
G36*
X2481683Y1097999D02*
X2481683Y1097999D01*
X2479140Y1098681D01*
X2476860Y1099997D01*
X2474997Y1101860D01*
X2473681Y1104140D01*
X2472999Y1106683D01*
X2472999Y1135001D01*
X2510001Y1135001D01*
X2510001Y1097999D01*
X2481683Y1097999D01*
G37*
%LPD*%
%LPC*%
G36*
X2181683Y1207999D02*
X2181683Y1207999D01*
X2179140Y1208681D01*
X2176860Y1209997D01*
X2174997Y1211860D01*
X2173681Y1214140D01*
X2172999Y1216683D01*
X2172999Y1245001D01*
X2210001Y1245001D01*
X2210001Y1207999D01*
X2181683Y1207999D01*
G37*
%LPD*%
%LPC*%
G36*
X2519999Y1144999D02*
X2519999Y1144999D01*
X2519999Y1145001D01*
X2520001Y1145001D01*
X2520001Y1144999D01*
X2519999Y1144999D01*
G37*
%LPD*%
%LPC*%
G36*
X779999Y1254999D02*
X779999Y1254999D01*
X779999Y1255001D01*
X780001Y1255001D01*
X780001Y1254999D01*
X779999Y1254999D01*
G37*
%LPD*%
%LPC*%
G36*
X1079999Y1144999D02*
X1079999Y1144999D01*
X1079999Y1145001D01*
X1080001Y1145001D01*
X1080001Y1144999D01*
X1079999Y1144999D01*
G37*
%LPD*%
%LPC*%
G36*
X2219999Y1254999D02*
X2219999Y1254999D01*
X2219999Y1255001D01*
X2220001Y1255001D01*
X2220001Y1254999D01*
X2219999Y1254999D01*
G37*
%LPD*%
D10*
X780000Y1255000D03*
D11*
X880000Y1245000D03*
X980000Y1255000D03*
X1080000Y1245000D03*
D10*
X1080000Y1145000D03*
D11*
X980000Y1155000D03*
X880000Y1145000D03*
X780000Y1155000D03*
D10*
X2220000Y1255000D03*
D11*
X2320000Y1245000D03*
X2420000Y1255000D03*
X2520000Y1245000D03*
D10*
X2520000Y1145000D03*
D11*
X2420000Y1155000D03*
X2320000Y1145000D03*
X2220000Y1155000D03*
D12*
X100000Y100000D03*
X100000Y2300000D03*
X3000000Y2300000D03*
X300000Y100000D03*
X300000Y2300000D03*
X3000000Y100000D03*
X3200000Y2300000D03*
X3200000Y100000D03*
D13*
X1000000Y1400000D03*
D14*
X1100000Y1400000D01*
D13*
X2425000Y1400000D03*
D14*
X1500000Y1400000D02*
X1100000Y1400000D01*
X1500000Y1400000D02*
X2250000Y1400000D01*
X2425000Y1400000D01*
D13*
X2650000Y1400000D03*
D14*
X2425000Y1400000D01*
D13*
X700000Y1400000D03*
D14*
X1000000Y1400000D01*
D13*
X1100000Y1400000D03*
X1500000Y1400000D03*
X2250000Y1400000D03*
X2050000Y1800000D03*
D15*
X2250000Y1800000D01*
D13*
X2250000Y1800000D03*
X900000Y1475000D03*
X2325000Y1475000D03*
D15*
X1100000Y1475000D02*
X900000Y1475000D01*
X1100000Y1475000D02*
X1775000Y1475000D01*
X1975000Y1475000D01*
X2325000Y1475000D01*
D13*
X1100000Y1475000D03*
X1775000Y1475000D03*
X1975000Y1475000D03*
X750000Y1350000D03*
D15*
X1075000Y1350000D01*
D13*
X1075000Y1350000D03*
X2150000Y1350000D03*
D15*
X2525000Y1350000D01*
D13*
X2525000Y1350000D03*
X1825000Y1350000D03*
D15*
X2150000Y1350000D01*
D13*
X1150000Y1350000D03*
D15*
X1075000Y1350000D01*
X1150000Y1350000D02*
X1825000Y1350000D01*
M02*
