G04 EAGLE Gerber X2 export*
%TF.Part,Single*%
%TF.FileFunction,Legend,Bot,1*%
%TF.FilePolarity,Positive*%
%TF.GenerationSoftware,Autodesk,EAGLE,9.1.3*%
%TF.CreationDate,2018-09-04T16:18:44Z*%
G75*
%MOIN*%
%FSLAX36Y36*%
%LPD*%
%AMOC8*
5,1,8,0,0,1.08239X$1,22.5*%
G01*
%ADD10C,0.005000*%
%ADD11C,0.008000*%
%ADD12C,0.010000*%
%ADD13C,0.001000*%
%ADD14C,0.002000*%

G36*
X2275136Y349046D02*
X2275136Y349046D01*
X2275394Y349054D01*
X2275567Y349124D01*
X2275752Y349157D01*
X2275974Y349288D01*
X2276214Y349385D01*
X2276352Y349511D01*
X2276513Y349606D01*
X2276676Y349806D01*
X2276866Y349980D01*
X2276952Y350146D01*
X2277070Y350292D01*
X2277153Y350537D01*
X2277271Y350766D01*
X2277303Y350980D01*
X2277353Y351129D01*
X2277349Y351285D01*
X2277381Y351500D01*
X2277381Y548989D01*
X2522383Y548989D01*
X2522383Y351500D01*
X2522428Y351245D01*
X2522436Y350987D01*
X2522506Y350814D01*
X2522539Y350630D01*
X2522670Y350407D01*
X2522767Y350168D01*
X2522893Y350030D01*
X2522988Y349869D01*
X2523189Y349706D01*
X2523363Y349515D01*
X2523529Y349430D01*
X2523674Y349312D01*
X2523919Y349229D01*
X2524148Y349110D01*
X2524362Y349078D01*
X2524511Y349028D01*
X2524667Y349033D01*
X2524882Y349000D01*
X2574893Y349000D01*
X2575147Y349046D01*
X2575405Y349054D01*
X2575578Y349124D01*
X2575763Y349157D01*
X2575985Y349288D01*
X2576225Y349385D01*
X2576363Y349511D01*
X2576524Y349606D01*
X2576687Y349806D01*
X2576877Y349980D01*
X2576963Y350146D01*
X2577081Y350292D01*
X2577164Y350537D01*
X2577282Y350766D01*
X2577314Y350980D01*
X2577364Y351129D01*
X2577360Y351285D01*
X2577392Y351500D01*
X2577392Y601500D01*
X2577346Y601754D01*
X2577339Y602012D01*
X2577269Y602185D01*
X2577236Y602369D01*
X2577104Y602592D01*
X2577008Y602831D01*
X2576882Y602970D01*
X2576787Y603131D01*
X2576586Y603293D01*
X2576412Y603484D01*
X2576246Y603570D01*
X2576101Y603688D01*
X2575856Y603771D01*
X2575626Y603889D01*
X2575412Y603921D01*
X2575264Y603971D01*
X2575107Y603967D01*
X2574893Y603999D01*
X2224879Y603999D01*
X2224624Y603953D01*
X2224366Y603946D01*
X2224193Y603876D01*
X2224009Y603843D01*
X2223786Y603711D01*
X2223547Y603615D01*
X2223409Y603488D01*
X2223248Y603393D01*
X2223085Y603193D01*
X2222894Y603019D01*
X2222809Y602853D01*
X2222691Y602708D01*
X2222608Y602462D01*
X2222489Y602233D01*
X2222457Y602019D01*
X2222407Y601871D01*
X2222409Y601802D01*
X2222407Y601797D01*
X2222410Y601702D01*
X2222379Y601500D01*
X2222379Y351500D01*
X2222425Y351245D01*
X2222432Y350987D01*
X2222502Y350814D01*
X2222536Y350630D01*
X2222667Y350407D01*
X2222764Y350168D01*
X2222890Y350030D01*
X2222985Y349869D01*
X2223185Y349706D01*
X2223359Y349515D01*
X2223525Y349430D01*
X2223671Y349312D01*
X2223916Y349229D01*
X2224145Y349110D01*
X2224359Y349078D01*
X2224508Y349028D01*
X2224664Y349033D01*
X2224879Y349000D01*
X2274882Y349000D01*
X2275136Y349046D01*
G37*
G36*
X1600188Y374056D02*
X1600188Y374056D01*
X1600446Y374063D01*
X1600619Y374133D01*
X1600803Y374166D01*
X1601026Y374297D01*
X1601265Y374394D01*
X1601404Y374520D01*
X1601564Y374615D01*
X1601727Y374816D01*
X1601918Y374990D01*
X1602004Y375156D01*
X1602122Y375301D01*
X1602205Y375546D01*
X1602323Y375776D01*
X1602355Y375990D01*
X1602405Y376138D01*
X1602401Y376295D01*
X1602433Y376509D01*
X1602433Y577036D01*
X1602387Y577290D01*
X1602380Y577548D01*
X1602310Y577721D01*
X1602277Y577906D01*
X1602145Y578128D01*
X1602048Y578368D01*
X1601922Y578506D01*
X1601827Y578667D01*
X1601627Y578830D01*
X1601453Y579020D01*
X1601287Y579106D01*
X1601141Y579224D01*
X1600896Y579307D01*
X1600667Y579425D01*
X1600453Y579457D01*
X1600305Y579507D01*
X1600148Y579503D01*
X1599934Y579535D01*
X1514478Y579535D01*
X1514426Y579543D01*
X1452805Y579543D01*
X1452749Y579533D01*
X1452680Y579540D01*
X1447593Y579285D01*
X1447521Y579268D01*
X1447427Y579271D01*
X1442812Y578729D01*
X1442811Y578729D01*
X1442810Y578729D01*
X1439850Y578380D01*
X1439797Y578364D01*
X1439729Y578362D01*
X1436950Y577895D01*
X1436890Y577874D01*
X1436812Y577868D01*
X1434198Y577275D01*
X1430266Y576384D01*
X1430166Y576342D01*
X1430029Y576319D01*
X1426489Y575141D01*
X1426383Y575084D01*
X1426233Y575040D01*
X1422991Y573549D01*
X1422989Y573547D01*
X1422987Y573547D01*
X1420083Y572204D01*
X1419989Y572139D01*
X1419852Y572083D01*
X1417191Y570497D01*
X1417101Y570419D01*
X1416964Y570345D01*
X1414500Y568484D01*
X1414499Y568484D01*
X1412926Y567303D01*
X1412876Y567249D01*
X1412798Y567200D01*
X1411291Y565905D01*
X1411266Y565873D01*
X1411249Y565863D01*
X1411221Y565829D01*
X1411163Y565786D01*
X1409734Y564373D01*
X1408651Y563302D01*
X1408621Y563259D01*
X1408571Y563219D01*
X1407550Y562112D01*
X1407523Y562069D01*
X1407475Y562027D01*
X1406522Y560894D01*
X1405925Y560201D01*
X1405894Y560148D01*
X1405839Y560096D01*
X1405282Y559374D01*
X1405275Y559361D01*
X1405262Y559348D01*
X1404705Y558607D01*
X1404698Y558593D01*
X1404686Y558581D01*
X1403540Y557015D01*
X1403506Y556944D01*
X1403441Y556869D01*
X1402405Y555221D01*
X1402393Y555191D01*
X1402384Y555180D01*
X1402372Y555143D01*
X1402318Y555072D01*
X1401384Y553329D01*
X1401382Y553323D01*
X1401377Y553316D01*
X1400726Y552084D01*
X1400710Y552035D01*
X1400675Y551983D01*
X1400071Y550704D01*
X1400058Y550656D01*
X1400027Y550604D01*
X1399469Y549278D01*
X1399469Y549276D01*
X1399468Y549273D01*
X1398777Y547621D01*
X1398761Y547547D01*
X1398718Y547465D01*
X1398121Y545718D01*
X1398113Y545667D01*
X1398087Y545609D01*
X1397553Y543776D01*
X1397552Y543768D01*
X1397548Y543759D01*
X1397108Y542209D01*
X1397104Y542166D01*
X1397084Y542118D01*
X1396692Y540505D01*
X1396689Y540462D01*
X1396672Y540414D01*
X1396326Y538722D01*
X1396326Y538717D01*
X1396324Y538712D01*
X1395994Y537059D01*
X1395993Y537010D01*
X1395975Y536953D01*
X1395709Y535230D01*
X1395709Y535207D01*
X1395701Y535180D01*
X1395458Y533371D01*
X1395458Y533364D01*
X1395456Y533357D01*
X1395119Y530740D01*
X1395121Y530690D01*
X1395107Y530631D01*
X1394872Y527848D01*
X1394875Y527812D01*
X1394866Y527769D01*
X1394709Y524794D01*
X1394709Y524793D01*
X1394709Y524792D01*
X1394576Y522233D01*
X1394579Y522204D01*
X1394573Y522169D01*
X1394502Y519476D01*
X1394507Y519446D01*
X1394502Y519411D01*
X1394502Y434849D01*
X1394506Y434822D01*
X1394502Y434790D01*
X1394549Y432796D01*
X1394552Y432786D01*
X1394550Y432774D01*
X1394613Y430843D01*
X1394613Y430840D01*
X1394613Y430837D01*
X1394739Y427211D01*
X1394749Y427161D01*
X1394745Y427098D01*
X1395012Y423754D01*
X1395024Y423710D01*
X1395022Y423654D01*
X1395399Y420530D01*
X1395403Y420515D01*
X1395403Y420496D01*
X1395686Y418392D01*
X1395696Y418360D01*
X1395697Y418318D01*
X1396027Y416324D01*
X1396041Y416283D01*
X1396044Y416230D01*
X1396436Y414314D01*
X1396437Y414314D01*
X1396892Y412093D01*
X1396915Y412035D01*
X1396923Y411958D01*
X1397473Y409870D01*
X1397503Y409805D01*
X1397519Y409716D01*
X1398174Y407751D01*
X1398689Y406158D01*
X1398721Y406097D01*
X1398740Y406015D01*
X1399337Y404492D01*
X1399365Y404446D01*
X1399383Y404381D01*
X1400035Y402929D01*
X1400674Y401487D01*
X1400713Y401429D01*
X1400741Y401347D01*
X1401464Y399958D01*
X1401501Y399909D01*
X1401529Y399839D01*
X1402322Y398497D01*
X1402327Y398492D01*
X1402330Y398484D01*
X1403350Y396780D01*
X1403398Y396726D01*
X1403437Y396646D01*
X1404551Y395029D01*
X1404610Y394970D01*
X1404663Y394879D01*
X1405904Y393340D01*
X1407019Y391958D01*
X1407070Y391914D01*
X1407117Y391844D01*
X1408334Y390509D01*
X1408383Y390471D01*
X1408430Y390410D01*
X1409741Y389122D01*
X1410689Y388181D01*
X1410740Y388147D01*
X1410788Y388089D01*
X1411785Y387202D01*
X1411830Y387174D01*
X1411874Y387126D01*
X1412902Y386294D01*
X1413767Y385583D01*
X1413797Y385567D01*
X1413826Y385536D01*
X1414721Y384845D01*
X1414772Y384819D01*
X1414823Y384771D01*
X1415761Y384120D01*
X1417352Y382999D01*
X1417429Y382963D01*
X1417510Y382896D01*
X1419206Y381883D01*
X1419279Y381856D01*
X1419358Y381800D01*
X1421149Y380892D01*
X1422319Y380296D01*
X1422359Y380283D01*
X1422403Y380255D01*
X1423604Y379698D01*
X1423659Y379683D01*
X1423720Y379647D01*
X1424981Y379138D01*
X1426881Y378369D01*
X1426946Y378355D01*
X1427018Y378318D01*
X1429035Y377635D01*
X1429099Y377625D01*
X1429172Y377593D01*
X1431307Y377004D01*
X1431309Y377004D01*
X1431312Y377003D01*
X1432544Y376665D01*
X1432579Y376662D01*
X1432619Y376646D01*
X1433891Y376340D01*
X1433931Y376338D01*
X1433977Y376321D01*
X1435272Y376057D01*
X1436821Y375722D01*
X1436862Y375721D01*
X1436909Y375705D01*
X1438534Y375415D01*
X1438577Y375415D01*
X1438627Y375400D01*
X1440291Y375167D01*
X1441225Y375027D01*
X1441255Y375027D01*
X1441290Y375018D01*
X1442248Y374900D01*
X1442249Y374900D01*
X1442251Y374899D01*
X1443216Y374782D01*
X1443229Y374782D01*
X1443243Y374779D01*
X1444515Y374637D01*
X1444545Y374639D01*
X1444580Y374631D01*
X1445883Y374521D01*
X1445885Y374521D01*
X1445888Y374521D01*
X1447223Y374411D01*
X1447234Y374412D01*
X1447246Y374409D01*
X1448965Y374283D01*
X1448987Y374286D01*
X1449014Y374280D01*
X1450780Y374186D01*
X1450802Y374189D01*
X1450827Y374184D01*
X1452656Y374121D01*
X1452657Y374121D01*
X1454486Y374058D01*
X1454506Y374061D01*
X1454530Y374057D01*
X1456438Y374026D01*
X1456456Y374029D01*
X1456479Y374026D01*
X1479994Y374026D01*
X1480099Y374010D01*
X1599934Y374010D01*
X1600188Y374056D01*
G37*
G36*
X828026Y374020D02*
X828026Y374020D01*
X828097Y374013D01*
X833184Y374272D01*
X833256Y374289D01*
X833348Y374286D01*
X837963Y374828D01*
X837964Y374828D01*
X840943Y375172D01*
X841000Y375190D01*
X841073Y375191D01*
X843852Y375662D01*
X843912Y375684D01*
X843992Y375690D01*
X846598Y376287D01*
X850516Y377172D01*
X850617Y377215D01*
X850755Y377239D01*
X854288Y378416D01*
X854392Y378473D01*
X854542Y378517D01*
X857784Y380008D01*
X857785Y380009D01*
X857786Y380009D01*
X860698Y381351D01*
X860794Y381418D01*
X860934Y381476D01*
X863587Y383061D01*
X863676Y383139D01*
X863811Y383212D01*
X866261Y385062D01*
X867855Y386247D01*
X867913Y386309D01*
X868002Y386365D01*
X869493Y387661D01*
X869535Y387713D01*
X869602Y387761D01*
X871039Y389166D01*
X871041Y389170D01*
X871045Y389173D01*
X872144Y390256D01*
X872173Y390297D01*
X872222Y390335D01*
X873242Y391434D01*
X873274Y391484D01*
X873328Y391532D01*
X874286Y392678D01*
X874287Y392680D01*
X874288Y392681D01*
X874877Y393388D01*
X874891Y393411D01*
X874915Y393434D01*
X875488Y394156D01*
X875508Y394194D01*
X875545Y394231D01*
X876085Y394967D01*
X877239Y396537D01*
X877272Y396604D01*
X877333Y396673D01*
X878384Y398322D01*
X878418Y398403D01*
X878484Y398493D01*
X879404Y400224D01*
X880064Y401448D01*
X880085Y401513D01*
X880131Y401582D01*
X880727Y402870D01*
X880739Y402915D01*
X880769Y402964D01*
X881316Y404285D01*
X882007Y405941D01*
X882023Y406013D01*
X882064Y406094D01*
X882661Y407837D01*
X882668Y407885D01*
X882694Y407939D01*
X883235Y409776D01*
X883237Y409793D01*
X883245Y409811D01*
X883677Y411357D01*
X883681Y411395D01*
X883698Y411437D01*
X884090Y413046D01*
X884093Y413090D01*
X884111Y413140D01*
X884457Y414835D01*
X884457Y414844D01*
X884461Y414855D01*
X884783Y416504D01*
X884783Y416534D01*
X884794Y416568D01*
X885085Y418295D01*
X885084Y418337D01*
X885098Y418386D01*
X885334Y420192D01*
X885334Y420197D01*
X885335Y420203D01*
X885665Y422825D01*
X885663Y422865D01*
X885674Y422912D01*
X885926Y425691D01*
X885921Y425739D01*
X885933Y425797D01*
X886074Y428776D01*
X886200Y431327D01*
X886196Y431353D01*
X886202Y431384D01*
X886272Y434077D01*
X886268Y434106D01*
X886273Y434142D01*
X886273Y518700D01*
X886269Y518722D01*
X886273Y518749D01*
X886234Y520755D01*
X886231Y520769D01*
X886233Y520787D01*
X886170Y522714D01*
X886169Y522719D01*
X886169Y522725D01*
X886036Y526347D01*
X886027Y526390D01*
X886031Y526442D01*
X885780Y529794D01*
X885765Y529849D01*
X885767Y529920D01*
X885375Y533034D01*
X885116Y535136D01*
X885103Y535181D01*
X885102Y535238D01*
X884772Y537236D01*
X884757Y537279D01*
X884754Y537333D01*
X884362Y539240D01*
X884359Y539246D01*
X884359Y539254D01*
X883888Y541480D01*
X883867Y541531D01*
X883859Y541598D01*
X883310Y543686D01*
X883283Y543745D01*
X883270Y543823D01*
X882626Y545802D01*
X882625Y545804D01*
X882624Y545808D01*
X882098Y547410D01*
X882070Y547461D01*
X882055Y547531D01*
X881466Y549054D01*
X881432Y549109D01*
X881410Y549186D01*
X880751Y550638D01*
X880750Y550639D01*
X880750Y550641D01*
X880091Y552089D01*
X880061Y552132D01*
X880040Y552193D01*
X879326Y553586D01*
X879285Y553640D01*
X879254Y553717D01*
X878462Y555058D01*
X878461Y555059D01*
X877457Y556762D01*
X877400Y556828D01*
X877351Y556926D01*
X876220Y558539D01*
X876168Y558591D01*
X876121Y558671D01*
X874881Y560214D01*
X873766Y561600D01*
X873714Y561645D01*
X873666Y561717D01*
X872457Y563043D01*
X872408Y563081D01*
X872361Y563143D01*
X871047Y564433D01*
X870090Y565379D01*
X870035Y565416D01*
X869983Y565478D01*
X868979Y566361D01*
X868955Y566375D01*
X868932Y566402D01*
X867927Y567242D01*
X867910Y567251D01*
X867893Y567269D01*
X866999Y567991D01*
X866972Y568005D01*
X866948Y568031D01*
X866045Y568722D01*
X866004Y568743D01*
X865962Y568783D01*
X865028Y569438D01*
X865023Y569440D01*
X865019Y569445D01*
X863410Y570563D01*
X863343Y570594D01*
X863273Y570652D01*
X861585Y571668D01*
X861510Y571697D01*
X861429Y571755D01*
X859653Y572658D01*
X858491Y573259D01*
X858432Y573277D01*
X858367Y573319D01*
X857142Y573868D01*
X857108Y573877D01*
X857070Y573899D01*
X855830Y574410D01*
X855822Y574411D01*
X855815Y574416D01*
X853899Y575189D01*
X853835Y575203D01*
X853762Y575240D01*
X851737Y575923D01*
X851674Y575932D01*
X851603Y575964D01*
X849484Y576548D01*
X849483Y576548D01*
X849482Y576549D01*
X848242Y576890D01*
X848202Y576894D01*
X848157Y576912D01*
X846885Y577214D01*
X846853Y577216D01*
X846817Y577230D01*
X845508Y577502D01*
X843958Y577835D01*
X843915Y577836D01*
X843866Y577853D01*
X842233Y578139D01*
X842197Y578139D01*
X842154Y578152D01*
X840474Y578391D01*
X839562Y578527D01*
X839538Y578526D01*
X839510Y578534D01*
X838552Y578656D01*
X838535Y578655D01*
X838516Y578660D01*
X837534Y578770D01*
X836278Y578914D01*
X836250Y578913D01*
X836217Y578921D01*
X834914Y579038D01*
X834898Y579037D01*
X834879Y579041D01*
X833537Y579143D01*
X831833Y579273D01*
X831807Y579270D01*
X831776Y579276D01*
X830002Y579371D01*
X829981Y579368D01*
X829955Y579373D01*
X828131Y579435D01*
X826294Y579502D01*
X826272Y579499D01*
X826245Y579503D01*
X824345Y579535D01*
X824327Y579532D01*
X824304Y579535D01*
X796419Y579535D01*
X796367Y579543D01*
X734746Y579543D01*
X734690Y579533D01*
X734621Y579540D01*
X729534Y579285D01*
X729461Y579268D01*
X729368Y579271D01*
X724752Y578729D01*
X724751Y578729D01*
X721784Y578380D01*
X721731Y578364D01*
X721662Y578362D01*
X718883Y577895D01*
X718822Y577874D01*
X718743Y577868D01*
X716140Y577276D01*
X712200Y576385D01*
X712099Y576342D01*
X711960Y576318D01*
X708428Y575140D01*
X708323Y575083D01*
X708174Y575040D01*
X704932Y573549D01*
X704931Y573548D01*
X704930Y573548D01*
X702018Y572205D01*
X701923Y572139D01*
X701785Y572083D01*
X699124Y570497D01*
X699034Y570419D01*
X698898Y570345D01*
X696433Y568484D01*
X694859Y567303D01*
X694809Y567249D01*
X694731Y567200D01*
X693224Y565905D01*
X693199Y565873D01*
X693182Y565863D01*
X693154Y565829D01*
X693096Y565786D01*
X691667Y564373D01*
X690584Y563302D01*
X690554Y563259D01*
X690504Y563219D01*
X689483Y562112D01*
X689456Y562069D01*
X689408Y562027D01*
X688451Y560889D01*
X687855Y560189D01*
X687832Y560149D01*
X687790Y560109D01*
X687225Y559387D01*
X687211Y559360D01*
X687185Y559334D01*
X686636Y558593D01*
X686634Y558590D01*
X686632Y558588D01*
X685478Y557022D01*
X685442Y556948D01*
X685374Y556869D01*
X684338Y555221D01*
X684326Y555191D01*
X684317Y555180D01*
X684304Y555140D01*
X684247Y555064D01*
X683321Y553321D01*
X682665Y552095D01*
X682647Y552041D01*
X682608Y551983D01*
X682004Y550704D01*
X681990Y550650D01*
X681955Y550593D01*
X681411Y549279D01*
X680714Y547630D01*
X680696Y547553D01*
X680651Y547465D01*
X680054Y545718D01*
X680046Y545663D01*
X680017Y545600D01*
X679491Y543767D01*
X679045Y542220D01*
X679040Y542173D01*
X679017Y542118D01*
X678625Y540505D01*
X678622Y540462D01*
X678605Y540414D01*
X678259Y538722D01*
X678259Y538717D01*
X678257Y538712D01*
X677927Y537059D01*
X677926Y537010D01*
X677908Y536953D01*
X677641Y535230D01*
X677642Y535202D01*
X677633Y535170D01*
X677397Y533360D01*
X677053Y530747D01*
X677055Y530694D01*
X677040Y530631D01*
X676805Y527848D01*
X676808Y527812D01*
X676799Y527769D01*
X676642Y524794D01*
X676643Y524790D01*
X676642Y524785D01*
X676516Y522226D01*
X676519Y522199D01*
X676514Y522169D01*
X676443Y519476D01*
X676448Y519446D01*
X676442Y519411D01*
X676442Y434849D01*
X676446Y434826D01*
X676443Y434799D01*
X676482Y432806D01*
X676485Y432791D01*
X676483Y432774D01*
X676546Y430843D01*
X676547Y430838D01*
X676546Y430832D01*
X676680Y427205D01*
X676689Y427160D01*
X676685Y427104D01*
X676944Y423760D01*
X676957Y423711D01*
X676956Y423648D01*
X677340Y420523D01*
X677343Y420515D01*
X677343Y420505D01*
X677617Y418402D01*
X677629Y418365D01*
X677630Y418318D01*
X677960Y416324D01*
X677974Y416283D01*
X677977Y416230D01*
X678369Y414314D01*
X678370Y414314D01*
X678825Y412093D01*
X678848Y412035D01*
X678856Y411959D01*
X679406Y409871D01*
X679436Y409805D01*
X679452Y409716D01*
X680107Y407749D01*
X680633Y406147D01*
X680661Y406096D01*
X680677Y406026D01*
X681265Y404503D01*
X681299Y404447D01*
X681321Y404371D01*
X681976Y402928D01*
X682615Y401487D01*
X682651Y401433D01*
X682677Y401357D01*
X683391Y399968D01*
X683434Y399912D01*
X683468Y399830D01*
X684268Y398488D01*
X685279Y396788D01*
X685328Y396730D01*
X685370Y396646D01*
X686484Y395029D01*
X686543Y394970D01*
X686596Y394879D01*
X687836Y393340D01*
X687837Y393340D01*
X688952Y391958D01*
X689006Y391911D01*
X689055Y391838D01*
X690280Y390503D01*
X690324Y390470D01*
X690365Y390415D01*
X691668Y389128D01*
X692622Y388181D01*
X692676Y388144D01*
X692728Y388082D01*
X693733Y387195D01*
X693771Y387172D01*
X693808Y387132D01*
X694821Y386305D01*
X695700Y385583D01*
X695734Y385564D01*
X695768Y385530D01*
X696670Y384839D01*
X696713Y384817D01*
X696756Y384776D01*
X697698Y384117D01*
X699298Y382995D01*
X699370Y382962D01*
X699447Y382899D01*
X701134Y381886D01*
X701209Y381858D01*
X701291Y381800D01*
X703082Y380892D01*
X704252Y380296D01*
X704295Y380282D01*
X704341Y380252D01*
X705550Y379695D01*
X705601Y379682D01*
X705656Y379649D01*
X706912Y379139D01*
X706913Y379139D01*
X706914Y379138D01*
X708814Y378369D01*
X708879Y378355D01*
X708951Y378318D01*
X710968Y377635D01*
X711033Y377625D01*
X711107Y377592D01*
X713248Y377004D01*
X714473Y376667D01*
X714510Y376663D01*
X714552Y376646D01*
X715824Y376340D01*
X715865Y376338D01*
X715913Y376320D01*
X717211Y376058D01*
X718751Y375723D01*
X718794Y375721D01*
X718844Y375705D01*
X720477Y375414D01*
X720518Y375414D01*
X720566Y375400D01*
X722219Y375167D01*
X723168Y375026D01*
X723198Y375027D01*
X723231Y375018D01*
X724189Y374900D01*
X724190Y374900D01*
X724191Y374899D01*
X725157Y374782D01*
X725169Y374782D01*
X725184Y374779D01*
X726455Y374637D01*
X726485Y374639D01*
X726520Y374631D01*
X727815Y374521D01*
X727818Y374521D01*
X727821Y374521D01*
X729156Y374411D01*
X729167Y374412D01*
X729180Y374409D01*
X730906Y374283D01*
X730929Y374286D01*
X730955Y374280D01*
X732721Y374186D01*
X732742Y374189D01*
X732768Y374184D01*
X734589Y374121D01*
X734590Y374121D01*
X736427Y374058D01*
X736447Y374061D01*
X736471Y374057D01*
X738370Y374026D01*
X738389Y374029D01*
X738412Y374026D01*
X766260Y374026D01*
X766365Y374010D01*
X827970Y374010D01*
X828026Y374020D01*
G37*
G36*
X1803076Y374020D02*
X1803076Y374020D01*
X1803146Y374013D01*
X1808233Y374272D01*
X1808305Y374289D01*
X1808397Y374286D01*
X1813013Y374828D01*
X1815981Y375173D01*
X1816038Y375190D01*
X1816110Y375191D01*
X1818889Y375662D01*
X1818949Y375684D01*
X1819029Y375690D01*
X1821639Y376286D01*
X1825557Y377172D01*
X1825657Y377214D01*
X1825795Y377238D01*
X1829336Y378416D01*
X1829441Y378473D01*
X1829592Y378517D01*
X1832830Y380009D01*
X1832831Y380009D01*
X1835743Y381351D01*
X1835838Y381417D01*
X1835976Y381474D01*
X1838637Y383060D01*
X1838727Y383137D01*
X1838862Y383211D01*
X1841328Y385069D01*
X1842906Y386254D01*
X1842959Y386311D01*
X1843041Y386363D01*
X1844536Y387658D01*
X1844580Y387713D01*
X1844650Y387763D01*
X1846083Y389168D01*
X1846086Y389172D01*
X1846090Y389176D01*
X1847185Y390259D01*
X1847212Y390297D01*
X1847256Y390332D01*
X1848280Y391431D01*
X1848313Y391482D01*
X1848370Y391532D01*
X1849322Y392672D01*
X1849916Y393375D01*
X1849935Y393408D01*
X1849969Y393440D01*
X1850538Y394163D01*
X1850557Y394197D01*
X1850590Y394231D01*
X1851131Y394967D01*
X1852285Y396537D01*
X1852319Y396607D01*
X1852383Y396680D01*
X1853427Y398329D01*
X1853458Y398405D01*
X1853520Y398489D01*
X1854449Y400229D01*
X1855104Y401454D01*
X1855123Y401510D01*
X1855163Y401571D01*
X1855767Y402858D01*
X1855781Y402909D01*
X1855814Y402964D01*
X1856363Y404290D01*
X1857050Y405946D01*
X1857064Y406011D01*
X1857103Y406084D01*
X1857707Y407827D01*
X1857716Y407886D01*
X1857747Y407953D01*
X1858277Y409790D01*
X1858277Y409792D01*
X1858278Y409794D01*
X1858722Y411340D01*
X1858727Y411386D01*
X1858747Y411437D01*
X1859140Y413046D01*
X1859143Y413094D01*
X1859163Y413150D01*
X1859500Y414844D01*
X1859830Y416493D01*
X1859831Y416533D01*
X1859845Y416579D01*
X1860128Y418306D01*
X1860127Y418343D01*
X1860140Y418386D01*
X1860375Y420192D01*
X1860375Y420193D01*
X1860376Y420196D01*
X1860714Y422818D01*
X1860711Y422866D01*
X1860725Y422922D01*
X1860964Y425701D01*
X1860961Y425742D01*
X1860970Y425791D01*
X1861119Y428774D01*
X1861253Y431319D01*
X1861248Y431352D01*
X1861255Y431392D01*
X1861318Y434084D01*
X1861314Y434110D01*
X1861319Y434142D01*
X1861319Y518700D01*
X1861315Y518722D01*
X1861318Y518749D01*
X1861279Y520755D01*
X1861276Y520769D01*
X1861278Y520787D01*
X1861215Y522714D01*
X1861214Y522719D01*
X1861215Y522725D01*
X1861082Y526348D01*
X1861072Y526391D01*
X1861076Y526445D01*
X1860821Y529797D01*
X1860807Y529850D01*
X1860809Y529917D01*
X1860420Y533033D01*
X1860420Y533035D01*
X1860420Y533038D01*
X1860153Y535145D01*
X1860141Y535184D01*
X1860140Y535234D01*
X1859814Y537232D01*
X1859798Y537278D01*
X1859795Y537338D01*
X1859399Y539242D01*
X1858940Y541467D01*
X1858916Y541526D01*
X1858908Y541602D01*
X1858354Y543690D01*
X1858326Y543750D01*
X1858313Y543832D01*
X1857663Y545803D01*
X1857141Y547404D01*
X1857111Y547460D01*
X1857094Y547536D01*
X1856502Y549059D01*
X1856470Y549110D01*
X1856450Y549181D01*
X1855796Y550630D01*
X1855145Y552078D01*
X1855109Y552130D01*
X1855084Y552203D01*
X1854362Y553597D01*
X1854326Y553644D01*
X1854298Y553713D01*
X1853509Y555055D01*
X1853507Y555058D01*
X1853505Y555062D01*
X1852496Y556766D01*
X1852443Y556828D01*
X1852397Y556920D01*
X1851275Y558533D01*
X1851220Y558588D01*
X1851171Y558671D01*
X1849931Y560214D01*
X1849929Y560215D01*
X1849927Y560218D01*
X1848809Y561603D01*
X1848757Y561648D01*
X1848709Y561720D01*
X1847496Y563046D01*
X1847448Y563083D01*
X1847403Y563143D01*
X1846089Y564433D01*
X1845131Y565379D01*
X1845083Y565413D01*
X1845036Y565469D01*
X1844043Y566352D01*
X1844008Y566373D01*
X1843974Y566411D01*
X1842958Y567251D01*
X1842952Y567254D01*
X1842948Y567259D01*
X1842065Y567981D01*
X1842030Y568000D01*
X1841997Y568034D01*
X1841090Y568725D01*
X1841049Y568746D01*
X1841007Y568786D01*
X1840069Y569441D01*
X1840068Y569442D01*
X1840067Y569443D01*
X1838461Y570561D01*
X1838393Y570593D01*
X1838320Y570653D01*
X1836628Y571670D01*
X1836554Y571698D01*
X1836474Y571755D01*
X1834693Y572661D01*
X1833523Y573262D01*
X1833471Y573278D01*
X1833416Y573314D01*
X1832207Y573863D01*
X1832162Y573875D01*
X1832113Y573904D01*
X1830857Y574414D01*
X1830856Y574414D01*
X1828948Y575188D01*
X1828884Y575201D01*
X1828812Y575238D01*
X1826798Y575921D01*
X1826732Y575931D01*
X1826656Y575965D01*
X1824526Y576548D01*
X1823289Y576890D01*
X1823248Y576894D01*
X1823200Y576913D01*
X1821925Y577215D01*
X1821895Y577217D01*
X1821861Y577229D01*
X1820551Y577504D01*
X1818997Y577835D01*
X1818957Y577837D01*
X1818911Y577852D01*
X1817290Y578139D01*
X1817252Y578139D01*
X1817207Y578152D01*
X1815527Y578391D01*
X1814599Y578527D01*
X1814577Y578527D01*
X1814552Y578534D01*
X1813594Y578656D01*
X1813578Y578655D01*
X1813559Y578660D01*
X1812586Y578770D01*
X1811322Y578914D01*
X1811295Y578913D01*
X1811263Y578920D01*
X1809964Y579038D01*
X1809948Y579037D01*
X1809928Y579041D01*
X1808586Y579143D01*
X1808585Y579143D01*
X1806874Y579273D01*
X1806848Y579270D01*
X1806818Y579276D01*
X1805048Y579371D01*
X1805026Y579368D01*
X1805001Y579373D01*
X1803174Y579435D01*
X1803173Y579435D01*
X1801344Y579502D01*
X1801321Y579499D01*
X1801294Y579503D01*
X1799395Y579535D01*
X1799376Y579532D01*
X1799353Y579535D01*
X1771461Y579535D01*
X1771408Y579543D01*
X1709783Y579543D01*
X1709727Y579533D01*
X1709658Y579540D01*
X1704579Y579285D01*
X1704507Y579268D01*
X1704414Y579271D01*
X1699790Y578729D01*
X1699789Y578729D01*
X1699788Y578729D01*
X1696829Y578380D01*
X1696776Y578364D01*
X1696708Y578362D01*
X1693929Y577895D01*
X1693869Y577874D01*
X1693790Y577868D01*
X1691176Y577275D01*
X1687251Y576384D01*
X1687152Y576343D01*
X1687017Y576319D01*
X1683469Y575141D01*
X1683362Y575083D01*
X1683209Y575039D01*
X1679975Y573548D01*
X1679975Y573547D01*
X1677063Y572205D01*
X1676969Y572139D01*
X1676830Y572083D01*
X1674169Y570497D01*
X1674079Y570419D01*
X1673943Y570345D01*
X1671478Y568484D01*
X1669908Y567299D01*
X1669860Y567247D01*
X1669785Y567200D01*
X1668278Y565905D01*
X1668252Y565873D01*
X1668236Y565863D01*
X1668208Y565829D01*
X1668149Y565786D01*
X1666727Y564380D01*
X1666727Y564379D01*
X1665636Y563308D01*
X1665605Y563265D01*
X1665556Y563226D01*
X1664528Y562119D01*
X1664498Y562072D01*
X1664446Y562027D01*
X1663488Y560889D01*
X1663488Y560888D01*
X1663487Y560887D01*
X1662890Y560177D01*
X1662871Y560142D01*
X1662836Y560109D01*
X1662271Y559387D01*
X1662257Y559360D01*
X1662231Y559335D01*
X1661681Y558593D01*
X1661680Y558590D01*
X1661677Y558588D01*
X1660523Y557022D01*
X1660487Y556948D01*
X1660420Y556869D01*
X1659383Y555221D01*
X1659372Y555191D01*
X1659363Y555180D01*
X1659350Y555143D01*
X1659297Y555072D01*
X1658363Y553329D01*
X1658360Y553323D01*
X1658356Y553316D01*
X1657704Y552084D01*
X1657689Y552035D01*
X1657654Y551983D01*
X1657049Y550704D01*
X1657035Y550650D01*
X1657000Y550593D01*
X1656451Y549266D01*
X1655763Y547621D01*
X1655749Y547556D01*
X1655711Y547484D01*
X1655098Y545737D01*
X1655087Y545669D01*
X1655052Y545590D01*
X1654534Y543757D01*
X1654090Y542220D01*
X1654085Y542173D01*
X1654063Y542118D01*
X1653670Y540505D01*
X1653667Y540458D01*
X1653648Y540403D01*
X1653310Y538711D01*
X1652981Y537059D01*
X1652980Y537020D01*
X1652965Y536975D01*
X1652683Y535252D01*
X1652683Y535214D01*
X1652671Y535170D01*
X1652435Y533360D01*
X1652435Y533359D01*
X1652435Y533357D01*
X1652097Y530740D01*
X1652100Y530690D01*
X1652086Y530631D01*
X1651850Y527848D01*
X1651853Y527812D01*
X1651845Y527769D01*
X1651688Y524794D01*
X1651688Y524793D01*
X1651688Y524792D01*
X1651554Y522233D01*
X1651558Y522200D01*
X1651551Y522161D01*
X1651489Y519469D01*
X1651493Y519443D01*
X1651488Y519411D01*
X1651488Y434849D01*
X1651492Y434826D01*
X1651488Y434799D01*
X1651528Y432806D01*
X1651531Y432791D01*
X1651529Y432774D01*
X1651591Y430843D01*
X1651592Y430838D01*
X1651592Y430832D01*
X1651725Y427205D01*
X1651735Y427158D01*
X1651731Y427098D01*
X1651998Y423754D01*
X1652010Y423710D01*
X1652008Y423654D01*
X1652385Y420530D01*
X1652388Y420519D01*
X1652388Y420505D01*
X1652663Y418402D01*
X1652673Y418369D01*
X1652674Y418327D01*
X1652996Y416333D01*
X1653011Y416289D01*
X1653015Y416230D01*
X1653407Y414314D01*
X1653409Y414310D01*
X1653409Y414306D01*
X1653872Y412085D01*
X1653895Y412027D01*
X1653904Y411950D01*
X1654461Y409862D01*
X1654489Y409803D01*
X1654502Y409725D01*
X1655153Y407749D01*
X1655679Y406147D01*
X1655707Y406096D01*
X1655722Y406026D01*
X1656311Y404503D01*
X1656342Y404452D01*
X1656362Y404381D01*
X1657013Y402929D01*
X1657665Y401477D01*
X1657702Y401423D01*
X1657728Y401347D01*
X1658450Y399958D01*
X1658487Y399909D01*
X1658515Y399839D01*
X1659308Y398497D01*
X1660312Y396795D01*
X1660364Y396735D01*
X1660407Y396646D01*
X1661522Y395029D01*
X1661583Y394968D01*
X1661639Y394873D01*
X1662887Y393334D01*
X1663997Y391958D01*
X1664049Y391914D01*
X1664096Y391844D01*
X1665312Y390509D01*
X1665364Y390469D01*
X1665413Y390405D01*
X1666724Y389125D01*
X1667676Y388181D01*
X1667722Y388149D01*
X1667767Y388095D01*
X1668756Y387208D01*
X1668801Y387180D01*
X1668845Y387132D01*
X1669866Y386300D01*
X1670738Y385583D01*
X1670776Y385562D01*
X1670814Y385523D01*
X1671724Y384833D01*
X1671763Y384813D01*
X1671802Y384776D01*
X1672744Y384117D01*
X1674344Y382995D01*
X1674418Y382961D01*
X1674497Y382896D01*
X1676192Y381883D01*
X1676264Y381857D01*
X1676341Y381802D01*
X1678122Y380896D01*
X1678122Y380895D01*
X1679284Y380299D01*
X1679329Y380285D01*
X1679379Y380252D01*
X1680588Y379695D01*
X1680638Y379682D01*
X1680694Y379649D01*
X1681950Y379139D01*
X1681953Y379138D01*
X1681955Y379137D01*
X1683863Y378367D01*
X1683926Y378354D01*
X1683996Y378318D01*
X1686014Y377635D01*
X1686078Y377625D01*
X1686151Y377593D01*
X1688286Y377004D01*
X1688290Y377004D01*
X1688294Y377002D01*
X1689534Y376664D01*
X1689568Y376662D01*
X1689605Y376646D01*
X1690877Y376340D01*
X1690917Y376338D01*
X1690964Y376321D01*
X1692258Y376057D01*
X1693807Y375722D01*
X1693847Y375721D01*
X1693893Y375705D01*
X1695510Y375415D01*
X1695554Y375415D01*
X1695605Y375400D01*
X1697269Y375167D01*
X1698203Y375027D01*
X1698234Y375027D01*
X1698269Y375018D01*
X1699227Y374900D01*
X1699229Y374900D01*
X1699232Y374899D01*
X1700205Y374781D01*
X1700216Y374782D01*
X1700229Y374779D01*
X1701501Y374637D01*
X1701531Y374639D01*
X1701565Y374631D01*
X1702860Y374521D01*
X1702864Y374522D01*
X1702868Y374521D01*
X1704210Y374411D01*
X1704220Y374412D01*
X1704231Y374409D01*
X1705943Y374283D01*
X1705966Y374286D01*
X1705993Y374280D01*
X1707767Y374186D01*
X1707788Y374189D01*
X1707814Y374184D01*
X1709643Y374121D01*
X1711472Y374058D01*
X1711492Y374061D01*
X1711516Y374057D01*
X1713416Y374026D01*
X1713435Y374029D01*
X1713457Y374026D01*
X1741305Y374026D01*
X1741410Y374010D01*
X1803019Y374010D01*
X1803076Y374020D01*
G37*
G36*
X1955760Y373773D02*
X1955760Y373773D01*
X1956018Y373780D01*
X1956191Y373850D01*
X1956375Y373883D01*
X1956598Y374015D01*
X1956837Y374112D01*
X1956975Y374238D01*
X1957136Y374333D01*
X1957299Y374533D01*
X1957490Y374707D01*
X1957575Y374873D01*
X1957693Y375019D01*
X1957776Y375264D01*
X1957895Y375493D01*
X1957927Y375707D01*
X1957977Y375856D01*
X1957972Y376012D01*
X1958005Y376227D01*
X1958005Y504485D01*
X2018205Y430803D01*
X2018254Y430760D01*
X2018289Y430705D01*
X2018589Y430474D01*
X2018876Y430228D01*
X2018937Y430205D01*
X2018989Y430166D01*
X2019351Y430053D01*
X2019706Y429923D01*
X2019770Y429923D01*
X2019832Y429904D01*
X2020210Y429924D01*
X2020589Y429925D01*
X2020650Y429948D01*
X2020715Y429952D01*
X2021062Y430102D01*
X2021417Y430235D01*
X2021466Y430278D01*
X2021525Y430304D01*
X2022075Y430802D01*
X2082343Y504490D01*
X2082343Y376227D01*
X2082389Y375972D01*
X2082396Y375714D01*
X2082466Y375541D01*
X2082499Y375357D01*
X2082631Y375134D01*
X2082727Y374895D01*
X2082854Y374757D01*
X2082949Y374596D01*
X2083149Y374433D01*
X2083323Y374242D01*
X2083489Y374156D01*
X2083634Y374039D01*
X2083880Y373955D01*
X2084109Y373837D01*
X2084323Y373805D01*
X2084471Y373755D01*
X2084628Y373759D01*
X2084842Y373727D01*
X2123389Y373727D01*
X2123643Y373773D01*
X2123901Y373780D01*
X2124074Y373850D01*
X2124259Y373883D01*
X2124481Y374015D01*
X2124721Y374112D01*
X2124859Y374238D01*
X2125020Y374333D01*
X2125183Y374533D01*
X2125373Y374707D01*
X2125459Y374873D01*
X2125577Y375019D01*
X2125660Y375264D01*
X2125778Y375493D01*
X2125810Y375707D01*
X2125860Y375856D01*
X2125856Y376012D01*
X2125888Y376227D01*
X2125888Y577322D01*
X2125842Y577577D01*
X2125835Y577835D01*
X2125765Y578008D01*
X2125732Y578192D01*
X2125601Y578415D01*
X2125504Y578654D01*
X2125378Y578792D01*
X2125283Y578953D01*
X2125082Y579116D01*
X2124908Y579307D01*
X2124742Y579392D01*
X2124597Y579510D01*
X2124352Y579593D01*
X2124122Y579711D01*
X2123908Y579744D01*
X2123760Y579794D01*
X2123603Y579789D01*
X2123389Y579822D01*
X2084842Y579822D01*
X2084544Y579768D01*
X2084242Y579748D01*
X2084113Y579690D01*
X2083973Y579665D01*
X2083712Y579511D01*
X2083435Y579388D01*
X2083317Y579279D01*
X2083211Y579216D01*
X2083095Y579073D01*
X2082891Y578884D01*
X2020141Y500475D01*
X1957458Y578883D01*
X1957229Y579083D01*
X1957025Y579307D01*
X1956899Y579372D01*
X1956792Y579465D01*
X1956508Y579573D01*
X1956239Y579711D01*
X1956081Y579735D01*
X1955966Y579779D01*
X1955781Y579780D01*
X1955505Y579822D01*
X1916951Y579822D01*
X1916697Y579776D01*
X1916439Y579768D01*
X1916266Y579698D01*
X1916081Y579665D01*
X1915859Y579534D01*
X1915619Y579437D01*
X1915481Y579311D01*
X1915320Y579216D01*
X1915157Y579016D01*
X1914967Y578842D01*
X1914881Y578676D01*
X1914763Y578530D01*
X1914680Y578285D01*
X1914562Y578056D01*
X1914530Y577842D01*
X1914480Y577693D01*
X1914484Y577537D01*
X1914452Y577322D01*
X1914452Y376227D01*
X1914498Y375972D01*
X1914505Y375714D01*
X1914575Y375541D01*
X1914608Y375357D01*
X1914739Y375134D01*
X1914836Y374895D01*
X1914962Y374757D01*
X1915057Y374596D01*
X1915258Y374433D01*
X1915432Y374242D01*
X1915598Y374156D01*
X1915743Y374039D01*
X1915988Y373955D01*
X1916218Y373837D01*
X1916432Y373805D01*
X1916580Y373755D01*
X1916737Y373759D01*
X1916951Y373727D01*
X1955505Y373727D01*
X1955760Y373773D01*
G37*
G36*
X1288347Y374040D02*
X1288347Y374040D01*
X1288450Y374032D01*
X1295138Y374527D01*
X1295251Y374556D01*
X1295401Y374561D01*
X1301264Y375628D01*
X1301265Y375628D01*
X1304585Y376232D01*
X1304661Y376261D01*
X1304760Y376271D01*
X1307814Y377056D01*
X1307899Y377095D01*
X1308015Y377117D01*
X1310849Y378106D01*
X1310850Y378107D01*
X1310852Y378107D01*
X1313113Y378900D01*
X1313181Y378938D01*
X1313277Y378964D01*
X1315404Y379882D01*
X1315475Y379929D01*
X1315576Y379964D01*
X1317573Y381014D01*
X1319866Y382203D01*
X1319951Y382269D01*
X1320076Y382326D01*
X1322203Y383707D01*
X1322272Y383771D01*
X1322375Y383829D01*
X1324370Y385378D01*
X1325775Y386462D01*
X1325825Y386516D01*
X1325902Y386567D01*
X1327237Y387744D01*
X1327281Y387799D01*
X1327351Y387851D01*
X1330192Y390693D01*
X1330234Y390752D01*
X1330303Y390810D01*
X1331723Y392427D01*
X1331769Y392502D01*
X1331848Y392580D01*
X1333126Y394290D01*
X1334329Y395884D01*
X1334368Y395960D01*
X1334439Y396042D01*
X1335515Y397722D01*
X1335537Y397775D01*
X1335565Y397810D01*
X1335571Y397828D01*
X1335601Y397867D01*
X1336574Y399641D01*
X1336577Y399648D01*
X1336582Y399656D01*
X1337485Y401328D01*
X1337508Y401399D01*
X1337559Y401476D01*
X1338359Y403227D01*
X1338378Y403298D01*
X1338423Y403379D01*
X1339129Y405237D01*
X1339992Y407506D01*
X1340008Y407591D01*
X1340055Y407692D01*
X1340761Y410102D01*
X1340768Y410168D01*
X1340799Y410245D01*
X1341395Y412844D01*
X1341396Y412849D01*
X1341398Y412854D01*
X1342866Y419369D01*
X1342872Y419515D01*
X1342918Y419707D01*
X1343569Y427384D01*
X1343561Y427478D01*
X1343578Y427595D01*
X1343578Y577036D01*
X1343532Y577290D01*
X1343525Y577548D01*
X1343455Y577721D01*
X1343422Y577906D01*
X1343291Y578128D01*
X1343194Y578368D01*
X1343068Y578506D01*
X1342973Y578667D01*
X1342772Y578830D01*
X1342598Y579020D01*
X1342432Y579106D01*
X1342287Y579224D01*
X1342042Y579307D01*
X1341813Y579425D01*
X1341598Y579457D01*
X1341450Y579507D01*
X1341293Y579503D01*
X1341079Y579535D01*
X1298667Y579535D01*
X1298412Y579489D01*
X1298154Y579482D01*
X1297981Y579412D01*
X1297797Y579379D01*
X1297574Y579248D01*
X1297335Y579151D01*
X1297197Y579025D01*
X1297036Y578930D01*
X1296873Y578729D01*
X1296682Y578555D01*
X1296597Y578389D01*
X1296479Y578244D01*
X1296396Y577999D01*
X1296277Y577769D01*
X1296245Y577555D01*
X1296195Y577407D01*
X1296200Y577250D01*
X1296167Y577036D01*
X1296167Y435600D01*
X1296070Y432967D01*
X1295813Y430632D01*
X1295814Y430626D01*
X1295812Y430618D01*
X1295572Y428315D01*
X1295225Y426525D01*
X1294694Y424954D01*
X1293936Y422755D01*
X1293086Y421479D01*
X1291643Y420343D01*
X1290443Y419414D01*
X1289144Y418810D01*
X1287195Y418302D01*
X1287194Y418301D01*
X1287192Y418301D01*
X1284035Y417474D01*
X1279975Y417190D01*
X1203045Y417190D01*
X1200733Y417257D01*
X1198644Y417418D01*
X1196993Y417553D01*
X1195571Y417739D01*
X1194259Y417997D01*
X1192876Y418281D01*
X1191790Y418594D01*
X1190774Y419033D01*
X1190768Y419035D01*
X1190761Y419039D01*
X1189347Y419641D01*
X1188455Y420250D01*
X1187560Y421228D01*
X1187558Y421230D01*
X1187555Y421234D01*
X1186205Y422701D01*
X1185425Y424442D01*
X1184836Y427319D01*
X1184834Y427324D01*
X1184834Y427331D01*
X1184211Y430305D01*
X1183976Y433955D01*
X1183976Y577036D01*
X1183931Y577290D01*
X1183923Y577548D01*
X1183853Y577721D01*
X1183820Y577906D01*
X1183689Y578128D01*
X1183592Y578368D01*
X1183466Y578506D01*
X1183371Y578667D01*
X1183170Y578830D01*
X1182996Y579020D01*
X1182830Y579106D01*
X1182685Y579224D01*
X1182440Y579307D01*
X1182211Y579425D01*
X1181996Y579457D01*
X1181848Y579507D01*
X1181692Y579503D01*
X1181477Y579535D01*
X1139073Y579535D01*
X1138818Y579489D01*
X1138560Y579482D01*
X1138387Y579412D01*
X1138203Y579379D01*
X1137980Y579248D01*
X1137741Y579151D01*
X1137603Y579025D01*
X1137442Y578930D01*
X1137279Y578729D01*
X1137088Y578555D01*
X1137003Y578389D01*
X1136885Y578244D01*
X1136802Y577999D01*
X1136683Y577769D01*
X1136651Y577555D01*
X1136601Y577407D01*
X1136606Y577250D01*
X1136573Y577036D01*
X1136573Y433499D01*
X1136579Y433468D01*
X1136574Y433431D01*
X1136661Y430228D01*
X1136668Y430191D01*
X1136664Y430146D01*
X1136845Y427147D01*
X1136845Y427144D01*
X1136845Y427141D01*
X1137065Y423625D01*
X1137077Y423577D01*
X1137074Y423516D01*
X1137419Y420274D01*
X1137438Y420209D01*
X1137440Y420127D01*
X1137942Y417120D01*
X1138600Y413073D01*
X1138632Y412981D01*
X1138645Y412857D01*
X1139571Y409222D01*
X1139619Y409116D01*
X1139650Y408968D01*
X1140883Y405655D01*
X1140883Y405654D01*
X1140884Y405653D01*
X1141739Y403361D01*
X1141783Y403288D01*
X1141813Y403185D01*
X1142794Y401065D01*
X1142846Y400991D01*
X1142887Y400883D01*
X1144025Y398874D01*
X1144028Y398870D01*
X1144030Y398866D01*
X1145129Y396942D01*
X1145187Y396874D01*
X1145236Y396771D01*
X1146477Y394958D01*
X1146533Y394900D01*
X1146584Y394813D01*
X1147957Y393086D01*
X1147965Y393079D01*
X1147972Y393068D01*
X1149016Y391781D01*
X1149060Y391742D01*
X1149100Y391683D01*
X1150230Y390427D01*
X1150277Y390391D01*
X1150320Y390332D01*
X1151529Y389123D01*
X1151538Y389117D01*
X1151546Y389106D01*
X1154011Y386688D01*
X1154109Y386622D01*
X1154214Y386510D01*
X1156851Y384430D01*
X1156965Y384369D01*
X1157095Y384260D01*
X1159984Y382493D01*
X1159985Y382493D01*
X1162607Y380891D01*
X1162718Y380848D01*
X1162847Y380762D01*
X1165689Y379428D01*
X1165795Y379399D01*
X1165920Y379333D01*
X1169006Y378244D01*
X1171177Y377468D01*
X1171248Y377456D01*
X1171329Y377419D01*
X1173629Y376760D01*
X1173699Y376753D01*
X1173780Y376722D01*
X1176237Y376180D01*
X1176238Y376180D01*
X1176239Y376180D01*
X1178492Y375685D01*
X1178544Y375683D01*
X1178604Y375663D01*
X1180975Y375255D01*
X1181027Y375255D01*
X1181089Y375238D01*
X1183601Y374924D01*
X1185303Y374705D01*
X1185338Y374707D01*
X1185380Y374697D01*
X1187154Y374524D01*
X1187178Y374526D01*
X1187206Y374519D01*
X1189058Y374378D01*
X1189063Y374379D01*
X1189068Y374377D01*
X1192318Y374142D01*
X1192363Y374147D01*
X1192419Y374137D01*
X1195873Y374027D01*
X1195909Y374032D01*
X1195952Y374026D01*
X1288266Y374026D01*
X1288347Y374040D01*
G37*
G36*
X2475141Y349046D02*
X2475141Y349046D01*
X2475399Y349054D01*
X2475572Y349124D01*
X2475756Y349157D01*
X2475979Y349288D01*
X2476218Y349385D01*
X2476356Y349511D01*
X2476517Y349606D01*
X2476680Y349806D01*
X2476871Y349980D01*
X2476956Y350146D01*
X2477074Y350292D01*
X2477157Y350537D01*
X2477276Y350766D01*
X2477308Y350980D01*
X2477358Y351129D01*
X2477353Y351285D01*
X2477386Y351500D01*
X2477386Y501478D01*
X2477340Y501732D01*
X2477333Y501990D01*
X2477263Y502163D01*
X2477229Y502348D01*
X2477098Y502570D01*
X2477001Y502810D01*
X2476875Y502948D01*
X2476780Y503109D01*
X2476580Y503272D01*
X2476406Y503462D01*
X2476240Y503548D01*
X2476094Y503666D01*
X2475849Y503749D01*
X2475620Y503867D01*
X2475406Y503899D01*
X2475257Y503949D01*
X2475101Y503945D01*
X2474886Y503977D01*
X2424891Y503977D01*
X2424637Y503931D01*
X2424379Y503924D01*
X2424206Y503854D01*
X2424021Y503821D01*
X2423799Y503689D01*
X2423559Y503593D01*
X2423421Y503467D01*
X2423260Y503372D01*
X2423097Y503171D01*
X2422907Y502997D01*
X2422821Y502831D01*
X2422703Y502686D01*
X2422620Y502441D01*
X2422502Y502211D01*
X2422470Y501997D01*
X2422420Y501849D01*
X2422420Y501828D01*
X2422420Y501826D01*
X2422424Y501689D01*
X2422392Y501478D01*
X2422392Y404018D01*
X2377387Y404018D01*
X2377387Y501478D01*
X2377342Y501732D01*
X2377334Y501990D01*
X2377264Y502163D01*
X2377231Y502348D01*
X2377100Y502570D01*
X2377003Y502810D01*
X2376877Y502948D01*
X2376782Y503109D01*
X2376581Y503272D01*
X2376407Y503462D01*
X2376241Y503548D01*
X2376096Y503666D01*
X2375851Y503749D01*
X2375622Y503867D01*
X2375407Y503899D01*
X2375259Y503949D01*
X2375102Y503945D01*
X2374888Y503977D01*
X2324885Y503977D01*
X2324630Y503931D01*
X2324372Y503924D01*
X2324199Y503854D01*
X2324015Y503821D01*
X2323793Y503689D01*
X2323553Y503593D01*
X2323415Y503467D01*
X2323254Y503372D01*
X2323091Y503171D01*
X2322900Y502997D01*
X2322815Y502831D01*
X2322697Y502686D01*
X2322614Y502441D01*
X2322496Y502211D01*
X2322464Y501997D01*
X2322413Y501849D01*
X2322414Y501828D01*
X2322413Y501826D01*
X2322417Y501689D01*
X2322386Y501478D01*
X2322386Y351500D01*
X2322431Y351245D01*
X2322439Y350987D01*
X2322509Y350814D01*
X2322542Y350630D01*
X2322673Y350407D01*
X2322770Y350168D01*
X2322896Y350030D01*
X2322991Y349869D01*
X2323192Y349706D01*
X2323366Y349515D01*
X2323532Y349430D01*
X2323677Y349312D01*
X2323922Y349229D01*
X2324151Y349110D01*
X2324366Y349078D01*
X2324514Y349028D01*
X2324670Y349033D01*
X2324885Y349000D01*
X2474886Y349000D01*
X2475141Y349046D01*
G37*
G36*
X1081623Y374071D02*
X1081623Y374071D01*
X1081881Y374079D01*
X1082055Y374149D01*
X1082239Y374182D01*
X1082461Y374313D01*
X1082701Y374410D01*
X1082839Y374536D01*
X1083000Y374631D01*
X1083163Y374832D01*
X1083353Y375006D01*
X1083439Y375172D01*
X1083557Y375317D01*
X1083640Y375562D01*
X1083758Y375791D01*
X1083790Y376006D01*
X1083840Y376154D01*
X1083836Y376310D01*
X1083868Y376525D01*
X1083868Y577036D01*
X1083822Y577290D01*
X1083815Y577548D01*
X1083745Y577721D01*
X1083712Y577906D01*
X1083581Y578128D01*
X1083484Y578368D01*
X1083358Y578506D01*
X1083263Y578667D01*
X1083062Y578830D01*
X1082888Y579020D01*
X1082722Y579106D01*
X1082577Y579224D01*
X1082332Y579307D01*
X1082102Y579425D01*
X1081888Y579457D01*
X1081740Y579507D01*
X1081583Y579503D01*
X1081369Y579535D01*
X1038956Y579535D01*
X1038702Y579489D01*
X1038444Y579482D01*
X1038271Y579412D01*
X1038087Y579379D01*
X1037864Y579248D01*
X1037625Y579151D01*
X1037486Y579025D01*
X1037326Y578930D01*
X1037163Y578729D01*
X1036972Y578555D01*
X1036886Y578389D01*
X1036768Y578244D01*
X1036685Y577999D01*
X1036567Y577769D01*
X1036535Y577555D01*
X1036485Y577407D01*
X1036489Y577250D01*
X1036457Y577036D01*
X1036457Y417190D01*
X917481Y417190D01*
X917227Y417144D01*
X916969Y417137D01*
X916795Y417067D01*
X916611Y417033D01*
X916389Y416902D01*
X916149Y416805D01*
X916011Y416679D01*
X915850Y416584D01*
X915687Y416384D01*
X915496Y416210D01*
X915411Y416044D01*
X915293Y415898D01*
X915210Y415653D01*
X915092Y415424D01*
X915060Y415210D01*
X915009Y415061D01*
X915014Y414905D01*
X914982Y414690D01*
X914982Y379680D01*
X915002Y379568D01*
X914995Y379421D01*
X915325Y376265D01*
X915361Y376141D01*
X915365Y376012D01*
X915483Y375720D01*
X915571Y375416D01*
X915647Y375313D01*
X915696Y375193D01*
X915909Y374960D01*
X916097Y374706D01*
X916205Y374635D01*
X916291Y374540D01*
X916572Y374396D01*
X916837Y374223D01*
X916963Y374195D01*
X917077Y374136D01*
X917511Y374071D01*
X917699Y374028D01*
X917749Y374035D01*
X917811Y374026D01*
X1081369Y374026D01*
X1081623Y374071D01*
G37*
%LPC*%
G36*
X1718256Y417190D02*
X1718256Y417190D01*
X1715483Y417309D01*
X1713036Y417575D01*
X1710630Y417844D01*
X1708783Y418223D01*
X1707146Y418826D01*
X1707145Y418826D01*
X1705526Y419425D01*
X1704472Y420060D01*
X1703469Y421031D01*
X1702593Y421886D01*
X1702014Y422718D01*
X1701451Y423971D01*
X1700906Y425188D01*
X1700521Y426470D01*
X1700216Y428139D01*
X1700215Y428143D01*
X1700215Y428148D01*
X1699910Y429782D01*
X1699716Y431548D01*
X1699610Y433656D01*
X1699609Y433659D01*
X1699610Y433665D01*
X1699525Y435228D01*
X1699488Y436895D01*
X1699488Y518112D01*
X1699607Y520869D01*
X1699893Y523286D01*
X1700139Y525311D01*
X1700476Y526898D01*
X1700981Y528350D01*
X1700983Y528362D01*
X1700990Y528376D01*
X1701447Y529736D01*
X1701937Y530682D01*
X1702655Y531609D01*
X1702656Y531610D01*
X1703134Y532223D01*
X1703554Y532643D01*
X1704171Y533117D01*
X1704173Y533118D01*
X1704175Y533120D01*
X1704997Y533755D01*
X1705803Y534191D01*
X1706951Y534636D01*
X1706952Y534637D01*
X1707866Y534992D01*
X1708800Y535261D01*
X1709954Y535501D01*
X1709957Y535502D01*
X1709961Y535502D01*
X1711221Y535767D01*
X1712539Y535954D01*
X1714097Y536090D01*
X1714101Y536091D01*
X1714105Y536091D01*
X1715455Y536212D01*
X1716877Y536286D01*
X1718465Y536329D01*
X1718466Y536329D01*
X1719460Y536356D01*
X1720469Y536367D01*
X1738210Y536367D01*
X1738262Y536359D01*
X1794565Y536359D01*
X1797331Y536251D01*
X1799766Y535978D01*
X1799768Y535978D01*
X1799770Y535978D01*
X1802182Y535712D01*
X1804026Y535330D01*
X1805663Y534728D01*
X1807283Y534130D01*
X1808342Y533494D01*
X1809353Y532520D01*
X1810221Y531677D01*
X1810792Y530844D01*
X1811355Y529587D01*
X1811357Y529584D01*
X1811358Y529581D01*
X1811904Y528370D01*
X1812282Y527091D01*
X1812596Y525409D01*
X1812596Y525408D01*
X1812900Y523777D01*
X1813091Y522000D01*
X1813205Y519888D01*
X1813285Y518330D01*
X1813323Y516661D01*
X1813323Y435435D01*
X1813208Y432690D01*
X1812913Y430268D01*
X1812913Y430267D01*
X1812667Y428237D01*
X1812337Y426652D01*
X1811835Y425201D01*
X1811835Y425199D01*
X1811833Y425195D01*
X1811363Y423824D01*
X1810869Y422870D01*
X1810153Y421946D01*
X1809673Y421334D01*
X1809246Y420904D01*
X1808643Y420442D01*
X1808639Y420438D01*
X1808633Y420435D01*
X1807819Y419805D01*
X1807010Y419365D01*
X1805862Y418921D01*
X1804944Y418568D01*
X1804001Y418293D01*
X1802857Y418049D01*
X1801596Y417789D01*
X1800268Y417598D01*
X1798713Y417463D01*
X1798709Y417462D01*
X1798706Y417462D01*
X1797355Y417341D01*
X1795935Y417267D01*
X1794348Y417228D01*
X1794347Y417228D01*
X1793366Y417205D01*
X1792338Y417190D01*
X1718256Y417190D01*
G37*
%LPD*%
%LPC*%
G36*
X743214Y417190D02*
X743214Y417190D01*
X740438Y417309D01*
X737982Y417576D01*
X735578Y417844D01*
X733739Y418223D01*
X732111Y418824D01*
X732110Y418825D01*
X732109Y418825D01*
X730482Y419425D01*
X729433Y420060D01*
X728409Y421044D01*
X727545Y421882D01*
X726975Y422717D01*
X726394Y423979D01*
X725857Y425178D01*
X725482Y426469D01*
X725161Y428147D01*
X724866Y429772D01*
X724678Y431551D01*
X724557Y433652D01*
X724480Y435215D01*
X724450Y436891D01*
X724450Y518121D01*
X724554Y520872D01*
X724848Y523285D01*
X724848Y523286D01*
X725094Y525311D01*
X725431Y526903D01*
X725932Y528361D01*
X725932Y528363D01*
X725933Y528365D01*
X726399Y529730D01*
X726892Y530682D01*
X727603Y531601D01*
X728091Y532217D01*
X728526Y532652D01*
X729132Y533128D01*
X729941Y533752D01*
X730752Y534189D01*
X731908Y534635D01*
X731911Y534636D01*
X731914Y534637D01*
X732830Y534993D01*
X733762Y535261D01*
X734911Y535501D01*
X734915Y535503D01*
X734918Y535503D01*
X736168Y535768D01*
X737494Y535954D01*
X739045Y536090D01*
X739047Y536090D01*
X739049Y536090D01*
X740416Y536212D01*
X741831Y536286D01*
X743423Y536329D01*
X743424Y536329D01*
X743425Y536329D01*
X744419Y536356D01*
X745423Y536367D01*
X763165Y536367D01*
X763217Y536359D01*
X819523Y536359D01*
X822287Y536251D01*
X824725Y535978D01*
X824727Y535978D01*
X824729Y535978D01*
X827139Y535712D01*
X828978Y535330D01*
X830620Y534728D01*
X832238Y534130D01*
X833303Y533492D01*
X834317Y532517D01*
X835178Y531679D01*
X835752Y530842D01*
X836318Y529586D01*
X836859Y528378D01*
X837233Y527092D01*
X837556Y525398D01*
X837850Y523785D01*
X838038Y521998D01*
X838159Y519889D01*
X838159Y519888D01*
X838244Y518325D01*
X838281Y516661D01*
X838281Y435437D01*
X838162Y432692D01*
X837868Y430268D01*
X837868Y430267D01*
X837621Y428233D01*
X837298Y426650D01*
X836795Y425206D01*
X836312Y423826D01*
X835820Y422866D01*
X835100Y421936D01*
X835099Y421935D01*
X834636Y421336D01*
X834206Y420912D01*
X833593Y420442D01*
X833586Y420435D01*
X833576Y420429D01*
X832771Y419801D01*
X831973Y419366D01*
X830823Y418922D01*
X829907Y418570D01*
X828945Y418293D01*
X827804Y418047D01*
X826551Y417789D01*
X825218Y417598D01*
X823670Y417463D01*
X823667Y417462D01*
X823664Y417462D01*
X822317Y417341D01*
X820886Y417267D01*
X819298Y417228D01*
X818322Y417205D01*
X817289Y417190D01*
X743214Y417190D01*
G37*
%LPD*%
%LPC*%
G36*
X1461281Y417190D02*
X1461281Y417190D01*
X1458497Y417309D01*
X1456050Y417575D01*
X1453645Y417844D01*
X1451805Y418223D01*
X1450167Y418826D01*
X1450166Y418826D01*
X1448550Y419424D01*
X1447500Y420060D01*
X1446476Y421044D01*
X1445612Y421882D01*
X1445042Y422717D01*
X1444461Y423980D01*
X1443924Y425178D01*
X1443549Y426469D01*
X1443228Y428147D01*
X1442932Y429776D01*
X1442737Y431553D01*
X1442624Y433652D01*
X1442547Y435222D01*
X1442509Y436895D01*
X1442509Y518117D01*
X1442621Y520872D01*
X1442908Y523292D01*
X1443160Y525306D01*
X1443499Y526903D01*
X1443999Y528361D01*
X1443999Y528363D01*
X1444000Y528365D01*
X1444466Y529730D01*
X1444959Y530682D01*
X1445673Y531604D01*
X1446158Y532218D01*
X1446593Y532652D01*
X1447199Y533128D01*
X1448008Y533752D01*
X1448821Y534190D01*
X1449972Y534636D01*
X1449973Y534637D01*
X1450896Y534992D01*
X1451822Y535261D01*
X1452976Y535501D01*
X1452980Y535502D01*
X1452985Y535503D01*
X1454236Y535768D01*
X1455553Y535954D01*
X1457111Y536090D01*
X1457114Y536091D01*
X1457117Y536090D01*
X1458476Y536212D01*
X1459896Y536286D01*
X1461483Y536329D01*
X1461484Y536329D01*
X1462478Y536356D01*
X1463483Y536367D01*
X1480611Y536367D01*
X1480664Y536359D01*
X1555014Y536359D01*
X1555014Y417190D01*
X1461281Y417190D01*
G37*
%LPD*%
D10*
X2537500Y200000D02*
X2537556Y204601D01*
X2537726Y209200D01*
X2538008Y213793D01*
X2538403Y218378D01*
X2538910Y222952D01*
X2539529Y227512D01*
X2540260Y232055D01*
X2541103Y236579D01*
X2542056Y241081D01*
X2543119Y245559D01*
X2544292Y250009D01*
X2545574Y254428D01*
X2546963Y258815D01*
X2548460Y263167D01*
X2550064Y267480D01*
X2551773Y271753D01*
X2553586Y275983D01*
X2555502Y280167D01*
X2557520Y284302D01*
X2559640Y288387D01*
X2561859Y292418D01*
X2564176Y296394D01*
X2566590Y300312D01*
X2569099Y304169D01*
X2571703Y307964D01*
X2574399Y311694D01*
X2577185Y315356D01*
X2580061Y318949D01*
X2583023Y322470D01*
X2586072Y325917D01*
X2589204Y329289D01*
X2592417Y332583D01*
X2595711Y335796D01*
X2599083Y338928D01*
X2602530Y341977D01*
X2606051Y344939D01*
X2609644Y347815D01*
X2613306Y350601D01*
X2617036Y353297D01*
X2620831Y355901D01*
X2624688Y358410D01*
X2628606Y360824D01*
X2632582Y363141D01*
X2636613Y365360D01*
X2640698Y367480D01*
X2644833Y369498D01*
X2649017Y371414D01*
X2653247Y373227D01*
X2657520Y374936D01*
X2661833Y376540D01*
X2666185Y378037D01*
X2670572Y379426D01*
X2674991Y380708D01*
X2679441Y381881D01*
X2683919Y382944D01*
X2688421Y383897D01*
X2692945Y384740D01*
X2697488Y385471D01*
X2702048Y386090D01*
X2706622Y386597D01*
X2711207Y386992D01*
X2715800Y387274D01*
X2720399Y387444D01*
X2725000Y387500D01*
X2729601Y387444D01*
X2734200Y387274D01*
X2738793Y386992D01*
X2743378Y386597D01*
X2747952Y386090D01*
X2752512Y385471D01*
X2757055Y384740D01*
X2761579Y383897D01*
X2766081Y382944D01*
X2770559Y381881D01*
X2775009Y380708D01*
X2779428Y379426D01*
X2783815Y378037D01*
X2788167Y376540D01*
X2792480Y374936D01*
X2796753Y373227D01*
X2800983Y371414D01*
X2805167Y369498D01*
X2809302Y367480D01*
X2813387Y365360D01*
X2817418Y363141D01*
X2821394Y360824D01*
X2825312Y358410D01*
X2829169Y355901D01*
X2832964Y353297D01*
X2836694Y350601D01*
X2840356Y347815D01*
X2843949Y344939D01*
X2847470Y341977D01*
X2850917Y338928D01*
X2854289Y335796D01*
X2857583Y332583D01*
X2860796Y329289D01*
X2863928Y325917D01*
X2866977Y322470D01*
X2869939Y318949D01*
X2872815Y315356D01*
X2875601Y311694D01*
X2878297Y307964D01*
X2880901Y304169D01*
X2883410Y300312D01*
X2885824Y296394D01*
X2888141Y292418D01*
X2890360Y288387D01*
X2892480Y284302D01*
X2894498Y280167D01*
X2896414Y275983D01*
X2898227Y271753D01*
X2899936Y267480D01*
X2901540Y263167D01*
X2903037Y258815D01*
X2904426Y254428D01*
X2905708Y250009D01*
X2906881Y245559D01*
X2907944Y241081D01*
X2908897Y236579D01*
X2909740Y232055D01*
X2910471Y227512D01*
X2911090Y222952D01*
X2911597Y218378D01*
X2911992Y213793D01*
X2912274Y209200D01*
X2912444Y204601D01*
X2912500Y200000D01*
X2912444Y195399D01*
X2912274Y190800D01*
X2911992Y186207D01*
X2911597Y181622D01*
X2911090Y177048D01*
X2910471Y172488D01*
X2909740Y167945D01*
X2908897Y163421D01*
X2907944Y158919D01*
X2906881Y154441D01*
X2905708Y149991D01*
X2904426Y145572D01*
X2903037Y141185D01*
X2901540Y136833D01*
X2899936Y132520D01*
X2898227Y128247D01*
X2896414Y124017D01*
X2894498Y119833D01*
X2892480Y115698D01*
X2890360Y111613D01*
X2888141Y107582D01*
X2885824Y103606D01*
X2883410Y99688D01*
X2880901Y95831D01*
X2878297Y92036D01*
X2875601Y88306D01*
X2872815Y84644D01*
X2869939Y81051D01*
X2866977Y77530D01*
X2863928Y74083D01*
X2860796Y70711D01*
X2857583Y67417D01*
X2854289Y64204D01*
X2850917Y61072D01*
X2847470Y58023D01*
X2843949Y55061D01*
X2840356Y52185D01*
X2836694Y49399D01*
X2832964Y46703D01*
X2829169Y44099D01*
X2825312Y41590D01*
X2821394Y39176D01*
X2817418Y36859D01*
X2813387Y34640D01*
X2809302Y32520D01*
X2805167Y30502D01*
X2800983Y28586D01*
X2796753Y26773D01*
X2792480Y25064D01*
X2788167Y23460D01*
X2783815Y21963D01*
X2779428Y20574D01*
X2775009Y19292D01*
X2770559Y18119D01*
X2766081Y17056D01*
X2761579Y16103D01*
X2757055Y15260D01*
X2752512Y14529D01*
X2747952Y13910D01*
X2743378Y13403D01*
X2738793Y13008D01*
X2734200Y12726D01*
X2729601Y12556D01*
X2725000Y12500D01*
X2720399Y12556D01*
X2715800Y12726D01*
X2711207Y13008D01*
X2706622Y13403D01*
X2702048Y13910D01*
X2697488Y14529D01*
X2692945Y15260D01*
X2688421Y16103D01*
X2683919Y17056D01*
X2679441Y18119D01*
X2674991Y19292D01*
X2670572Y20574D01*
X2666185Y21963D01*
X2661833Y23460D01*
X2657520Y25064D01*
X2653247Y26773D01*
X2649017Y28586D01*
X2644833Y30502D01*
X2640698Y32520D01*
X2636613Y34640D01*
X2632582Y36859D01*
X2628606Y39176D01*
X2624688Y41590D01*
X2620831Y44099D01*
X2617036Y46703D01*
X2613306Y49399D01*
X2609644Y52185D01*
X2606051Y55061D01*
X2602530Y58023D01*
X2599083Y61072D01*
X2595711Y64204D01*
X2592417Y67417D01*
X2589204Y70711D01*
X2586072Y74083D01*
X2583023Y77530D01*
X2580061Y81051D01*
X2577185Y84644D01*
X2574399Y88306D01*
X2571703Y92036D01*
X2569099Y95831D01*
X2566590Y99688D01*
X2564176Y103606D01*
X2561859Y107582D01*
X2559640Y111613D01*
X2557520Y115698D01*
X2555502Y119833D01*
X2553586Y124017D01*
X2551773Y128247D01*
X2550064Y132520D01*
X2548460Y136833D01*
X2546963Y141185D01*
X2545574Y145572D01*
X2544292Y149991D01*
X2543119Y154441D01*
X2542056Y158919D01*
X2541103Y163421D01*
X2540260Y167945D01*
X2539529Y172488D01*
X2538910Y177048D01*
X2538403Y181622D01*
X2538008Y186207D01*
X2537726Y190800D01*
X2537556Y195399D01*
X2537500Y200000D01*
X387500Y200000D02*
X387556Y204601D01*
X387726Y209200D01*
X388008Y213793D01*
X388403Y218378D01*
X388910Y222952D01*
X389529Y227512D01*
X390260Y232055D01*
X391103Y236579D01*
X392056Y241081D01*
X393119Y245559D01*
X394292Y250009D01*
X395574Y254428D01*
X396963Y258815D01*
X398460Y263167D01*
X400064Y267480D01*
X401773Y271753D01*
X403586Y275983D01*
X405502Y280167D01*
X407520Y284302D01*
X409640Y288387D01*
X411859Y292418D01*
X414176Y296394D01*
X416590Y300312D01*
X419099Y304169D01*
X421703Y307964D01*
X424399Y311694D01*
X427185Y315356D01*
X430061Y318949D01*
X433023Y322470D01*
X436072Y325917D01*
X439204Y329289D01*
X442417Y332583D01*
X445711Y335796D01*
X449083Y338928D01*
X452530Y341977D01*
X456051Y344939D01*
X459644Y347815D01*
X463306Y350601D01*
X467036Y353297D01*
X470831Y355901D01*
X474688Y358410D01*
X478606Y360824D01*
X482582Y363141D01*
X486613Y365360D01*
X490698Y367480D01*
X494833Y369498D01*
X499017Y371414D01*
X503247Y373227D01*
X507520Y374936D01*
X511833Y376540D01*
X516185Y378037D01*
X520572Y379426D01*
X524991Y380708D01*
X529441Y381881D01*
X533919Y382944D01*
X538421Y383897D01*
X542945Y384740D01*
X547488Y385471D01*
X552048Y386090D01*
X556622Y386597D01*
X561207Y386992D01*
X565800Y387274D01*
X570399Y387444D01*
X575000Y387500D01*
X579601Y387444D01*
X584200Y387274D01*
X588793Y386992D01*
X593378Y386597D01*
X597952Y386090D01*
X602512Y385471D01*
X607055Y384740D01*
X611579Y383897D01*
X616081Y382944D01*
X620559Y381881D01*
X625009Y380708D01*
X629428Y379426D01*
X633815Y378037D01*
X638167Y376540D01*
X642480Y374936D01*
X646753Y373227D01*
X650983Y371414D01*
X655167Y369498D01*
X659302Y367480D01*
X663387Y365360D01*
X667418Y363141D01*
X671394Y360824D01*
X675312Y358410D01*
X679169Y355901D01*
X682964Y353297D01*
X686694Y350601D01*
X690356Y347815D01*
X693949Y344939D01*
X697470Y341977D01*
X700917Y338928D01*
X704289Y335796D01*
X707583Y332583D01*
X710796Y329289D01*
X713928Y325917D01*
X716977Y322470D01*
X719939Y318949D01*
X722815Y315356D01*
X725601Y311694D01*
X728297Y307964D01*
X730901Y304169D01*
X733410Y300312D01*
X735824Y296394D01*
X738141Y292418D01*
X740360Y288387D01*
X742480Y284302D01*
X744498Y280167D01*
X746414Y275983D01*
X748227Y271753D01*
X749936Y267480D01*
X751540Y263167D01*
X753037Y258815D01*
X754426Y254428D01*
X755708Y250009D01*
X756881Y245559D01*
X757944Y241081D01*
X758897Y236579D01*
X759740Y232055D01*
X760471Y227512D01*
X761090Y222952D01*
X761597Y218378D01*
X761992Y213793D01*
X762274Y209200D01*
X762444Y204601D01*
X762500Y200000D01*
X762444Y195399D01*
X762274Y190800D01*
X761992Y186207D01*
X761597Y181622D01*
X761090Y177048D01*
X760471Y172488D01*
X759740Y167945D01*
X758897Y163421D01*
X757944Y158919D01*
X756881Y154441D01*
X755708Y149991D01*
X754426Y145572D01*
X753037Y141185D01*
X751540Y136833D01*
X749936Y132520D01*
X748227Y128247D01*
X746414Y124017D01*
X744498Y119833D01*
X742480Y115698D01*
X740360Y111613D01*
X738141Y107582D01*
X735824Y103606D01*
X733410Y99688D01*
X730901Y95831D01*
X728297Y92036D01*
X725601Y88306D01*
X722815Y84644D01*
X719939Y81051D01*
X716977Y77530D01*
X713928Y74083D01*
X710796Y70711D01*
X707583Y67417D01*
X704289Y64204D01*
X700917Y61072D01*
X697470Y58023D01*
X693949Y55061D01*
X690356Y52185D01*
X686694Y49399D01*
X682964Y46703D01*
X679169Y44099D01*
X675312Y41590D01*
X671394Y39176D01*
X667418Y36859D01*
X663387Y34640D01*
X659302Y32520D01*
X655167Y30502D01*
X650983Y28586D01*
X646753Y26773D01*
X642480Y25064D01*
X638167Y23460D01*
X633815Y21963D01*
X629428Y20574D01*
X625009Y19292D01*
X620559Y18119D01*
X616081Y17056D01*
X611579Y16103D01*
X607055Y15260D01*
X602512Y14529D01*
X597952Y13910D01*
X593378Y13403D01*
X588793Y13008D01*
X584200Y12726D01*
X579601Y12556D01*
X575000Y12500D01*
X570399Y12556D01*
X565800Y12726D01*
X561207Y13008D01*
X556622Y13403D01*
X552048Y13910D01*
X547488Y14529D01*
X542945Y15260D01*
X538421Y16103D01*
X533919Y17056D01*
X529441Y18119D01*
X524991Y19292D01*
X520572Y20574D01*
X516185Y21963D01*
X511833Y23460D01*
X507520Y25064D01*
X503247Y26773D01*
X499017Y28586D01*
X494833Y30502D01*
X490698Y32520D01*
X486613Y34640D01*
X482582Y36859D01*
X478606Y39176D01*
X474688Y41590D01*
X470831Y44099D01*
X467036Y46703D01*
X463306Y49399D01*
X459644Y52185D01*
X456051Y55061D01*
X452530Y58023D01*
X449083Y61072D01*
X445711Y64204D01*
X442417Y67417D01*
X439204Y70711D01*
X436072Y74083D01*
X433023Y77530D01*
X430061Y81051D01*
X427185Y84644D01*
X424399Y88306D01*
X421703Y92036D01*
X419099Y95831D01*
X416590Y99688D01*
X414176Y103606D01*
X411859Y107582D01*
X409640Y111613D01*
X407520Y115698D01*
X405502Y119833D01*
X403586Y124017D01*
X401773Y128247D01*
X400064Y132520D01*
X398460Y136833D01*
X396963Y141185D01*
X395574Y145572D01*
X394292Y149991D01*
X393119Y154441D01*
X392056Y158919D01*
X391103Y163421D01*
X390260Y167945D01*
X389529Y172488D01*
X388910Y177048D01*
X388403Y181622D01*
X388008Y186207D01*
X387726Y190800D01*
X387556Y195399D01*
X387500Y200000D01*
X2537500Y2200000D02*
X2537556Y2204601D01*
X2537726Y2209200D01*
X2538008Y2213793D01*
X2538403Y2218378D01*
X2538910Y2222952D01*
X2539529Y2227512D01*
X2540260Y2232055D01*
X2541103Y2236579D01*
X2542056Y2241081D01*
X2543119Y2245559D01*
X2544292Y2250009D01*
X2545574Y2254428D01*
X2546963Y2258815D01*
X2548460Y2263167D01*
X2550064Y2267480D01*
X2551773Y2271753D01*
X2553586Y2275983D01*
X2555502Y2280167D01*
X2557520Y2284302D01*
X2559640Y2288387D01*
X2561859Y2292418D01*
X2564176Y2296394D01*
X2566590Y2300312D01*
X2569099Y2304169D01*
X2571703Y2307964D01*
X2574399Y2311694D01*
X2577185Y2315356D01*
X2580061Y2318949D01*
X2583023Y2322470D01*
X2586072Y2325917D01*
X2589204Y2329289D01*
X2592417Y2332583D01*
X2595711Y2335796D01*
X2599083Y2338928D01*
X2602530Y2341977D01*
X2606051Y2344939D01*
X2609644Y2347815D01*
X2613306Y2350601D01*
X2617036Y2353297D01*
X2620831Y2355901D01*
X2624688Y2358410D01*
X2628606Y2360824D01*
X2632582Y2363141D01*
X2636613Y2365360D01*
X2640698Y2367480D01*
X2644833Y2369498D01*
X2649017Y2371414D01*
X2653247Y2373227D01*
X2657520Y2374936D01*
X2661833Y2376540D01*
X2666185Y2378037D01*
X2670572Y2379426D01*
X2674991Y2380708D01*
X2679441Y2381881D01*
X2683919Y2382944D01*
X2688421Y2383897D01*
X2692945Y2384740D01*
X2697488Y2385471D01*
X2702048Y2386090D01*
X2706622Y2386597D01*
X2711207Y2386992D01*
X2715800Y2387274D01*
X2720399Y2387444D01*
X2725000Y2387500D01*
X2729601Y2387444D01*
X2734200Y2387274D01*
X2738793Y2386992D01*
X2743378Y2386597D01*
X2747952Y2386090D01*
X2752512Y2385471D01*
X2757055Y2384740D01*
X2761579Y2383897D01*
X2766081Y2382944D01*
X2770559Y2381881D01*
X2775009Y2380708D01*
X2779428Y2379426D01*
X2783815Y2378037D01*
X2788167Y2376540D01*
X2792480Y2374936D01*
X2796753Y2373227D01*
X2800983Y2371414D01*
X2805167Y2369498D01*
X2809302Y2367480D01*
X2813387Y2365360D01*
X2817418Y2363141D01*
X2821394Y2360824D01*
X2825312Y2358410D01*
X2829169Y2355901D01*
X2832964Y2353297D01*
X2836694Y2350601D01*
X2840356Y2347815D01*
X2843949Y2344939D01*
X2847470Y2341977D01*
X2850917Y2338928D01*
X2854289Y2335796D01*
X2857583Y2332583D01*
X2860796Y2329289D01*
X2863928Y2325917D01*
X2866977Y2322470D01*
X2869939Y2318949D01*
X2872815Y2315356D01*
X2875601Y2311694D01*
X2878297Y2307964D01*
X2880901Y2304169D01*
X2883410Y2300312D01*
X2885824Y2296394D01*
X2888141Y2292418D01*
X2890360Y2288387D01*
X2892480Y2284302D01*
X2894498Y2280167D01*
X2896414Y2275983D01*
X2898227Y2271753D01*
X2899936Y2267480D01*
X2901540Y2263167D01*
X2903037Y2258815D01*
X2904426Y2254428D01*
X2905708Y2250009D01*
X2906881Y2245559D01*
X2907944Y2241081D01*
X2908897Y2236579D01*
X2909740Y2232055D01*
X2910471Y2227512D01*
X2911090Y2222952D01*
X2911597Y2218378D01*
X2911992Y2213793D01*
X2912274Y2209200D01*
X2912444Y2204601D01*
X2912500Y2200000D01*
X2912444Y2195399D01*
X2912274Y2190800D01*
X2911992Y2186207D01*
X2911597Y2181622D01*
X2911090Y2177048D01*
X2910471Y2172488D01*
X2909740Y2167945D01*
X2908897Y2163421D01*
X2907944Y2158919D01*
X2906881Y2154441D01*
X2905708Y2149991D01*
X2904426Y2145572D01*
X2903037Y2141185D01*
X2901540Y2136833D01*
X2899936Y2132520D01*
X2898227Y2128247D01*
X2896414Y2124017D01*
X2894498Y2119833D01*
X2892480Y2115698D01*
X2890360Y2111613D01*
X2888141Y2107582D01*
X2885824Y2103606D01*
X2883410Y2099688D01*
X2880901Y2095831D01*
X2878297Y2092036D01*
X2875601Y2088306D01*
X2872815Y2084644D01*
X2869939Y2081051D01*
X2866977Y2077530D01*
X2863928Y2074083D01*
X2860796Y2070711D01*
X2857583Y2067417D01*
X2854289Y2064204D01*
X2850917Y2061072D01*
X2847470Y2058023D01*
X2843949Y2055061D01*
X2840356Y2052185D01*
X2836694Y2049399D01*
X2832964Y2046703D01*
X2829169Y2044099D01*
X2825312Y2041590D01*
X2821394Y2039176D01*
X2817418Y2036859D01*
X2813387Y2034640D01*
X2809302Y2032520D01*
X2805167Y2030502D01*
X2800983Y2028586D01*
X2796753Y2026773D01*
X2792480Y2025064D01*
X2788167Y2023460D01*
X2783815Y2021963D01*
X2779428Y2020574D01*
X2775009Y2019292D01*
X2770559Y2018119D01*
X2766081Y2017056D01*
X2761579Y2016103D01*
X2757055Y2015260D01*
X2752512Y2014529D01*
X2747952Y2013910D01*
X2743378Y2013403D01*
X2738793Y2013008D01*
X2734200Y2012726D01*
X2729601Y2012556D01*
X2725000Y2012500D01*
X2720399Y2012556D01*
X2715800Y2012726D01*
X2711207Y2013008D01*
X2706622Y2013403D01*
X2702048Y2013910D01*
X2697488Y2014529D01*
X2692945Y2015260D01*
X2688421Y2016103D01*
X2683919Y2017056D01*
X2679441Y2018119D01*
X2674991Y2019292D01*
X2670572Y2020574D01*
X2666185Y2021963D01*
X2661833Y2023460D01*
X2657520Y2025064D01*
X2653247Y2026773D01*
X2649017Y2028586D01*
X2644833Y2030502D01*
X2640698Y2032520D01*
X2636613Y2034640D01*
X2632582Y2036859D01*
X2628606Y2039176D01*
X2624688Y2041590D01*
X2620831Y2044099D01*
X2617036Y2046703D01*
X2613306Y2049399D01*
X2609644Y2052185D01*
X2606051Y2055061D01*
X2602530Y2058023D01*
X2599083Y2061072D01*
X2595711Y2064204D01*
X2592417Y2067417D01*
X2589204Y2070711D01*
X2586072Y2074083D01*
X2583023Y2077530D01*
X2580061Y2081051D01*
X2577185Y2084644D01*
X2574399Y2088306D01*
X2571703Y2092036D01*
X2569099Y2095831D01*
X2566590Y2099688D01*
X2564176Y2103606D01*
X2561859Y2107582D01*
X2559640Y2111613D01*
X2557520Y2115698D01*
X2555502Y2119833D01*
X2553586Y2124017D01*
X2551773Y2128247D01*
X2550064Y2132520D01*
X2548460Y2136833D01*
X2546963Y2141185D01*
X2545574Y2145572D01*
X2544292Y2149991D01*
X2543119Y2154441D01*
X2542056Y2158919D01*
X2541103Y2163421D01*
X2540260Y2167945D01*
X2539529Y2172488D01*
X2538910Y2177048D01*
X2538403Y2181622D01*
X2538008Y2186207D01*
X2537726Y2190800D01*
X2537556Y2195399D01*
X2537500Y2200000D01*
X387500Y2200000D02*
X387556Y2204601D01*
X387726Y2209200D01*
X388008Y2213793D01*
X388403Y2218378D01*
X388910Y2222952D01*
X389529Y2227512D01*
X390260Y2232055D01*
X391103Y2236579D01*
X392056Y2241081D01*
X393119Y2245559D01*
X394292Y2250009D01*
X395574Y2254428D01*
X396963Y2258815D01*
X398460Y2263167D01*
X400064Y2267480D01*
X401773Y2271753D01*
X403586Y2275983D01*
X405502Y2280167D01*
X407520Y2284302D01*
X409640Y2288387D01*
X411859Y2292418D01*
X414176Y2296394D01*
X416590Y2300312D01*
X419099Y2304169D01*
X421703Y2307964D01*
X424399Y2311694D01*
X427185Y2315356D01*
X430061Y2318949D01*
X433023Y2322470D01*
X436072Y2325917D01*
X439204Y2329289D01*
X442417Y2332583D01*
X445711Y2335796D01*
X449083Y2338928D01*
X452530Y2341977D01*
X456051Y2344939D01*
X459644Y2347815D01*
X463306Y2350601D01*
X467036Y2353297D01*
X470831Y2355901D01*
X474688Y2358410D01*
X478606Y2360824D01*
X482582Y2363141D01*
X486613Y2365360D01*
X490698Y2367480D01*
X494833Y2369498D01*
X499017Y2371414D01*
X503247Y2373227D01*
X507520Y2374936D01*
X511833Y2376540D01*
X516185Y2378037D01*
X520572Y2379426D01*
X524991Y2380708D01*
X529441Y2381881D01*
X533919Y2382944D01*
X538421Y2383897D01*
X542945Y2384740D01*
X547488Y2385471D01*
X552048Y2386090D01*
X556622Y2386597D01*
X561207Y2386992D01*
X565800Y2387274D01*
X570399Y2387444D01*
X575000Y2387500D01*
X579601Y2387444D01*
X584200Y2387274D01*
X588793Y2386992D01*
X593378Y2386597D01*
X597952Y2386090D01*
X602512Y2385471D01*
X607055Y2384740D01*
X611579Y2383897D01*
X616081Y2382944D01*
X620559Y2381881D01*
X625009Y2380708D01*
X629428Y2379426D01*
X633815Y2378037D01*
X638167Y2376540D01*
X642480Y2374936D01*
X646753Y2373227D01*
X650983Y2371414D01*
X655167Y2369498D01*
X659302Y2367480D01*
X663387Y2365360D01*
X667418Y2363141D01*
X671394Y2360824D01*
X675312Y2358410D01*
X679169Y2355901D01*
X682964Y2353297D01*
X686694Y2350601D01*
X690356Y2347815D01*
X693949Y2344939D01*
X697470Y2341977D01*
X700917Y2338928D01*
X704289Y2335796D01*
X707583Y2332583D01*
X710796Y2329289D01*
X713928Y2325917D01*
X716977Y2322470D01*
X719939Y2318949D01*
X722815Y2315356D01*
X725601Y2311694D01*
X728297Y2307964D01*
X730901Y2304169D01*
X733410Y2300312D01*
X735824Y2296394D01*
X738141Y2292418D01*
X740360Y2288387D01*
X742480Y2284302D01*
X744498Y2280167D01*
X746414Y2275983D01*
X748227Y2271753D01*
X749936Y2267480D01*
X751540Y2263167D01*
X753037Y2258815D01*
X754426Y2254428D01*
X755708Y2250009D01*
X756881Y2245559D01*
X757944Y2241081D01*
X758897Y2236579D01*
X759740Y2232055D01*
X760471Y2227512D01*
X761090Y2222952D01*
X761597Y2218378D01*
X761992Y2213793D01*
X762274Y2209200D01*
X762444Y2204601D01*
X762500Y2200000D01*
X762444Y2195399D01*
X762274Y2190800D01*
X761992Y2186207D01*
X761597Y2181622D01*
X761090Y2177048D01*
X760471Y2172488D01*
X759740Y2167945D01*
X758897Y2163421D01*
X757944Y2158919D01*
X756881Y2154441D01*
X755708Y2149991D01*
X754426Y2145572D01*
X753037Y2141185D01*
X751540Y2136833D01*
X749936Y2132520D01*
X748227Y2128247D01*
X746414Y2124017D01*
X744498Y2119833D01*
X742480Y2115698D01*
X740360Y2111613D01*
X738141Y2107582D01*
X735824Y2103606D01*
X733410Y2099688D01*
X730901Y2095831D01*
X728297Y2092036D01*
X725601Y2088306D01*
X722815Y2084644D01*
X719939Y2081051D01*
X716977Y2077530D01*
X713928Y2074083D01*
X710796Y2070711D01*
X707583Y2067417D01*
X704289Y2064204D01*
X700917Y2061072D01*
X697470Y2058023D01*
X693949Y2055061D01*
X690356Y2052185D01*
X686694Y2049399D01*
X682964Y2046703D01*
X679169Y2044099D01*
X675312Y2041590D01*
X671394Y2039176D01*
X667418Y2036859D01*
X663387Y2034640D01*
X659302Y2032520D01*
X655167Y2030502D01*
X650983Y2028586D01*
X646753Y2026773D01*
X642480Y2025064D01*
X638167Y2023460D01*
X633815Y2021963D01*
X629428Y2020574D01*
X625009Y2019292D01*
X620559Y2018119D01*
X616081Y2017056D01*
X611579Y2016103D01*
X607055Y2015260D01*
X602512Y2014529D01*
X597952Y2013910D01*
X593378Y2013403D01*
X588793Y2013008D01*
X584200Y2012726D01*
X579601Y2012556D01*
X575000Y2012500D01*
X570399Y2012556D01*
X565800Y2012726D01*
X561207Y2013008D01*
X556622Y2013403D01*
X552048Y2013910D01*
X547488Y2014529D01*
X542945Y2015260D01*
X538421Y2016103D01*
X533919Y2017056D01*
X529441Y2018119D01*
X524991Y2019292D01*
X520572Y2020574D01*
X516185Y2021963D01*
X511833Y2023460D01*
X507520Y2025064D01*
X503247Y2026773D01*
X499017Y2028586D01*
X494833Y2030502D01*
X490698Y2032520D01*
X486613Y2034640D01*
X482582Y2036859D01*
X478606Y2039176D01*
X474688Y2041590D01*
X470831Y2044099D01*
X467036Y2046703D01*
X463306Y2049399D01*
X459644Y2052185D01*
X456051Y2055061D01*
X452530Y2058023D01*
X449083Y2061072D01*
X445711Y2064204D01*
X442417Y2067417D01*
X439204Y2070711D01*
X436072Y2074083D01*
X433023Y2077530D01*
X430061Y2081051D01*
X427185Y2084644D01*
X424399Y2088306D01*
X421703Y2092036D01*
X419099Y2095831D01*
X416590Y2099688D01*
X414176Y2103606D01*
X411859Y2107582D01*
X409640Y2111613D01*
X407520Y2115698D01*
X405502Y2119833D01*
X403586Y2124017D01*
X401773Y2128247D01*
X400064Y2132520D01*
X398460Y2136833D01*
X396963Y2141185D01*
X395574Y2145572D01*
X394292Y2149991D01*
X393119Y2154441D01*
X392056Y2158919D01*
X391103Y2163421D01*
X390260Y2167945D01*
X389529Y2172488D01*
X388910Y2177048D01*
X388403Y2181622D01*
X388008Y2186207D01*
X387726Y2190800D01*
X387556Y2195399D01*
X387500Y2200000D01*
X3247500Y289198D02*
X3229151Y252500D01*
X3210802Y289198D01*
X3192253Y289198D02*
X3173904Y307547D01*
X3173904Y252500D01*
X3192253Y252500D02*
X3155555Y252500D01*
D11*
X2024409Y1469685D02*
X2024409Y1485433D01*
X2024409Y1469685D02*
X2024409Y1414567D01*
X2075591Y1469685D02*
X2075591Y1485433D01*
X2075591Y1469685D02*
X2075591Y1414567D01*
X2075591Y1469685D02*
X2024409Y1469685D01*
D12*
X2045630Y1527559D02*
X2045632Y1527700D01*
X2045638Y1527841D01*
X2045648Y1527981D01*
X2045662Y1528121D01*
X2045680Y1528261D01*
X2045701Y1528400D01*
X2045727Y1528539D01*
X2045756Y1528677D01*
X2045790Y1528813D01*
X2045827Y1528949D01*
X2045868Y1529084D01*
X2045913Y1529218D01*
X2045962Y1529350D01*
X2046014Y1529481D01*
X2046070Y1529610D01*
X2046130Y1529737D01*
X2046193Y1529863D01*
X2046259Y1529987D01*
X2046330Y1530110D01*
X2046403Y1530230D01*
X2046480Y1530348D01*
X2046560Y1530464D01*
X2046644Y1530577D01*
X2046730Y1530688D01*
X2046820Y1530797D01*
X2046913Y1530903D01*
X2047008Y1531006D01*
X2047107Y1531107D01*
X2047208Y1531205D01*
X2047312Y1531300D01*
X2047419Y1531392D01*
X2047528Y1531481D01*
X2047640Y1531566D01*
X2047754Y1531649D01*
X2047870Y1531729D01*
X2047989Y1531805D01*
X2048110Y1531877D01*
X2048232Y1531947D01*
X2048357Y1532012D01*
X2048483Y1532075D01*
X2048611Y1532133D01*
X2048741Y1532188D01*
X2048872Y1532240D01*
X2049005Y1532287D01*
X2049139Y1532331D01*
X2049274Y1532372D01*
X2049410Y1532408D01*
X2049547Y1532440D01*
X2049685Y1532469D01*
X2049823Y1532494D01*
X2049963Y1532514D01*
X2050103Y1532531D01*
X2050243Y1532544D01*
X2050384Y1532553D01*
X2050524Y1532558D01*
X2050665Y1532559D01*
X2050806Y1532556D01*
X2050947Y1532549D01*
X2051087Y1532538D01*
X2051227Y1532523D01*
X2051367Y1532504D01*
X2051506Y1532482D01*
X2051644Y1532455D01*
X2051782Y1532425D01*
X2051918Y1532390D01*
X2052054Y1532352D01*
X2052188Y1532310D01*
X2052322Y1532264D01*
X2052454Y1532215D01*
X2052584Y1532161D01*
X2052713Y1532104D01*
X2052840Y1532044D01*
X2052966Y1531980D01*
X2053089Y1531912D01*
X2053211Y1531841D01*
X2053331Y1531767D01*
X2053448Y1531689D01*
X2053563Y1531608D01*
X2053676Y1531524D01*
X2053787Y1531437D01*
X2053895Y1531346D01*
X2054000Y1531253D01*
X2054103Y1531156D01*
X2054203Y1531057D01*
X2054300Y1530955D01*
X2054394Y1530850D01*
X2054485Y1530743D01*
X2054573Y1530633D01*
X2054658Y1530521D01*
X2054740Y1530406D01*
X2054819Y1530289D01*
X2054894Y1530170D01*
X2054966Y1530049D01*
X2055034Y1529926D01*
X2055099Y1529801D01*
X2055161Y1529674D01*
X2055218Y1529545D01*
X2055273Y1529415D01*
X2055323Y1529284D01*
X2055370Y1529151D01*
X2055413Y1529017D01*
X2055452Y1528881D01*
X2055487Y1528745D01*
X2055519Y1528608D01*
X2055546Y1528470D01*
X2055570Y1528331D01*
X2055590Y1528191D01*
X2055606Y1528051D01*
X2055618Y1527911D01*
X2055626Y1527770D01*
X2055630Y1527629D01*
X2055630Y1527489D01*
X2055626Y1527348D01*
X2055618Y1527207D01*
X2055606Y1527067D01*
X2055590Y1526927D01*
X2055570Y1526787D01*
X2055546Y1526648D01*
X2055519Y1526510D01*
X2055487Y1526373D01*
X2055452Y1526237D01*
X2055413Y1526101D01*
X2055370Y1525967D01*
X2055323Y1525834D01*
X2055273Y1525703D01*
X2055218Y1525573D01*
X2055161Y1525444D01*
X2055099Y1525317D01*
X2055034Y1525192D01*
X2054966Y1525069D01*
X2054894Y1524948D01*
X2054819Y1524829D01*
X2054740Y1524712D01*
X2054658Y1524597D01*
X2054573Y1524485D01*
X2054485Y1524375D01*
X2054394Y1524268D01*
X2054300Y1524163D01*
X2054203Y1524061D01*
X2054103Y1523962D01*
X2054000Y1523865D01*
X2053895Y1523772D01*
X2053787Y1523681D01*
X2053676Y1523594D01*
X2053563Y1523510D01*
X2053448Y1523429D01*
X2053331Y1523351D01*
X2053211Y1523277D01*
X2053089Y1523206D01*
X2052966Y1523138D01*
X2052840Y1523074D01*
X2052713Y1523014D01*
X2052584Y1522957D01*
X2052454Y1522903D01*
X2052322Y1522854D01*
X2052188Y1522808D01*
X2052054Y1522766D01*
X2051918Y1522728D01*
X2051782Y1522693D01*
X2051644Y1522663D01*
X2051506Y1522636D01*
X2051367Y1522614D01*
X2051227Y1522595D01*
X2051087Y1522580D01*
X2050947Y1522569D01*
X2050806Y1522562D01*
X2050665Y1522559D01*
X2050524Y1522560D01*
X2050384Y1522565D01*
X2050243Y1522574D01*
X2050103Y1522587D01*
X2049963Y1522604D01*
X2049823Y1522624D01*
X2049685Y1522649D01*
X2049547Y1522678D01*
X2049410Y1522710D01*
X2049274Y1522746D01*
X2049139Y1522787D01*
X2049005Y1522831D01*
X2048872Y1522878D01*
X2048741Y1522930D01*
X2048611Y1522985D01*
X2048483Y1523043D01*
X2048357Y1523106D01*
X2048232Y1523171D01*
X2048110Y1523241D01*
X2047989Y1523313D01*
X2047870Y1523389D01*
X2047754Y1523469D01*
X2047640Y1523552D01*
X2047528Y1523637D01*
X2047419Y1523726D01*
X2047312Y1523818D01*
X2047208Y1523913D01*
X2047107Y1524011D01*
X2047008Y1524112D01*
X2046913Y1524215D01*
X2046820Y1524321D01*
X2046730Y1524430D01*
X2046644Y1524541D01*
X2046560Y1524654D01*
X2046480Y1524770D01*
X2046403Y1524888D01*
X2046330Y1525008D01*
X2046259Y1525131D01*
X2046193Y1525255D01*
X2046130Y1525381D01*
X2046070Y1525508D01*
X2046014Y1525637D01*
X2045962Y1525768D01*
X2045913Y1525900D01*
X2045868Y1526034D01*
X2045827Y1526169D01*
X2045790Y1526305D01*
X2045756Y1526441D01*
X2045727Y1526579D01*
X2045701Y1526718D01*
X2045680Y1526857D01*
X2045662Y1526997D01*
X2045648Y1527137D01*
X2045638Y1527277D01*
X2045632Y1527418D01*
X2045630Y1527559D01*
D13*
X2106465Y1397013D02*
X2106465Y1382000D01*
X2098959Y1382000D01*
X2096457Y1384502D01*
X2096457Y1394511D01*
X2098959Y1397013D01*
X2106465Y1397013D01*
X2091733Y1392008D02*
X2086728Y1397013D01*
X2086728Y1382000D01*
X2081724Y1382000D02*
X2091733Y1382000D01*
D11*
X2124409Y1469685D02*
X2124409Y1485433D01*
X2124409Y1469685D02*
X2124409Y1414567D01*
X2175591Y1469685D02*
X2175591Y1485433D01*
X2175591Y1469685D02*
X2175591Y1414567D01*
X2175591Y1469685D02*
X2124409Y1469685D01*
D12*
X2145630Y1527559D02*
X2145632Y1527700D01*
X2145638Y1527841D01*
X2145648Y1527981D01*
X2145662Y1528121D01*
X2145680Y1528261D01*
X2145701Y1528400D01*
X2145727Y1528539D01*
X2145756Y1528677D01*
X2145790Y1528813D01*
X2145827Y1528949D01*
X2145868Y1529084D01*
X2145913Y1529218D01*
X2145962Y1529350D01*
X2146014Y1529481D01*
X2146070Y1529610D01*
X2146130Y1529737D01*
X2146193Y1529863D01*
X2146259Y1529987D01*
X2146330Y1530110D01*
X2146403Y1530230D01*
X2146480Y1530348D01*
X2146560Y1530464D01*
X2146644Y1530577D01*
X2146730Y1530688D01*
X2146820Y1530797D01*
X2146913Y1530903D01*
X2147008Y1531006D01*
X2147107Y1531107D01*
X2147208Y1531205D01*
X2147312Y1531300D01*
X2147419Y1531392D01*
X2147528Y1531481D01*
X2147640Y1531566D01*
X2147754Y1531649D01*
X2147870Y1531729D01*
X2147989Y1531805D01*
X2148110Y1531877D01*
X2148232Y1531947D01*
X2148357Y1532012D01*
X2148483Y1532075D01*
X2148611Y1532133D01*
X2148741Y1532188D01*
X2148872Y1532240D01*
X2149005Y1532287D01*
X2149139Y1532331D01*
X2149274Y1532372D01*
X2149410Y1532408D01*
X2149547Y1532440D01*
X2149685Y1532469D01*
X2149823Y1532494D01*
X2149963Y1532514D01*
X2150103Y1532531D01*
X2150243Y1532544D01*
X2150384Y1532553D01*
X2150524Y1532558D01*
X2150665Y1532559D01*
X2150806Y1532556D01*
X2150947Y1532549D01*
X2151087Y1532538D01*
X2151227Y1532523D01*
X2151367Y1532504D01*
X2151506Y1532482D01*
X2151644Y1532455D01*
X2151782Y1532425D01*
X2151918Y1532390D01*
X2152054Y1532352D01*
X2152188Y1532310D01*
X2152322Y1532264D01*
X2152454Y1532215D01*
X2152584Y1532161D01*
X2152713Y1532104D01*
X2152840Y1532044D01*
X2152966Y1531980D01*
X2153089Y1531912D01*
X2153211Y1531841D01*
X2153331Y1531767D01*
X2153448Y1531689D01*
X2153563Y1531608D01*
X2153676Y1531524D01*
X2153787Y1531437D01*
X2153895Y1531346D01*
X2154000Y1531253D01*
X2154103Y1531156D01*
X2154203Y1531057D01*
X2154300Y1530955D01*
X2154394Y1530850D01*
X2154485Y1530743D01*
X2154573Y1530633D01*
X2154658Y1530521D01*
X2154740Y1530406D01*
X2154819Y1530289D01*
X2154894Y1530170D01*
X2154966Y1530049D01*
X2155034Y1529926D01*
X2155099Y1529801D01*
X2155161Y1529674D01*
X2155218Y1529545D01*
X2155273Y1529415D01*
X2155323Y1529284D01*
X2155370Y1529151D01*
X2155413Y1529017D01*
X2155452Y1528881D01*
X2155487Y1528745D01*
X2155519Y1528608D01*
X2155546Y1528470D01*
X2155570Y1528331D01*
X2155590Y1528191D01*
X2155606Y1528051D01*
X2155618Y1527911D01*
X2155626Y1527770D01*
X2155630Y1527629D01*
X2155630Y1527489D01*
X2155626Y1527348D01*
X2155618Y1527207D01*
X2155606Y1527067D01*
X2155590Y1526927D01*
X2155570Y1526787D01*
X2155546Y1526648D01*
X2155519Y1526510D01*
X2155487Y1526373D01*
X2155452Y1526237D01*
X2155413Y1526101D01*
X2155370Y1525967D01*
X2155323Y1525834D01*
X2155273Y1525703D01*
X2155218Y1525573D01*
X2155161Y1525444D01*
X2155099Y1525317D01*
X2155034Y1525192D01*
X2154966Y1525069D01*
X2154894Y1524948D01*
X2154819Y1524829D01*
X2154740Y1524712D01*
X2154658Y1524597D01*
X2154573Y1524485D01*
X2154485Y1524375D01*
X2154394Y1524268D01*
X2154300Y1524163D01*
X2154203Y1524061D01*
X2154103Y1523962D01*
X2154000Y1523865D01*
X2153895Y1523772D01*
X2153787Y1523681D01*
X2153676Y1523594D01*
X2153563Y1523510D01*
X2153448Y1523429D01*
X2153331Y1523351D01*
X2153211Y1523277D01*
X2153089Y1523206D01*
X2152966Y1523138D01*
X2152840Y1523074D01*
X2152713Y1523014D01*
X2152584Y1522957D01*
X2152454Y1522903D01*
X2152322Y1522854D01*
X2152188Y1522808D01*
X2152054Y1522766D01*
X2151918Y1522728D01*
X2151782Y1522693D01*
X2151644Y1522663D01*
X2151506Y1522636D01*
X2151367Y1522614D01*
X2151227Y1522595D01*
X2151087Y1522580D01*
X2150947Y1522569D01*
X2150806Y1522562D01*
X2150665Y1522559D01*
X2150524Y1522560D01*
X2150384Y1522565D01*
X2150243Y1522574D01*
X2150103Y1522587D01*
X2149963Y1522604D01*
X2149823Y1522624D01*
X2149685Y1522649D01*
X2149547Y1522678D01*
X2149410Y1522710D01*
X2149274Y1522746D01*
X2149139Y1522787D01*
X2149005Y1522831D01*
X2148872Y1522878D01*
X2148741Y1522930D01*
X2148611Y1522985D01*
X2148483Y1523043D01*
X2148357Y1523106D01*
X2148232Y1523171D01*
X2148110Y1523241D01*
X2147989Y1523313D01*
X2147870Y1523389D01*
X2147754Y1523469D01*
X2147640Y1523552D01*
X2147528Y1523637D01*
X2147419Y1523726D01*
X2147312Y1523818D01*
X2147208Y1523913D01*
X2147107Y1524011D01*
X2147008Y1524112D01*
X2146913Y1524215D01*
X2146820Y1524321D01*
X2146730Y1524430D01*
X2146644Y1524541D01*
X2146560Y1524654D01*
X2146480Y1524770D01*
X2146403Y1524888D01*
X2146330Y1525008D01*
X2146259Y1525131D01*
X2146193Y1525255D01*
X2146130Y1525381D01*
X2146070Y1525508D01*
X2146014Y1525637D01*
X2145962Y1525768D01*
X2145913Y1525900D01*
X2145868Y1526034D01*
X2145827Y1526169D01*
X2145790Y1526305D01*
X2145756Y1526441D01*
X2145727Y1526579D01*
X2145701Y1526718D01*
X2145680Y1526857D01*
X2145662Y1526997D01*
X2145648Y1527137D01*
X2145638Y1527277D01*
X2145632Y1527418D01*
X2145630Y1527559D01*
D13*
X2206465Y1397013D02*
X2206465Y1382000D01*
X2198959Y1382000D01*
X2196457Y1384502D01*
X2196457Y1394511D01*
X2198959Y1397013D01*
X2206465Y1397013D01*
X2191733Y1382000D02*
X2181724Y1382000D01*
X2181724Y1392008D02*
X2191733Y1382000D01*
X2181724Y1392008D02*
X2181724Y1394511D01*
X2184226Y1397013D01*
X2189231Y1397013D01*
X2191733Y1394511D01*
D11*
X2006000Y1833094D02*
X2006000Y1866906D01*
X1894000Y1866906D02*
X1894000Y1833094D01*
X1939433Y1818094D02*
X1960567Y1818094D01*
D13*
X1943965Y1764513D02*
X1943965Y1752002D01*
X1941463Y1749500D01*
X1936459Y1749500D01*
X1933957Y1752002D01*
X1933957Y1764513D01*
X1929233Y1759508D02*
X1924228Y1764513D01*
X1924228Y1749500D01*
X1919224Y1749500D02*
X1929233Y1749500D01*
D14*
X1884324Y1560265D02*
X1881321Y1557263D01*
X1884324Y1560265D02*
X1890329Y1560265D01*
X1893331Y1557263D01*
X1893331Y1545252D01*
X1890329Y1542250D01*
X1884324Y1542250D01*
X1881321Y1545252D01*
X1874916Y1554260D02*
X1868911Y1560265D01*
X1868911Y1542250D01*
X1874916Y1542250D02*
X1862906Y1542250D01*
X2004000Y1539750D02*
X2004000Y1557765D01*
X1994992Y1557765D01*
X1991990Y1554763D01*
X1991990Y1548758D01*
X1994992Y1545755D01*
X2004000Y1545755D01*
X1997995Y1545755D02*
X1991990Y1539750D01*
X1985584Y1551760D02*
X1979579Y1557765D01*
X1979579Y1539750D01*
X1985584Y1539750D02*
X1973574Y1539750D01*
X2116500Y1539750D02*
X2116500Y1557765D01*
X2107492Y1557765D01*
X2104490Y1554763D01*
X2104490Y1548758D01*
X2107492Y1545755D01*
X2116500Y1545755D01*
X2110495Y1545755D02*
X2104490Y1539750D01*
X2098084Y1539750D02*
X2086074Y1539750D01*
X2098084Y1539750D02*
X2086074Y1551760D01*
X2086074Y1554763D01*
X2089077Y1557765D01*
X2095082Y1557765D01*
X2098084Y1554763D01*
X2204000Y1557765D02*
X2204000Y1539750D01*
X2204000Y1557765D02*
X2194992Y1557765D01*
X2191990Y1554763D01*
X2191990Y1548758D01*
X2194992Y1545755D01*
X2204000Y1545755D01*
X2197995Y1545755D02*
X2191990Y1539750D01*
X2185584Y1554763D02*
X2182582Y1557765D01*
X2176577Y1557765D01*
X2173574Y1554763D01*
X2173574Y1551760D01*
X2176577Y1548758D01*
X2179579Y1548758D01*
X2176577Y1548758D02*
X2173574Y1545755D01*
X2173574Y1542752D01*
X2176577Y1539750D01*
X2182582Y1539750D01*
X2185584Y1542752D01*
X1916500Y1382765D02*
X1916500Y1364750D01*
X1916500Y1382765D02*
X1907492Y1382765D01*
X1904490Y1379763D01*
X1904490Y1373758D01*
X1907492Y1370755D01*
X1916500Y1370755D01*
X1910495Y1370755D02*
X1904490Y1364750D01*
X1889077Y1364750D02*
X1889077Y1382765D01*
X1898084Y1373758D01*
X1886074Y1373758D01*
M02*
