M48
;GenerationSoftware,Autodesk,EAGLE,9.1.3*%
;CreationDate,2018-09-04T16:18:42Z*%
FMAT,2
ICI,OFF
INCH,TZ,00.0000
T3C0.0160
T2C0.0400
T1C0.0875
%
G90
M72
T1
X32000Y1000
X32000Y23000
X30000Y1000
X3000Y23000
X3000Y1000
X30000Y23000
X1000Y23000
X1000Y1000
T2
X9800Y12550
X8800Y11450
X22200Y11550
X23200Y11450
X24200Y11550
X25200Y11450
X25200Y12450
X24200Y12550
X23200Y12450
X22200Y12550
X7800Y11550
X9800Y11550
X7800Y12550
X8800Y12450
X10800Y11450
X10800Y12450
T3
X22500Y18000
X11500Y13500
X9000Y14750
X18250Y13500
X25250Y13500
X21500Y13500
X10750Y13500
X7500Y13500
X19750Y14750
X17750Y14750
X11000Y14750
X23250Y14750
X20500Y18000
X22500Y14000
X15000Y14000
X11000Y14000
X7000Y14000
X26500Y14000
X24250Y14000
X10000Y14000
M30