G04 EAGLE Gerber X2 export*
%TF.Part,Single*%
%TF.FileFunction,Profile,NP*%
%TF.FilePolarity,Positive*%
%TF.GenerationSoftware,Autodesk,EAGLE,9.1.3*%
%TF.CreationDate,2018-09-04T16:18:43Z*%
G75*
%MOIN*%
%FSLAX36Y36*%
%LPD*%
%AMOC8*
5,1,8,0,0,1.08239X$1,22.5*%
G01*
%ADD10C,0.010000*%


D10*
X0Y0D02*
X3300000Y0D01*
X3300000Y2400000D01*
X0Y2400000D01*
X0Y0D01*
X3174500Y700447D02*
X3174192Y695349D01*
X3173576Y690280D01*
X3172656Y685257D01*
X3171434Y680299D01*
X3169914Y675423D01*
X3168103Y670648D01*
X3166008Y665992D01*
X3163634Y661470D01*
X3160993Y657100D01*
X3158092Y652897D01*
X3154942Y648877D01*
X3151556Y645055D01*
X3147945Y641444D01*
X3144123Y638058D01*
X3140103Y634908D01*
X3135900Y632007D01*
X3131530Y629366D01*
X3127008Y626992D01*
X3122352Y624897D01*
X3117577Y623086D01*
X3112701Y621566D01*
X3107743Y620344D01*
X3102720Y619424D01*
X3097651Y618808D01*
X3092553Y618500D01*
X3087447Y618500D01*
X3082349Y618808D01*
X3077280Y619424D01*
X3072257Y620344D01*
X3067299Y621566D01*
X3062423Y623086D01*
X3057648Y624897D01*
X3052992Y626992D01*
X3048470Y629366D01*
X3044100Y632007D01*
X3039897Y634908D01*
X3035877Y638058D01*
X3032055Y641444D01*
X3028444Y645055D01*
X3025058Y648877D01*
X3021908Y652897D01*
X3019007Y657100D01*
X3016366Y661470D01*
X3013992Y665992D01*
X3011897Y670648D01*
X3010086Y675423D01*
X3008566Y680299D01*
X3007344Y685257D01*
X3006424Y690280D01*
X3005808Y695349D01*
X3005500Y700447D01*
X3005500Y705553D01*
X3005808Y710651D01*
X3006424Y715720D01*
X3007344Y720743D01*
X3008566Y725701D01*
X3010086Y730577D01*
X3011897Y735352D01*
X3013992Y740008D01*
X3016366Y744530D01*
X3019007Y748900D01*
X3021908Y753103D01*
X3025058Y757123D01*
X3028444Y760945D01*
X3032055Y764556D01*
X3035877Y767942D01*
X3039897Y771092D01*
X3044100Y773993D01*
X3048470Y776634D01*
X3052992Y779008D01*
X3057648Y781103D01*
X3062423Y782914D01*
X3067299Y784434D01*
X3072257Y785656D01*
X3077280Y786576D01*
X3082349Y787192D01*
X3087447Y787500D01*
X3092553Y787500D01*
X3097651Y787192D01*
X3102720Y786576D01*
X3107743Y785656D01*
X3112701Y784434D01*
X3117577Y782914D01*
X3122352Y781103D01*
X3127008Y779008D01*
X3131530Y776634D01*
X3135900Y773993D01*
X3140103Y771092D01*
X3144123Y767942D01*
X3147945Y764556D01*
X3151556Y760945D01*
X3154942Y757123D01*
X3158092Y753103D01*
X3160993Y748900D01*
X3163634Y744530D01*
X3166008Y740008D01*
X3168103Y735352D01*
X3169914Y730577D01*
X3171434Y725701D01*
X3172656Y720743D01*
X3173576Y715720D01*
X3174192Y710651D01*
X3174500Y705553D01*
X3174500Y700447D01*
X3174500Y1694447D02*
X3174192Y1689349D01*
X3173576Y1684280D01*
X3172656Y1679257D01*
X3171434Y1674299D01*
X3169914Y1669423D01*
X3168103Y1664648D01*
X3166008Y1659992D01*
X3163634Y1655470D01*
X3160993Y1651100D01*
X3158092Y1646897D01*
X3154942Y1642877D01*
X3151556Y1639055D01*
X3147945Y1635444D01*
X3144123Y1632058D01*
X3140103Y1628908D01*
X3135900Y1626007D01*
X3131530Y1623366D01*
X3127008Y1620992D01*
X3122352Y1618897D01*
X3117577Y1617086D01*
X3112701Y1615566D01*
X3107743Y1614344D01*
X3102720Y1613424D01*
X3097651Y1612808D01*
X3092553Y1612500D01*
X3087447Y1612500D01*
X3082349Y1612808D01*
X3077280Y1613424D01*
X3072257Y1614344D01*
X3067299Y1615566D01*
X3062423Y1617086D01*
X3057648Y1618897D01*
X3052992Y1620992D01*
X3048470Y1623366D01*
X3044100Y1626007D01*
X3039897Y1628908D01*
X3035877Y1632058D01*
X3032055Y1635444D01*
X3028444Y1639055D01*
X3025058Y1642877D01*
X3021908Y1646897D01*
X3019007Y1651100D01*
X3016366Y1655470D01*
X3013992Y1659992D01*
X3011897Y1664648D01*
X3010086Y1669423D01*
X3008566Y1674299D01*
X3007344Y1679257D01*
X3006424Y1684280D01*
X3005808Y1689349D01*
X3005500Y1694447D01*
X3005500Y1699553D01*
X3005808Y1704651D01*
X3006424Y1709720D01*
X3007344Y1714743D01*
X3008566Y1719701D01*
X3010086Y1724577D01*
X3011897Y1729352D01*
X3013992Y1734008D01*
X3016366Y1738530D01*
X3019007Y1742900D01*
X3021908Y1747103D01*
X3025058Y1751123D01*
X3028444Y1754945D01*
X3032055Y1758556D01*
X3035877Y1761942D01*
X3039897Y1765092D01*
X3044100Y1767993D01*
X3048470Y1770634D01*
X3052992Y1773008D01*
X3057648Y1775103D01*
X3062423Y1776914D01*
X3067299Y1778434D01*
X3072257Y1779656D01*
X3077280Y1780576D01*
X3082349Y1781192D01*
X3087447Y1781500D01*
X3092553Y1781500D01*
X3097651Y1781192D01*
X3102720Y1780576D01*
X3107743Y1779656D01*
X3112701Y1778434D01*
X3117577Y1776914D01*
X3122352Y1775103D01*
X3127008Y1773008D01*
X3131530Y1770634D01*
X3135900Y1767993D01*
X3140103Y1765092D01*
X3144123Y1761942D01*
X3147945Y1758556D01*
X3151556Y1754945D01*
X3154942Y1751123D01*
X3158092Y1747103D01*
X3160993Y1742900D01*
X3163634Y1738530D01*
X3166008Y1734008D01*
X3168103Y1729352D01*
X3169914Y1724577D01*
X3171434Y1719701D01*
X3172656Y1714743D01*
X3173576Y1709720D01*
X3174192Y1704651D01*
X3174500Y1699553D01*
X3174500Y1694447D01*
X1734500Y700447D02*
X1734192Y695349D01*
X1733576Y690280D01*
X1732656Y685257D01*
X1731434Y680299D01*
X1729914Y675423D01*
X1728103Y670648D01*
X1726008Y665992D01*
X1723634Y661470D01*
X1720993Y657100D01*
X1718092Y652897D01*
X1714942Y648877D01*
X1711556Y645055D01*
X1707945Y641444D01*
X1704123Y638058D01*
X1700103Y634908D01*
X1695900Y632007D01*
X1691530Y629366D01*
X1687008Y626992D01*
X1682352Y624897D01*
X1677577Y623086D01*
X1672701Y621566D01*
X1667743Y620344D01*
X1662720Y619424D01*
X1657651Y618808D01*
X1652553Y618500D01*
X1647447Y618500D01*
X1642349Y618808D01*
X1637280Y619424D01*
X1632257Y620344D01*
X1627299Y621566D01*
X1622423Y623086D01*
X1617648Y624897D01*
X1612992Y626992D01*
X1608470Y629366D01*
X1604100Y632007D01*
X1599897Y634908D01*
X1595877Y638058D01*
X1592055Y641444D01*
X1588444Y645055D01*
X1585058Y648877D01*
X1581908Y652897D01*
X1579007Y657100D01*
X1576366Y661470D01*
X1573992Y665992D01*
X1571897Y670648D01*
X1570086Y675423D01*
X1568566Y680299D01*
X1567344Y685257D01*
X1566424Y690280D01*
X1565808Y695349D01*
X1565500Y700447D01*
X1565500Y705553D01*
X1565808Y710651D01*
X1566424Y715720D01*
X1567344Y720743D01*
X1568566Y725701D01*
X1570086Y730577D01*
X1571897Y735352D01*
X1573992Y740008D01*
X1576366Y744530D01*
X1579007Y748900D01*
X1581908Y753103D01*
X1585058Y757123D01*
X1588444Y760945D01*
X1592055Y764556D01*
X1595877Y767942D01*
X1599897Y771092D01*
X1604100Y773993D01*
X1608470Y776634D01*
X1612992Y779008D01*
X1617648Y781103D01*
X1622423Y782914D01*
X1627299Y784434D01*
X1632257Y785656D01*
X1637280Y786576D01*
X1642349Y787192D01*
X1647447Y787500D01*
X1652553Y787500D01*
X1657651Y787192D01*
X1662720Y786576D01*
X1667743Y785656D01*
X1672701Y784434D01*
X1677577Y782914D01*
X1682352Y781103D01*
X1687008Y779008D01*
X1691530Y776634D01*
X1695900Y773993D01*
X1700103Y771092D01*
X1704123Y767942D01*
X1707945Y764556D01*
X1711556Y760945D01*
X1714942Y757123D01*
X1718092Y753103D01*
X1720993Y748900D01*
X1723634Y744530D01*
X1726008Y740008D01*
X1728103Y735352D01*
X1729914Y730577D01*
X1731434Y725701D01*
X1732656Y720743D01*
X1733576Y715720D01*
X1734192Y710651D01*
X1734500Y705553D01*
X1734500Y700447D01*
X1734500Y1694447D02*
X1734192Y1689349D01*
X1733576Y1684280D01*
X1732656Y1679257D01*
X1731434Y1674299D01*
X1729914Y1669423D01*
X1728103Y1664648D01*
X1726008Y1659992D01*
X1723634Y1655470D01*
X1720993Y1651100D01*
X1718092Y1646897D01*
X1714942Y1642877D01*
X1711556Y1639055D01*
X1707945Y1635444D01*
X1704123Y1632058D01*
X1700103Y1628908D01*
X1695900Y1626007D01*
X1691530Y1623366D01*
X1687008Y1620992D01*
X1682352Y1618897D01*
X1677577Y1617086D01*
X1672701Y1615566D01*
X1667743Y1614344D01*
X1662720Y1613424D01*
X1657651Y1612808D01*
X1652553Y1612500D01*
X1647447Y1612500D01*
X1642349Y1612808D01*
X1637280Y1613424D01*
X1632257Y1614344D01*
X1627299Y1615566D01*
X1622423Y1617086D01*
X1617648Y1618897D01*
X1612992Y1620992D01*
X1608470Y1623366D01*
X1604100Y1626007D01*
X1599897Y1628908D01*
X1595877Y1632058D01*
X1592055Y1635444D01*
X1588444Y1639055D01*
X1585058Y1642877D01*
X1581908Y1646897D01*
X1579007Y1651100D01*
X1576366Y1655470D01*
X1573992Y1659992D01*
X1571897Y1664648D01*
X1570086Y1669423D01*
X1568566Y1674299D01*
X1567344Y1679257D01*
X1566424Y1684280D01*
X1565808Y1689349D01*
X1565500Y1694447D01*
X1565500Y1699553D01*
X1565808Y1704651D01*
X1566424Y1709720D01*
X1567344Y1714743D01*
X1568566Y1719701D01*
X1570086Y1724577D01*
X1571897Y1729352D01*
X1573992Y1734008D01*
X1576366Y1738530D01*
X1579007Y1742900D01*
X1581908Y1747103D01*
X1585058Y1751123D01*
X1588444Y1754945D01*
X1592055Y1758556D01*
X1595877Y1761942D01*
X1599897Y1765092D01*
X1604100Y1767993D01*
X1608470Y1770634D01*
X1612992Y1773008D01*
X1617648Y1775103D01*
X1622423Y1776914D01*
X1627299Y1778434D01*
X1632257Y1779656D01*
X1637280Y1780576D01*
X1642349Y1781192D01*
X1647447Y1781500D01*
X1652553Y1781500D01*
X1657651Y1781192D01*
X1662720Y1780576D01*
X1667743Y1779656D01*
X1672701Y1778434D01*
X1677577Y1776914D01*
X1682352Y1775103D01*
X1687008Y1773008D01*
X1691530Y1770634D01*
X1695900Y1767993D01*
X1700103Y1765092D01*
X1704123Y1761942D01*
X1707945Y1758556D01*
X1711556Y1754945D01*
X1714942Y1751123D01*
X1718092Y1747103D01*
X1720993Y1742900D01*
X1723634Y1738530D01*
X1726008Y1734008D01*
X1728103Y1729352D01*
X1729914Y1724577D01*
X1731434Y1719701D01*
X1732656Y1714743D01*
X1733576Y1709720D01*
X1734192Y1704651D01*
X1734500Y1699553D01*
X1734500Y1694447D01*
X294500Y700447D02*
X294192Y695349D01*
X293576Y690280D01*
X292656Y685257D01*
X291434Y680299D01*
X289914Y675423D01*
X288103Y670648D01*
X286008Y665992D01*
X283634Y661470D01*
X280993Y657100D01*
X278092Y652897D01*
X274942Y648877D01*
X271556Y645055D01*
X267945Y641444D01*
X264123Y638058D01*
X260103Y634908D01*
X255900Y632007D01*
X251530Y629366D01*
X247008Y626992D01*
X242352Y624897D01*
X237577Y623086D01*
X232701Y621566D01*
X227743Y620344D01*
X222720Y619424D01*
X217651Y618808D01*
X212553Y618500D01*
X207447Y618500D01*
X202349Y618808D01*
X197280Y619424D01*
X192257Y620344D01*
X187299Y621566D01*
X182423Y623086D01*
X177648Y624897D01*
X172992Y626992D01*
X168470Y629366D01*
X164100Y632007D01*
X159897Y634908D01*
X155877Y638058D01*
X152055Y641444D01*
X148444Y645055D01*
X145058Y648877D01*
X141908Y652897D01*
X139007Y657100D01*
X136366Y661470D01*
X133992Y665992D01*
X131897Y670648D01*
X130086Y675423D01*
X128566Y680299D01*
X127344Y685257D01*
X126424Y690280D01*
X125808Y695349D01*
X125500Y700447D01*
X125500Y705553D01*
X125808Y710651D01*
X126424Y715720D01*
X127344Y720743D01*
X128566Y725701D01*
X130086Y730577D01*
X131897Y735352D01*
X133992Y740008D01*
X136366Y744530D01*
X139007Y748900D01*
X141908Y753103D01*
X145058Y757123D01*
X148444Y760945D01*
X152055Y764556D01*
X155877Y767942D01*
X159897Y771092D01*
X164100Y773993D01*
X168470Y776634D01*
X172992Y779008D01*
X177648Y781103D01*
X182423Y782914D01*
X187299Y784434D01*
X192257Y785656D01*
X197280Y786576D01*
X202349Y787192D01*
X207447Y787500D01*
X212553Y787500D01*
X217651Y787192D01*
X222720Y786576D01*
X227743Y785656D01*
X232701Y784434D01*
X237577Y782914D01*
X242352Y781103D01*
X247008Y779008D01*
X251530Y776634D01*
X255900Y773993D01*
X260103Y771092D01*
X264123Y767942D01*
X267945Y764556D01*
X271556Y760945D01*
X274942Y757123D01*
X278092Y753103D01*
X280993Y748900D01*
X283634Y744530D01*
X286008Y740008D01*
X288103Y735352D01*
X289914Y730577D01*
X291434Y725701D01*
X292656Y720743D01*
X293576Y715720D01*
X294192Y710651D01*
X294500Y705553D01*
X294500Y700447D01*
X294500Y1694447D02*
X294192Y1689349D01*
X293576Y1684280D01*
X292656Y1679257D01*
X291434Y1674299D01*
X289914Y1669423D01*
X288103Y1664648D01*
X286008Y1659992D01*
X283634Y1655470D01*
X280993Y1651100D01*
X278092Y1646897D01*
X274942Y1642877D01*
X271556Y1639055D01*
X267945Y1635444D01*
X264123Y1632058D01*
X260103Y1628908D01*
X255900Y1626007D01*
X251530Y1623366D01*
X247008Y1620992D01*
X242352Y1618897D01*
X237577Y1617086D01*
X232701Y1615566D01*
X227743Y1614344D01*
X222720Y1613424D01*
X217651Y1612808D01*
X212553Y1612500D01*
X207447Y1612500D01*
X202349Y1612808D01*
X197280Y1613424D01*
X192257Y1614344D01*
X187299Y1615566D01*
X182423Y1617086D01*
X177648Y1618897D01*
X172992Y1620992D01*
X168470Y1623366D01*
X164100Y1626007D01*
X159897Y1628908D01*
X155877Y1632058D01*
X152055Y1635444D01*
X148444Y1639055D01*
X145058Y1642877D01*
X141908Y1646897D01*
X139007Y1651100D01*
X136366Y1655470D01*
X133992Y1659992D01*
X131897Y1664648D01*
X130086Y1669423D01*
X128566Y1674299D01*
X127344Y1679257D01*
X126424Y1684280D01*
X125808Y1689349D01*
X125500Y1694447D01*
X125500Y1699553D01*
X125808Y1704651D01*
X126424Y1709720D01*
X127344Y1714743D01*
X128566Y1719701D01*
X130086Y1724577D01*
X131897Y1729352D01*
X133992Y1734008D01*
X136366Y1738530D01*
X139007Y1742900D01*
X141908Y1747103D01*
X145058Y1751123D01*
X148444Y1754945D01*
X152055Y1758556D01*
X155877Y1761942D01*
X159897Y1765092D01*
X164100Y1767993D01*
X168470Y1770634D01*
X172992Y1773008D01*
X177648Y1775103D01*
X182423Y1776914D01*
X187299Y1778434D01*
X192257Y1779656D01*
X197280Y1780576D01*
X202349Y1781192D01*
X207447Y1781500D01*
X212553Y1781500D01*
X217651Y1781192D01*
X222720Y1780576D01*
X227743Y1779656D01*
X232701Y1778434D01*
X237577Y1776914D01*
X242352Y1775103D01*
X247008Y1773008D01*
X251530Y1770634D01*
X255900Y1767993D01*
X260103Y1765092D01*
X264123Y1761942D01*
X267945Y1758556D01*
X271556Y1754945D01*
X274942Y1751123D01*
X278092Y1747103D01*
X280993Y1742900D01*
X283634Y1738530D01*
X286008Y1734008D01*
X288103Y1729352D01*
X289914Y1724577D01*
X291434Y1719701D01*
X292656Y1714743D01*
X293576Y1709720D01*
X294192Y1704651D01*
X294500Y1699553D01*
X294500Y1694447D01*
M02*
