G04 EAGLE Gerber X2 export*
%TF.Part,Single*%
%TF.FileFunction,Soldermask,Bot*%
%TF.FilePolarity,Negative*%
%TF.GenerationSoftware,Autodesk,EAGLE,9.1.3*%
%TF.CreationDate,2018-09-04T16:18:44Z*%
G75*
%MOIN*%
%FSLAX36Y36*%
%LPD*%
%AMOC8*
5,1,8,0,0,1.08239X$1,22.5*%
G01*
%ADD10R,0.080000X0.080000*%
%ADD11C,0.080000*%
%ADD12C,0.156000*%
%ADD13C,0.175000*%
%ADD14R,0.045370X0.124110*%
%ADD15R,0.076866X0.265843*%
%ADD16R,0.041433X0.041433*%
%ADD17R,0.027654X0.053244*%
%ADD18R,0.049000X0.045000*%

G36*
X3107054Y2058738D02*
X3107054Y2058738D01*
X3107225Y2058785D01*
X3107483Y2058814D01*
X3114112Y2060590D01*
X3114272Y2060665D01*
X3114522Y2060739D01*
X3120741Y2063639D01*
X3120886Y2063742D01*
X3121119Y2063857D01*
X3126740Y2067794D01*
X3126865Y2067919D01*
X3127074Y2068074D01*
X3131926Y2072926D01*
X3132027Y2073071D01*
X3132206Y2073260D01*
X3136143Y2078881D01*
X3136217Y2079042D01*
X3136361Y2079259D01*
X3139261Y2085478D01*
X3139306Y2085650D01*
X3139410Y2085888D01*
X3141186Y2092517D01*
X3141197Y2092646D01*
X3141232Y2092749D01*
X3141230Y2092814D01*
X3141262Y2092946D01*
X3141860Y2099782D01*
X3141844Y2099959D01*
X3141860Y2100218D01*
X3141262Y2107054D01*
X3141215Y2107225D01*
X3141186Y2107483D01*
X3139410Y2114112D01*
X3139335Y2114272D01*
X3139261Y2114522D01*
X3136361Y2120741D01*
X3136258Y2120886D01*
X3136143Y2121119D01*
X3132206Y2126740D01*
X3132081Y2126865D01*
X3131926Y2127074D01*
X3127074Y2131926D01*
X3126929Y2132027D01*
X3126740Y2132206D01*
X3121119Y2136143D01*
X3120958Y2136217D01*
X3120741Y2136361D01*
X3114522Y2139261D01*
X3114350Y2139306D01*
X3114112Y2139410D01*
X3107483Y2141186D01*
X3107307Y2141201D01*
X3107054Y2141262D01*
X3100218Y2141860D01*
X3100041Y2141844D01*
X3099782Y2141860D01*
X3092946Y2141262D01*
X3092775Y2141215D01*
X3092517Y2141186D01*
X3085888Y2139410D01*
X3085728Y2139335D01*
X3085478Y2139261D01*
X3079259Y2136361D01*
X3079114Y2136258D01*
X3078881Y2136143D01*
X3073260Y2132206D01*
X3073135Y2132081D01*
X3072926Y2131926D01*
X3068074Y2127074D01*
X3067973Y2126929D01*
X3067794Y2126740D01*
X3063857Y2121119D01*
X3063783Y2120958D01*
X3063639Y2120741D01*
X3060739Y2114522D01*
X3060694Y2114350D01*
X3060590Y2114112D01*
X3058814Y2107483D01*
X3058799Y2107307D01*
X3058738Y2107054D01*
X3058140Y2100218D01*
X3058156Y2100041D01*
X3058140Y2099782D01*
X3058738Y2092946D01*
X3058785Y2092775D01*
X3058790Y2092726D01*
X3058794Y2092608D01*
X3058808Y2092574D01*
X3058814Y2092517D01*
X3060590Y2085888D01*
X3060665Y2085728D01*
X3060739Y2085478D01*
X3063639Y2079259D01*
X3063742Y2079114D01*
X3063857Y2078881D01*
X3067794Y2073260D01*
X3067919Y2073135D01*
X3068074Y2072926D01*
X3072926Y2068074D01*
X3073071Y2067973D01*
X3073260Y2067794D01*
X3078881Y2063857D01*
X3079042Y2063783D01*
X3079259Y2063639D01*
X3085478Y2060739D01*
X3085650Y2060694D01*
X3085888Y2060590D01*
X3092517Y2058814D01*
X3092693Y2058799D01*
X3092946Y2058738D01*
X3099782Y2058140D01*
X3099959Y2058156D01*
X3100218Y2058140D01*
X3107054Y2058738D01*
G37*
G36*
X207054Y258738D02*
X207054Y258738D01*
X207225Y258785D01*
X207483Y258814D01*
X214112Y260590D01*
X214272Y260665D01*
X214522Y260739D01*
X220741Y263639D01*
X220886Y263742D01*
X221119Y263857D01*
X226740Y267794D01*
X226865Y267919D01*
X227074Y268074D01*
X231926Y272926D01*
X232027Y273071D01*
X232206Y273260D01*
X236143Y278881D01*
X236217Y279042D01*
X236361Y279259D01*
X239261Y285478D01*
X239306Y285650D01*
X239410Y285888D01*
X241186Y292517D01*
X241197Y292646D01*
X241232Y292749D01*
X241230Y292814D01*
X241262Y292946D01*
X241860Y299782D01*
X241844Y299959D01*
X241860Y300218D01*
X241262Y307054D01*
X241215Y307225D01*
X241186Y307483D01*
X239410Y314112D01*
X239335Y314272D01*
X239261Y314522D01*
X236361Y320741D01*
X236258Y320886D01*
X236143Y321119D01*
X232206Y326740D01*
X232081Y326865D01*
X231926Y327074D01*
X227074Y331926D01*
X226929Y332027D01*
X226740Y332206D01*
X221119Y336143D01*
X220958Y336217D01*
X220741Y336361D01*
X214522Y339261D01*
X214350Y339306D01*
X214112Y339410D01*
X207483Y341186D01*
X207307Y341201D01*
X207054Y341262D01*
X200218Y341860D01*
X200041Y341844D01*
X199782Y341860D01*
X192946Y341262D01*
X192775Y341215D01*
X192517Y341186D01*
X185888Y339410D01*
X185728Y339335D01*
X185478Y339261D01*
X179259Y336361D01*
X179114Y336258D01*
X178881Y336143D01*
X173260Y332206D01*
X173135Y332081D01*
X172926Y331926D01*
X168074Y327074D01*
X167973Y326929D01*
X167794Y326740D01*
X163857Y321119D01*
X163783Y320958D01*
X163639Y320741D01*
X160739Y314522D01*
X160694Y314350D01*
X160590Y314112D01*
X158814Y307483D01*
X158799Y307307D01*
X158738Y307054D01*
X158140Y300218D01*
X158156Y300041D01*
X158140Y299782D01*
X158738Y292946D01*
X158785Y292775D01*
X158790Y292726D01*
X158794Y292608D01*
X158808Y292574D01*
X158814Y292517D01*
X160590Y285888D01*
X160665Y285728D01*
X160739Y285478D01*
X163639Y279259D01*
X163742Y279114D01*
X163857Y278881D01*
X167794Y273260D01*
X167919Y273135D01*
X168074Y272926D01*
X172926Y268074D01*
X173071Y267973D01*
X173260Y267794D01*
X178881Y263857D01*
X179042Y263783D01*
X179259Y263639D01*
X185478Y260739D01*
X185650Y260694D01*
X185888Y260590D01*
X192517Y258814D01*
X192693Y258799D01*
X192946Y258738D01*
X199782Y258140D01*
X199959Y258156D01*
X200218Y258140D01*
X207054Y258738D01*
G37*
D10*
X780000Y1255000D03*
D11*
X880000Y1245000D03*
X980000Y1255000D03*
X1080000Y1245000D03*
D10*
X1080000Y1145000D03*
D11*
X980000Y1155000D03*
X880000Y1145000D03*
X780000Y1155000D03*
D10*
X2220000Y1255000D03*
D11*
X2320000Y1245000D03*
X2420000Y1255000D03*
X2520000Y1245000D03*
D10*
X2520000Y1145000D03*
D11*
X2420000Y1155000D03*
X2320000Y1145000D03*
X2220000Y1155000D03*
D12*
X100000Y100000D03*
X100000Y2300000D03*
X3000000Y2300000D03*
X300000Y100000D03*
X300000Y2300000D03*
X3000000Y100000D03*
D13*
X3090000Y703000D03*
X3090000Y1697000D03*
X1650000Y703000D03*
X1650000Y1697000D03*
X210000Y703000D03*
X210000Y1697000D03*
D12*
X3200000Y2300000D03*
X3200000Y100000D03*
D14*
X931890Y2017087D03*
X1010630Y2017087D03*
X1089370Y2017087D03*
X1168110Y2017087D03*
D15*
X839370Y2257244D03*
X1260630Y2257244D03*
D14*
X1531890Y2017087D03*
X1610630Y2017087D03*
X1689370Y2017087D03*
X1768110Y2017087D03*
D15*
X1439370Y2257244D03*
X1860630Y2257244D03*
D14*
X2131890Y2017087D03*
X2210630Y2017087D03*
X2289370Y2017087D03*
X2368110Y2017087D03*
D15*
X2039370Y2257244D03*
X2460630Y2257244D03*
D16*
X2050000Y1495276D03*
X2050000Y1404724D03*
X2150000Y1495276D03*
X2150000Y1404724D03*
D17*
X1912598Y1901185D03*
X1950000Y1901185D03*
X1987402Y1901185D03*
X1987402Y1798815D03*
X1912598Y1798815D03*
D18*
X1900000Y1658000D03*
X1900000Y1592000D03*
X2000000Y1592000D03*
X2000000Y1658000D03*
X2100000Y1592000D03*
X2100000Y1658000D03*
X2175000Y1592000D03*
X2175000Y1658000D03*
X1900000Y1417000D03*
X1900000Y1483000D03*
M02*
