M48
;GenerationSoftware,Autodesk,EAGLE,9.1.3*%
;CreationDate,2018-09-04T15:39:37Z*%
FMAT,2
ICI,OFF
INCH,TZ,00.0000
T4C0.0160
T3C0.0390
T2C0.0400
T1C0.0875
%
G90
M72
T1
X13000Y1000
X1000Y1000
T2
X7500Y1000
X11500Y5000
X7500Y2000
X7500Y3000
X7500Y4000
X7500Y5000
X6500Y1000
X6500Y2000
X6500Y3000
X5500Y1000
X10500Y1000
X10500Y2000
X10500Y3000
X10500Y4000
X10500Y5000
X2500Y1000
X2500Y2000
X2500Y3000
X2500Y4000
X2500Y5000
X3500Y5000
X3500Y4000
X3500Y3000
X3500Y2000
X3500Y1000
X4500Y5000
X4500Y4000
X4500Y3000
X4500Y2000
X4500Y1000
X5500Y5000
X5500Y4000
X5500Y3000
X5500Y2000
X6500Y4000
X6500Y5000
X11500Y4000
X11500Y3000
X11500Y2000
X11500Y1000
X9500Y5000
X9500Y4000
X9500Y3000
X9500Y2000
X9500Y1000
X8500Y5000
X8500Y4000
X8500Y3000
X8500Y2000
X8500Y1000
T3
X13000Y9000
X1000Y8000
X1000Y10000
X1000Y7000
X13000Y11000
X13000Y8000
X1000Y9000
X1000Y11000
X13000Y10000
X13000Y7000
T4
X9500Y9750
X10625Y9750
X2000Y5750
X12125Y8750
X8000Y7750
X1625Y8000
X6625Y10625
X4750Y9625
X7125Y11000
X6000Y5750
M30