G04 EAGLE Gerber X2 export*
%TF.Part,Single*%
%TF.FileFunction,Soldermask,Bot*%
%TF.FilePolarity,Negative*%
%TF.GenerationSoftware,Autodesk,EAGLE,9.1.3*%
%TF.CreationDate,2018-09-04T15:39:37Z*%
G75*
%MOIN*%
%FSLAX36Y36*%
%LPD*%
%AMOC8*
5,1,8,0,0,1.08239X$1,22.5*%
G01*
%ADD10C,0.156000*%
%ADD11C,0.064500*%
%ADD12C,0.080000*%
%ADD13R,0.066000X0.106000*%
%ADD14R,0.053244X0.027654*%
%ADD15R,0.056000X0.031000*%

G36*
X957054Y1033738D02*
X957054Y1033738D01*
X957225Y1033785D01*
X957483Y1033814D01*
X964112Y1035590D01*
X964272Y1035665D01*
X964522Y1035739D01*
X970741Y1038639D01*
X970886Y1038742D01*
X971119Y1038857D01*
X976740Y1042794D01*
X976865Y1042919D01*
X977074Y1043074D01*
X981926Y1047926D01*
X982027Y1048071D01*
X982206Y1048260D01*
X986143Y1053881D01*
X986217Y1054042D01*
X986361Y1054259D01*
X989261Y1060478D01*
X989306Y1060650D01*
X989410Y1060888D01*
X991186Y1067517D01*
X991197Y1067646D01*
X991232Y1067749D01*
X991230Y1067814D01*
X991262Y1067946D01*
X991860Y1074782D01*
X991844Y1074959D01*
X991860Y1075218D01*
X991262Y1082054D01*
X991215Y1082225D01*
X991186Y1082483D01*
X989410Y1089112D01*
X989335Y1089272D01*
X989261Y1089522D01*
X986361Y1095741D01*
X986258Y1095886D01*
X986143Y1096119D01*
X982206Y1101740D01*
X982081Y1101865D01*
X981926Y1102074D01*
X977074Y1106926D01*
X976929Y1107027D01*
X976740Y1107206D01*
X971119Y1111143D01*
X970958Y1111217D01*
X970741Y1111361D01*
X964522Y1114261D01*
X964350Y1114306D01*
X964112Y1114410D01*
X957483Y1116186D01*
X957307Y1116201D01*
X957054Y1116262D01*
X950218Y1116860D01*
X950041Y1116844D01*
X949782Y1116860D01*
X942946Y1116262D01*
X942775Y1116215D01*
X942517Y1116186D01*
X935888Y1114410D01*
X935728Y1114335D01*
X935478Y1114261D01*
X929259Y1111361D01*
X929114Y1111258D01*
X928881Y1111143D01*
X923260Y1107206D01*
X923135Y1107081D01*
X922926Y1106926D01*
X918074Y1102074D01*
X917973Y1101929D01*
X917794Y1101740D01*
X913857Y1096119D01*
X913783Y1095958D01*
X913639Y1095741D01*
X910739Y1089522D01*
X910694Y1089350D01*
X910590Y1089112D01*
X908814Y1082483D01*
X908799Y1082307D01*
X908738Y1082054D01*
X908140Y1075218D01*
X908156Y1075041D01*
X908140Y1074782D01*
X908738Y1067946D01*
X908785Y1067775D01*
X908790Y1067726D01*
X908794Y1067608D01*
X908808Y1067574D01*
X908814Y1067517D01*
X910590Y1060888D01*
X910665Y1060728D01*
X910739Y1060478D01*
X913639Y1054259D01*
X913742Y1054114D01*
X913857Y1053881D01*
X917794Y1048260D01*
X917919Y1048135D01*
X918074Y1047926D01*
X922926Y1043074D01*
X923071Y1042973D01*
X923260Y1042794D01*
X928881Y1038857D01*
X929042Y1038783D01*
X929259Y1038639D01*
X935478Y1035739D01*
X935650Y1035694D01*
X935888Y1035590D01*
X942517Y1033814D01*
X942693Y1033799D01*
X942946Y1033738D01*
X949782Y1033140D01*
X949959Y1033156D01*
X950218Y1033140D01*
X957054Y1033738D01*
G37*
G36*
X182054Y408738D02*
X182054Y408738D01*
X182225Y408785D01*
X182483Y408814D01*
X189112Y410590D01*
X189272Y410665D01*
X189522Y410739D01*
X195741Y413639D01*
X195886Y413742D01*
X196119Y413857D01*
X201740Y417794D01*
X201865Y417919D01*
X202074Y418074D01*
X206926Y422926D01*
X207027Y423071D01*
X207206Y423260D01*
X211143Y428881D01*
X211217Y429042D01*
X211361Y429259D01*
X214261Y435478D01*
X214306Y435650D01*
X214410Y435888D01*
X216186Y442517D01*
X216197Y442646D01*
X216232Y442749D01*
X216230Y442814D01*
X216262Y442946D01*
X216860Y449782D01*
X216844Y449959D01*
X216860Y450218D01*
X216262Y457054D01*
X216215Y457225D01*
X216186Y457483D01*
X214410Y464112D01*
X214335Y464272D01*
X214261Y464522D01*
X211361Y470741D01*
X211258Y470886D01*
X211143Y471119D01*
X207206Y476740D01*
X207081Y476865D01*
X206926Y477074D01*
X202074Y481926D01*
X201929Y482027D01*
X201740Y482206D01*
X196119Y486143D01*
X195958Y486217D01*
X195741Y486361D01*
X189522Y489261D01*
X189350Y489306D01*
X189112Y489410D01*
X182483Y491186D01*
X182307Y491201D01*
X182054Y491262D01*
X175218Y491860D01*
X175041Y491844D01*
X174782Y491860D01*
X167946Y491262D01*
X167775Y491215D01*
X167517Y491186D01*
X160888Y489410D01*
X160728Y489335D01*
X160478Y489261D01*
X154259Y486361D01*
X154114Y486258D01*
X153881Y486143D01*
X148260Y482206D01*
X148135Y482081D01*
X147926Y481926D01*
X143074Y477074D01*
X142973Y476929D01*
X142794Y476740D01*
X138857Y471119D01*
X138783Y470958D01*
X138639Y470741D01*
X135739Y464522D01*
X135694Y464350D01*
X135590Y464112D01*
X133814Y457483D01*
X133799Y457307D01*
X133738Y457054D01*
X133140Y450218D01*
X133156Y450041D01*
X133140Y449782D01*
X133738Y442946D01*
X133785Y442775D01*
X133790Y442726D01*
X133794Y442608D01*
X133808Y442574D01*
X133814Y442517D01*
X135590Y435888D01*
X135665Y435728D01*
X135739Y435478D01*
X138639Y429259D01*
X138742Y429114D01*
X138857Y428881D01*
X142794Y423260D01*
X142919Y423135D01*
X143074Y422926D01*
X147926Y418074D01*
X148071Y417973D01*
X148260Y417794D01*
X153881Y413857D01*
X154042Y413783D01*
X154259Y413639D01*
X160478Y410739D01*
X160650Y410694D01*
X160888Y410590D01*
X167517Y408814D01*
X167693Y408799D01*
X167946Y408738D01*
X174782Y408140D01*
X174959Y408156D01*
X175218Y408140D01*
X182054Y408738D01*
G37*
D10*
X100000Y100000D03*
X1300000Y100000D03*
D11*
X1300000Y700000D03*
X1300000Y1000000D03*
X100000Y1100000D03*
X100000Y900000D03*
X1300000Y800000D03*
X1300000Y1100000D03*
X100000Y700000D03*
X100000Y1000000D03*
X100000Y800000D03*
X1300000Y900000D03*
D12*
X350000Y500000D03*
X350000Y400000D03*
X350000Y300000D03*
X350000Y200000D03*
X350000Y100000D03*
X450000Y500000D03*
X450000Y400000D03*
X450000Y300000D03*
X450000Y200000D03*
X450000Y100000D03*
X550000Y500000D03*
X550000Y400000D03*
X550000Y300000D03*
X550000Y200000D03*
X550000Y100000D03*
X1150000Y500000D03*
X1150000Y400000D03*
X1150000Y300000D03*
X1150000Y200000D03*
X1150000Y100000D03*
X950000Y500000D03*
X950000Y400000D03*
X950000Y300000D03*
X950000Y200000D03*
X950000Y100000D03*
X850000Y500000D03*
X850000Y400000D03*
X850000Y300000D03*
X850000Y200000D03*
X850000Y100000D03*
X250000Y500000D03*
X250000Y400000D03*
X250000Y300000D03*
X250000Y200000D03*
X250000Y100000D03*
X1050000Y500000D03*
X1050000Y400000D03*
X1050000Y300000D03*
X1050000Y200000D03*
X1050000Y100000D03*
X650000Y500000D03*
X650000Y400000D03*
X650000Y300000D03*
X650000Y200000D03*
X650000Y100000D03*
X750000Y500000D03*
X750000Y400000D03*
X750000Y300000D03*
X750000Y200000D03*
X750000Y100000D03*
D13*
X850000Y975000D03*
X850000Y675000D03*
X750000Y975000D03*
X750000Y675000D03*
X650000Y975000D03*
X650000Y675000D03*
X550000Y975000D03*
X550000Y675000D03*
D14*
X1176185Y812402D03*
X1176185Y775000D03*
X1176185Y737598D03*
X1073815Y737598D03*
X1073815Y812402D03*
D15*
X975000Y792717D03*
X975000Y757283D03*
M02*
