G04 EAGLE Gerber X2 export*
%TF.Part,Single*%
%TF.FileFunction,Copper,L1,Top,Mixed*%
%TF.FilePolarity,Positive*%
%TF.GenerationSoftware,Autodesk,EAGLE,9.1.3*%
%TF.CreationDate,2018-09-04T15:39:37Z*%
G75*
%MOIN*%
%FSLAX36Y36*%
%LPD*%
%AMOC8*
5,1,8,0,0,1.08239X$1,22.5*%
G01*
%ADD10C,0.150000*%
%ADD11C,0.058500*%
%ADD12R,0.043000X0.039000*%
%ADD13R,0.055000X0.059000*%
%ADD14C,0.074000*%
%ADD15R,0.039000X0.043000*%
%ADD16C,0.039370*%
%ADD17R,0.035000X0.020000*%
%ADD18C,0.010000*%
%ADD19C,0.030000*%
%ADD20C,0.008000*%
%ADD21C,0.040000*%


D10*
X100000Y100000D03*
X1300000Y100000D03*
D11*
X1300000Y700000D03*
X1300000Y1000000D03*
X100000Y1100000D03*
X100000Y900000D03*
X1300000Y800000D03*
X1300000Y1100000D03*
X100000Y700000D03*
X100000Y1000000D03*
X100000Y800000D03*
X1300000Y900000D03*
D12*
X212500Y692000D03*
X212500Y758000D03*
D13*
X212500Y945000D03*
X212500Y855000D03*
D14*
X350000Y500000D03*
X350000Y400000D03*
X350000Y300000D03*
X350000Y200000D03*
X350000Y100000D03*
X450000Y500000D03*
X450000Y400000D03*
X450000Y300000D03*
X450000Y200000D03*
X450000Y100000D03*
X550000Y500000D03*
X550000Y400000D03*
X550000Y300000D03*
X550000Y200000D03*
X550000Y100000D03*
X1150000Y500000D03*
X1150000Y400000D03*
X1150000Y300000D03*
X1150000Y200000D03*
X1150000Y100000D03*
X950000Y500000D03*
X950000Y400000D03*
X950000Y300000D03*
X950000Y200000D03*
X950000Y100000D03*
X850000Y500000D03*
X850000Y400000D03*
X850000Y300000D03*
X850000Y200000D03*
X850000Y100000D03*
X250000Y500000D03*
X250000Y400000D03*
X250000Y300000D03*
X250000Y200000D03*
X250000Y100000D03*
X1050000Y500000D03*
X1050000Y400000D03*
X1050000Y300000D03*
X1050000Y200000D03*
X1050000Y100000D03*
X650000Y500000D03*
X650000Y400000D03*
X650000Y300000D03*
X650000Y200000D03*
X650000Y100000D03*
X750000Y500000D03*
X750000Y400000D03*
X750000Y300000D03*
X750000Y200000D03*
X750000Y100000D03*
D15*
X720500Y737500D03*
X654500Y737500D03*
D12*
X287500Y758000D03*
X287500Y692000D03*
X1075000Y758000D03*
X1075000Y692000D03*
X437500Y758000D03*
X437500Y692000D03*
X1150000Y758000D03*
X1150000Y692000D03*
X975000Y758000D03*
X975000Y692000D03*
X362500Y758000D03*
X362500Y692000D03*
D16*
X1237500Y237500D03*
X175000Y450000D03*
D17*
X800000Y825000D03*
X800000Y875000D03*
X800000Y925000D03*
X800000Y975000D03*
X800000Y1025000D03*
X800000Y1075000D03*
X800000Y1125000D03*
X575000Y1125000D03*
X575000Y1075000D03*
X575000Y1025000D03*
X575000Y975000D03*
X575000Y925000D03*
X575000Y875000D03*
X575000Y825000D03*
D12*
X450000Y1017000D03*
X450000Y1083000D03*
X950000Y1054500D03*
X950000Y1120500D03*
X512500Y758000D03*
X512500Y692000D03*
X875000Y758000D03*
X875000Y692000D03*
D18*
X654500Y737500D02*
X600000Y737500D01*
X575000Y762500D02*
X575000Y825000D01*
X575000Y762500D02*
X600000Y737500D01*
D19*
X600000Y575000D03*
X200000Y575000D03*
D20*
X654500Y737500D02*
X658957Y736043D01*
D18*
X212500Y692000D02*
X212500Y650000D01*
X200000Y637500D01*
X200000Y575000D01*
D20*
X658957Y633957D02*
X658957Y736043D01*
X658957Y633957D02*
X600000Y575000D01*
X1237500Y800000D02*
X1300000Y800000D01*
D18*
X1237500Y800000D02*
X1062500Y975000D01*
D19*
X1062500Y975000D03*
X950000Y975000D03*
D18*
X800000Y975000D01*
X250000Y637500D02*
X250000Y500000D01*
X250000Y637500D02*
X287500Y675000D01*
D20*
X287500Y692000D01*
D18*
X1075000Y692000D02*
X1075000Y650000D01*
X1050000Y625000D01*
X1050000Y500000D01*
X450000Y500000D02*
X450000Y687500D01*
D20*
X437500Y700000D01*
X437500Y692000D01*
D18*
X1150000Y692000D02*
X1150000Y500000D01*
X975000Y650000D02*
X975000Y692000D01*
X975000Y650000D02*
X950000Y625000D01*
X950000Y500000D01*
X350000Y500000D02*
X350000Y675000D01*
D20*
X362500Y687500D01*
X362500Y692000D01*
D18*
X650000Y1025000D02*
X800000Y1025000D01*
X650000Y1025000D02*
X625000Y1050000D01*
X537500Y1050000D01*
X525000Y1037500D01*
X525000Y975000D01*
X362500Y812500D01*
X337500Y812500D01*
X287500Y762500D01*
D20*
X287500Y758000D01*
D18*
X800000Y925000D02*
X975000Y925000D01*
D20*
X1075000Y825000D02*
X1075000Y758000D01*
D18*
X1075000Y825000D02*
X1050000Y850000D01*
X975000Y925000D01*
X437500Y812500D02*
X437500Y758000D01*
X437500Y812500D02*
X550000Y925000D01*
X575000Y925000D01*
X800000Y1075000D02*
X837500Y1075000D01*
X900000Y1012500D01*
X975000Y1012500D01*
X1150000Y837500D02*
X1150000Y758000D01*
X1150000Y837500D02*
X975000Y1012500D01*
X950000Y1050000D02*
X950000Y1054500D01*
X950000Y1050000D02*
X946457Y1046457D01*
X916043Y1046457D01*
X862500Y1100000D01*
X712500Y1100000D01*
D19*
X712500Y1100000D03*
X475000Y962500D03*
D18*
X475000Y996457D01*
X450000Y1017000D01*
X425000Y1025000D02*
X387500Y987500D01*
X425000Y1025000D02*
X446457Y1025000D01*
D20*
X450000Y1017000D01*
D18*
X100000Y925000D02*
X100000Y900000D01*
X100000Y925000D02*
X162500Y987500D01*
X387500Y987500D01*
D20*
X562500Y975000D02*
X575000Y975000D01*
D18*
X562500Y975000D02*
X362500Y775000D01*
D20*
X362500Y758000D01*
D18*
X800000Y875000D02*
X925000Y875000D01*
X975000Y825000D02*
X975000Y758000D01*
X975000Y825000D02*
X925000Y875000D01*
X928543Y1125000D02*
X800000Y1125000D01*
X928543Y1125000D02*
X950000Y1120500D01*
X575000Y1075000D02*
X466043Y1075000D01*
D20*
X450000Y1083000D01*
X449827Y1078543D01*
D19*
X662500Y1062500D03*
D18*
X662500Y1112500D01*
X650000Y1125000D01*
X575000Y1125000D01*
X125000Y700000D02*
X100000Y700000D01*
X125000Y700000D02*
X162500Y737500D01*
X162500Y800000D01*
X162500Y937500D01*
D19*
X162500Y800000D03*
D18*
X162500Y937500D02*
X175000Y950000D01*
X207500Y950000D01*
D20*
X212500Y945000D01*
D18*
X512500Y862500D02*
X512500Y758000D01*
X512500Y862500D02*
X550000Y900000D01*
X600000Y900000D01*
X625000Y925000D01*
X625000Y1000000D01*
X600000Y1025000D01*
X575000Y1025000D01*
X512500Y692000D02*
X512500Y675000D01*
X550000Y637500D01*
X550000Y500000D01*
X575000Y875000D02*
X725000Y875000D01*
X750000Y850000D01*
X850000Y850000D01*
X875000Y825000D01*
X875000Y758000D01*
X875000Y692000D02*
X875000Y650000D01*
X850000Y625000D01*
X850000Y500000D01*
X212500Y758000D02*
X212500Y855000D01*
D19*
X800000Y775000D03*
D18*
X800000Y825000D01*
X775000Y825000D01*
X725000Y775000D01*
D21*
X650000Y525000D02*
X650000Y500000D01*
X650000Y525000D02*
X800000Y675000D01*
X800000Y775000D01*
D18*
X725000Y775000D02*
X725000Y742000D01*
D20*
X720500Y737500D01*
D19*
X1212500Y875000D03*
D18*
X1212500Y1012500D01*
X1300000Y1100000D01*
M02*
