G04 EAGLE Gerber X2 export*
%TF.Part,Single*%
%TF.FileFunction,Copper,L2,Bot,Mixed*%
%TF.FilePolarity,Positive*%
%TF.GenerationSoftware,Autodesk,EAGLE,9.1.3*%
%TF.CreationDate,2018-09-04T15:39:37Z*%
G75*
%MOIN*%
%FSLAX36Y36*%
%LPD*%
%AMOC8*
5,1,8,0,0,1.08239X$1,22.5*%
G01*
%ADD10C,0.150000*%
%ADD11C,0.058500*%
%ADD12C,0.074000*%
%ADD13R,0.060000X0.100000*%
%ADD14C,0.039370*%
%ADD15R,0.047244X0.021654*%
%ADD16R,0.050000X0.025000*%
%ADD17C,0.008000*%
%ADD18C,0.040000*%
%ADD19C,0.010000*%
%ADD20C,0.016000*%
%ADD21C,0.030000*%


D10*
X100000Y100000D03*
X1300000Y100000D03*
D11*
X1300000Y700000D03*
X1300000Y1000000D03*
X100000Y1100000D03*
X100000Y900000D03*
X1300000Y800000D03*
X1300000Y1100000D03*
X100000Y700000D03*
X100000Y1000000D03*
X100000Y800000D03*
X1300000Y900000D03*
D12*
X350000Y500000D03*
X350000Y400000D03*
X350000Y300000D03*
X350000Y200000D03*
X350000Y100000D03*
X450000Y500000D03*
X450000Y400000D03*
X450000Y300000D03*
X450000Y200000D03*
X450000Y100000D03*
X550000Y500000D03*
X550000Y400000D03*
X550000Y300000D03*
X550000Y200000D03*
X550000Y100000D03*
X1150000Y500000D03*
X1150000Y400000D03*
X1150000Y300000D03*
X1150000Y200000D03*
X1150000Y100000D03*
X950000Y500000D03*
X950000Y400000D03*
X950000Y300000D03*
X950000Y200000D03*
X950000Y100000D03*
X850000Y500000D03*
X850000Y400000D03*
X850000Y300000D03*
X850000Y200000D03*
X850000Y100000D03*
X250000Y500000D03*
X250000Y400000D03*
X250000Y300000D03*
X250000Y200000D03*
X250000Y100000D03*
X1050000Y500000D03*
X1050000Y400000D03*
X1050000Y300000D03*
X1050000Y200000D03*
X1050000Y100000D03*
X650000Y500000D03*
X650000Y400000D03*
X650000Y300000D03*
X650000Y200000D03*
X650000Y100000D03*
X750000Y500000D03*
X750000Y400000D03*
X750000Y300000D03*
X750000Y200000D03*
X750000Y100000D03*
D13*
X850000Y975000D03*
X850000Y675000D03*
X750000Y975000D03*
X750000Y675000D03*
X650000Y975000D03*
X650000Y675000D03*
X550000Y975000D03*
X550000Y675000D03*
D14*
X950000Y1075000D03*
X175000Y450000D03*
D15*
X1176185Y812402D03*
X1176185Y775000D03*
X1176185Y737598D03*
X1073815Y737598D03*
X1073815Y812402D03*
D16*
X975000Y792717D03*
X975000Y757283D03*
D17*
X650000Y962500D02*
X650000Y975000D01*
X650000Y725000D02*
X650000Y700000D01*
X650000Y675000D01*
X637500Y687500D01*
D18*
X1237500Y937500D02*
X1300000Y1000000D01*
X1237500Y937500D02*
X1225000Y925000D01*
X1175000Y925000D01*
X975000Y925000D01*
X950000Y925000D01*
X900000Y875000D01*
X650000Y875000D01*
X650000Y700000D01*
X650000Y875000D02*
X650000Y975000D01*
D17*
X1175000Y925000D02*
X1176185Y923815D01*
D19*
X1176185Y737598D02*
X1137402Y737598D01*
X1125000Y750000D01*
X1125000Y800000D01*
X1137500Y812500D01*
X1151087Y812500D01*
D17*
X1176185Y812402D01*
D20*
X975000Y792717D02*
X975000Y925000D01*
D19*
X1176185Y812402D02*
X1237402Y812402D01*
X1250000Y825000D01*
X1250000Y925000D01*
D17*
X1237500Y937500D01*
D18*
X850000Y675000D02*
X850000Y600000D01*
X825000Y575000D01*
X775000Y575000D01*
X750000Y550000D01*
X750000Y500000D01*
D17*
X850000Y675000D02*
X850000Y700000D01*
D18*
X1237500Y650000D02*
X1300000Y700000D01*
X1237500Y650000D02*
X862500Y650000D01*
X850000Y662500D01*
X850000Y700000D01*
D21*
X600000Y575000D03*
D19*
X200000Y575000D01*
D21*
X200000Y575000D03*
D19*
X1176185Y775000D02*
X1225000Y775000D01*
X1237500Y762500D01*
X1237500Y650000D01*
X750000Y550000D02*
X725000Y575000D01*
X600000Y575000D01*
D21*
X1062500Y975000D03*
D19*
X950000Y975000D01*
D21*
X950000Y975000D03*
D19*
X362500Y987500D02*
X112500Y987500D01*
X362500Y987500D02*
X475000Y1100000D01*
D21*
X712500Y1100000D03*
D19*
X725000Y1100000D01*
X750000Y1075000D01*
X750000Y975000D01*
X712500Y1100000D02*
X475000Y1100000D01*
X112500Y987500D02*
X100000Y1000000D01*
X100000Y1100000D01*
D17*
X537500Y962500D02*
X550000Y975000D01*
D19*
X537500Y962500D02*
X475000Y962500D01*
D21*
X475000Y962500D03*
D17*
X550000Y975000D02*
X550000Y675000D01*
X550000Y975000D02*
X550000Y1025000D01*
D19*
X100000Y900000D02*
X100000Y800000D01*
X162500Y800000D02*
X225000Y800000D01*
X500000Y1075000D01*
X650000Y1075000D01*
X662500Y1062500D01*
D21*
X662500Y1062500D03*
X162500Y800000D03*
D19*
X975000Y757283D02*
X1020197Y758783D01*
X1073815Y812402D01*
D21*
X800000Y775000D03*
D20*
X812500Y762500D01*
X962500Y762500D01*
X975000Y757283D01*
D17*
X1073815Y812402D02*
X1073815Y848815D01*
D19*
X1100000Y875000D01*
X1212500Y875000D01*
D21*
X1212500Y875000D03*
M02*
