G75*
%MOIN*%
%OFA0B0*%
%FSLAX24Y24*%
%IPPOS*%
%LPD*%
%AMOC8*
5,1,8,0,0,1.08239X$1,22.5*
%
%ADD10C,0.0050*%
%ADD11C,0.0000*%
D10*
X000500Y000500D02*
X000500Y010500D01*
X023500Y010500D01*
X023500Y000500D01*
X000500Y000500D01*
D11*
X001000Y001750D02*
X001002Y001804D01*
X001008Y001858D01*
X001018Y001911D01*
X001031Y001964D01*
X001048Y002015D01*
X001069Y002065D01*
X001094Y002113D01*
X001122Y002160D01*
X001153Y002204D01*
X001187Y002246D01*
X001224Y002285D01*
X001264Y002322D01*
X001307Y002355D01*
X001352Y002386D01*
X001399Y002413D01*
X001447Y002436D01*
X001498Y002456D01*
X001549Y002473D01*
X001602Y002485D01*
X001655Y002494D01*
X001709Y002499D01*
X001764Y002500D01*
X001818Y002497D01*
X001871Y002490D01*
X001924Y002479D01*
X001977Y002465D01*
X002028Y002447D01*
X002077Y002425D01*
X002125Y002400D01*
X002171Y002371D01*
X002215Y002339D01*
X002256Y002304D01*
X002294Y002266D01*
X002330Y002225D01*
X002363Y002182D01*
X002393Y002137D01*
X002419Y002089D01*
X002442Y002040D01*
X002461Y001989D01*
X002476Y001938D01*
X002488Y001885D01*
X002496Y001831D01*
X002500Y001777D01*
X002500Y001723D01*
X002496Y001669D01*
X002488Y001615D01*
X002476Y001562D01*
X002461Y001511D01*
X002442Y001460D01*
X002419Y001411D01*
X002393Y001363D01*
X002363Y001318D01*
X002330Y001275D01*
X002294Y001234D01*
X002256Y001196D01*
X002215Y001161D01*
X002171Y001129D01*
X002125Y001100D01*
X002077Y001075D01*
X002028Y001053D01*
X001977Y001035D01*
X001924Y001021D01*
X001871Y001010D01*
X001818Y001003D01*
X001764Y001000D01*
X001709Y001001D01*
X001655Y001006D01*
X001602Y001015D01*
X001549Y001027D01*
X001498Y001044D01*
X001447Y001064D01*
X001399Y001087D01*
X001352Y001114D01*
X001307Y001145D01*
X001264Y001178D01*
X001224Y001215D01*
X001187Y001254D01*
X001153Y001296D01*
X001122Y001340D01*
X001094Y001387D01*
X001069Y001435D01*
X001048Y001485D01*
X001031Y001536D01*
X001018Y001589D01*
X001008Y001642D01*
X001002Y001696D01*
X001000Y001750D01*
X021500Y009250D02*
X021502Y009304D01*
X021508Y009358D01*
X021518Y009411D01*
X021531Y009464D01*
X021548Y009515D01*
X021569Y009565D01*
X021594Y009613D01*
X021622Y009660D01*
X021653Y009704D01*
X021687Y009746D01*
X021724Y009785D01*
X021764Y009822D01*
X021807Y009855D01*
X021852Y009886D01*
X021899Y009913D01*
X021947Y009936D01*
X021998Y009956D01*
X022049Y009973D01*
X022102Y009985D01*
X022155Y009994D01*
X022209Y009999D01*
X022264Y010000D01*
X022318Y009997D01*
X022371Y009990D01*
X022424Y009979D01*
X022477Y009965D01*
X022528Y009947D01*
X022577Y009925D01*
X022625Y009900D01*
X022671Y009871D01*
X022715Y009839D01*
X022756Y009804D01*
X022794Y009766D01*
X022830Y009725D01*
X022863Y009682D01*
X022893Y009637D01*
X022919Y009589D01*
X022942Y009540D01*
X022961Y009489D01*
X022976Y009438D01*
X022988Y009385D01*
X022996Y009331D01*
X023000Y009277D01*
X023000Y009223D01*
X022996Y009169D01*
X022988Y009115D01*
X022976Y009062D01*
X022961Y009011D01*
X022942Y008960D01*
X022919Y008911D01*
X022893Y008863D01*
X022863Y008818D01*
X022830Y008775D01*
X022794Y008734D01*
X022756Y008696D01*
X022715Y008661D01*
X022671Y008629D01*
X022625Y008600D01*
X022577Y008575D01*
X022528Y008553D01*
X022477Y008535D01*
X022424Y008521D01*
X022371Y008510D01*
X022318Y008503D01*
X022264Y008500D01*
X022209Y008501D01*
X022155Y008506D01*
X022102Y008515D01*
X022049Y008527D01*
X021998Y008544D01*
X021947Y008564D01*
X021899Y008587D01*
X021852Y008614D01*
X021807Y008645D01*
X021764Y008678D01*
X021724Y008715D01*
X021687Y008754D01*
X021653Y008796D01*
X021622Y008840D01*
X021594Y008887D01*
X021569Y008935D01*
X021548Y008985D01*
X021531Y009036D01*
X021518Y009089D01*
X021508Y009142D01*
X021502Y009196D01*
X021500Y009250D01*
M02*
