G75*
%MOIN*%
%OFA0B0*%
%FSLAX24Y24*%
%IPPOS*%
%LPD*%
%AMOC8*
5,1,8,0,0,1.08239X$1,22.5*
%
%ADD10C,0.0700*%
%ADD11OC8,0.0700*%
%ADD12C,0.0460*%
%ADD13C,0.0500*%
%ADD14C,0.0120*%
%ADD15C,0.0660*%
D10*
X005500Y001500D03*
X006500Y001500D03*
X007500Y001500D03*
X008500Y001500D03*
X009500Y001500D03*
X010500Y001500D03*
X011500Y001500D03*
X012500Y001500D03*
X013500Y001500D03*
X014500Y001500D03*
X015500Y001500D03*
X016500Y001500D03*
X016500Y002500D03*
X015500Y002500D03*
X014500Y002500D03*
X013500Y002500D03*
X012500Y002500D03*
X011500Y002500D03*
X010500Y002500D03*
X009500Y002500D03*
X008500Y002500D03*
X007500Y002500D03*
X006500Y002500D03*
X005500Y002500D03*
X005500Y009500D03*
X006500Y009500D03*
X007500Y009500D03*
X008500Y009500D03*
X009500Y009500D03*
X010500Y009500D03*
X011500Y009500D03*
X012500Y009500D03*
X013500Y009500D03*
X014500Y009500D03*
X015500Y009500D03*
X016500Y009500D03*
D11*
X018500Y009500D03*
X018500Y008500D03*
X018500Y007500D03*
X018500Y006500D03*
X018500Y005500D03*
X018500Y004500D03*
X018500Y003500D03*
X018500Y002500D03*
X018500Y001500D03*
D12*
X004500Y007000D03*
X002500Y006500D03*
X001500Y005250D03*
X003500Y005250D03*
D13*
X005750Y005250D01*
X006500Y004500D01*
X006500Y002500D01*
X005500Y002500D02*
X005500Y003250D01*
X004750Y004000D01*
X001500Y004000D01*
X001500Y005250D01*
D14*
X002500Y006500D02*
X015500Y006500D01*
X016500Y007500D01*
X016500Y009500D01*
X015500Y009500D02*
X015500Y007750D01*
X014750Y007000D01*
X004500Y007000D01*
D15*
X019500Y006500D03*
X020500Y006500D03*
X021500Y006500D03*
X022500Y006500D03*
X022500Y007500D03*
X021500Y007500D03*
X020500Y007500D03*
X019500Y007500D03*
X019500Y008500D03*
X020500Y008500D03*
X020500Y009500D03*
X019500Y009500D03*
X019500Y005500D03*
X020500Y005500D03*
X021500Y005500D03*
X022500Y005500D03*
X022500Y004500D03*
X021500Y004500D03*
X020500Y004500D03*
X019500Y004500D03*
X019500Y003500D03*
X020500Y003500D03*
X021500Y003500D03*
X022500Y003500D03*
X022500Y002500D03*
X021500Y002500D03*
X020500Y002500D03*
X019500Y002500D03*
X019500Y001500D03*
X020500Y001500D03*
X021500Y001500D03*
X022500Y001500D03*
M02*
