G75*
%MOIN*%
%OFA0B0*%
%FSLAX24Y24*%
%IPPOS*%
%LPD*%
%AMOC8*
5,1,8,0,0,1.08239X$1,22.5*
%
%ADD10R,0.0472X0.0315*%
%ADD11R,0.0315X0.0472*%
%ADD12R,0.0591X0.0591*%
%ADD13R,0.0240X0.0500*%
%ADD14C,0.0740*%
%ADD15R,0.0098X0.0610*%
%ADD16R,0.1969X0.1181*%
%ADD17R,0.1181X0.0551*%
%ADD18C,0.0120*%
%ADD19C,0.0360*%
%ADD20C,0.0250*%
%ADD21C,0.0320*%
%ADD22C,0.0160*%
%ADD23C,0.0100*%
%ADD24C,0.0310*%
%ADD25C,0.1000*%
%ADD26C,0.0500*%
D10*
X003500Y001021D03*
X003500Y001729D03*
X009500Y004146D03*
X009500Y004854D03*
X003000Y009021D03*
X002375Y009021D03*
X001750Y009021D03*
X001750Y009729D03*
X002375Y009729D03*
X003000Y009729D03*
D11*
X004896Y008750D03*
X005604Y008750D03*
X006006Y008750D03*
X006714Y008750D03*
X007096Y008750D03*
X007804Y008750D03*
X007604Y009500D03*
X006896Y009500D03*
X006104Y004000D03*
X005396Y004000D03*
D12*
X004811Y009500D03*
X006189Y009500D03*
D13*
X004250Y008125D03*
X003750Y008125D03*
X003250Y008125D03*
X002750Y008125D03*
X002250Y008125D03*
X001750Y008125D03*
X001250Y008125D03*
X001250Y005875D03*
X001750Y005875D03*
X002250Y005875D03*
X002750Y005875D03*
X003250Y005875D03*
X003750Y005875D03*
X004250Y005875D03*
D14*
X004500Y002500D03*
X005500Y002500D03*
X006500Y002500D03*
X007500Y002500D03*
X008500Y002500D03*
X009500Y002500D03*
D15*
X009035Y004773D03*
X008780Y004773D03*
X008524Y004773D03*
X008268Y004773D03*
X008012Y004773D03*
X007756Y004773D03*
X007500Y004773D03*
X007244Y004773D03*
X006988Y004773D03*
X006732Y004773D03*
X006476Y004773D03*
X006220Y004773D03*
X005965Y004773D03*
X005709Y004773D03*
X005709Y006977D03*
X005965Y006977D03*
X006220Y006977D03*
X006476Y006977D03*
X006732Y006977D03*
X006988Y006977D03*
X007244Y006977D03*
X007500Y006977D03*
X007756Y006977D03*
X008012Y006977D03*
X008268Y006977D03*
X008524Y006977D03*
X008780Y006977D03*
X009035Y006977D03*
D16*
X007372Y005875D03*
D17*
X003570Y004250D03*
X001680Y004250D03*
D18*
X002500Y003000D02*
X003250Y003000D01*
X003500Y002875D01*
X002875Y003500D02*
X002625Y003750D01*
X002500Y003750D01*
X002500Y004750D01*
X002250Y004750D01*
X002250Y005875D01*
X002125Y006250D02*
X002125Y006625D01*
X003000Y007500D01*
X003250Y007750D02*
X003500Y007500D01*
X003250Y007750D02*
X003250Y008125D01*
X003750Y008125D02*
X003750Y007750D01*
X003875Y007625D01*
X004125Y007625D01*
X005125Y006500D01*
X005875Y006500D01*
X005965Y006590D01*
X005965Y006977D01*
X006220Y006977D02*
X006220Y006655D01*
X006625Y006250D01*
X006625Y006000D01*
X006595Y005970D01*
X006625Y006000D02*
X006595Y005780D01*
X006875Y006000D02*
X007000Y006000D01*
X007000Y005750D01*
X006732Y005482D01*
X006732Y004773D01*
X006476Y004773D02*
X006476Y004274D01*
X006500Y004250D01*
X006988Y004363D02*
X007000Y003875D01*
X007375Y003750D02*
X007375Y003125D01*
X008125Y003125D01*
X008125Y003750D01*
X008000Y003875D01*
X008000Y004886D01*
X008012Y004773D01*
X008268Y004773D02*
X008268Y004357D01*
X008780Y004345D02*
X009000Y004125D01*
X009604Y004125D01*
X009035Y004773D02*
X009079Y004854D01*
X009500Y004854D01*
X008780Y004773D02*
X008780Y005595D01*
X008524Y005851D01*
X008750Y006125D02*
X008524Y006351D01*
X008524Y006977D01*
X008780Y006977D02*
X008780Y006595D01*
X009000Y006375D01*
X009250Y006375D01*
X009250Y006977D02*
X009035Y006977D01*
X009250Y006977D02*
X009500Y007227D01*
X009500Y007250D01*
X009523Y007352D01*
X008375Y007750D02*
X008250Y007625D01*
X008250Y007120D01*
X008268Y006977D01*
X008012Y006977D02*
X008012Y006137D01*
X007500Y006003D02*
X007372Y005875D01*
X007244Y005747D01*
X007244Y004773D01*
X007500Y004773D02*
X007500Y003875D01*
X007375Y003750D01*
X007750Y003500D02*
X007756Y004256D01*
X007756Y004773D01*
X006988Y004773D02*
X006988Y004363D01*
X006220Y004773D02*
X006220Y005970D01*
X004280Y005970D01*
X004250Y005875D01*
X004250Y004875D01*
X003750Y005500D02*
X003625Y005375D01*
X003125Y005375D01*
X003125Y004750D01*
X003000Y004750D01*
X002750Y004500D01*
X002750Y004000D01*
X003000Y003750D01*
X005000Y003750D01*
X005000Y004750D01*
X005250Y005000D01*
X005709Y004773D02*
X005396Y004335D01*
X005396Y004000D01*
X005750Y004250D02*
X005750Y003375D01*
X005625Y003250D01*
X005125Y003250D01*
X004875Y003500D01*
X002875Y003500D01*
X002500Y003000D02*
X001500Y003625D01*
X000875Y003625D01*
X000875Y004875D01*
X001625Y004875D01*
X001625Y005750D01*
X001750Y005875D01*
X002125Y006250D02*
X003250Y006250D01*
X003250Y005875D01*
X003750Y005875D02*
X003750Y005500D01*
X002750Y005875D02*
X002750Y005125D01*
X001250Y005250D02*
X000875Y005625D01*
X000875Y008750D01*
X001125Y009000D01*
X001729Y009000D01*
X001750Y009021D01*
X002375Y009021D01*
X003000Y009021D01*
X003021Y009000D01*
X003000Y009375D01*
X004000Y009375D01*
X004250Y009125D01*
X004250Y008125D01*
X004875Y008500D02*
X004875Y008729D01*
X004896Y008750D01*
X004875Y008500D02*
X005625Y007750D01*
X006375Y007750D01*
X006732Y007393D01*
X006732Y006977D01*
X006476Y006977D02*
X006476Y007274D01*
X006250Y007500D01*
X006500Y008000D02*
X005750Y008000D01*
X005500Y008250D01*
X005500Y008646D01*
X005604Y008750D01*
X006000Y008729D02*
X006000Y008500D01*
X006250Y008250D01*
X006625Y008250D01*
X007244Y007631D01*
X007244Y006977D01*
X007500Y006977D02*
X007500Y006003D01*
X007756Y006977D02*
X007756Y008119D01*
X007250Y008625D01*
X007146Y008625D01*
X007096Y008750D01*
X006714Y008750D02*
X006729Y008521D01*
X007000Y008250D01*
X007125Y008250D01*
X006500Y008000D02*
X006988Y007512D01*
X006988Y006977D01*
X008012Y006977D02*
X008012Y008593D01*
X007804Y008750D01*
X007604Y009500D02*
X007604Y009896D01*
X007500Y010000D01*
X006896Y009500D02*
X006189Y009500D01*
X006006Y008750D02*
X006000Y008729D01*
X004811Y009500D02*
X004582Y009729D01*
X003000Y009729D01*
X002375Y009729D01*
X001750Y009729D01*
X001521Y009729D01*
X001500Y009750D01*
X001750Y009750D01*
X001500Y009750D02*
X001250Y009750D01*
X001375Y008625D02*
X002000Y008625D01*
X002250Y008375D01*
X002250Y008125D01*
X002750Y008125D02*
X002750Y008625D01*
X003375Y008625D01*
X003625Y008875D01*
X002500Y007625D02*
X001250Y006250D01*
X001250Y005875D01*
X001250Y006875D02*
X001250Y008125D01*
X005125Y007000D02*
X005686Y007000D01*
X005709Y006977D01*
X005965Y004773D02*
X005965Y004465D01*
X005750Y004250D01*
X008780Y004345D02*
X008780Y004773D01*
D19*
X007750Y003500D03*
X007375Y003125D03*
X007000Y003875D03*
X005250Y005000D03*
X004250Y004875D03*
X002750Y005125D03*
X001250Y005250D03*
X001250Y006875D03*
X002500Y007625D03*
X003000Y007500D03*
X003500Y007500D03*
X003875Y006625D03*
X005125Y007750D03*
X004750Y008000D03*
X003625Y008875D03*
X001375Y008625D03*
X007125Y008250D03*
X007500Y010000D03*
X009523Y007352D03*
X009250Y006375D03*
X008750Y006125D03*
X003500Y002875D03*
D20*
X004000Y003000D02*
X004500Y002500D01*
X004500Y002250D01*
X004000Y001750D01*
X003521Y001750D01*
X003500Y001021D02*
X004646Y001021D01*
X005500Y001875D01*
X005500Y002500D01*
X005500Y002750D02*
X006125Y003125D01*
X006125Y003729D01*
X006500Y004250D02*
X006500Y002500D01*
X008268Y004357D02*
X009500Y003125D01*
X009500Y002500D01*
X010125Y002000D02*
X010125Y007500D01*
X009875Y007750D01*
X008375Y007750D01*
X008012Y006137D02*
X007899Y006000D01*
X007750Y005875D01*
X007875Y006000D02*
X008012Y006137D01*
X006875Y006000D02*
X006625Y006000D01*
X006250Y007500D02*
X005375Y007500D01*
X005125Y007750D01*
X004750Y008000D02*
X004750Y007375D01*
X005125Y007000D01*
X001680Y004250D02*
X001680Y003820D01*
X002625Y003250D01*
X004000Y003250D01*
X004000Y003000D01*
X008500Y002500D02*
X008500Y002125D01*
X009000Y001625D01*
X009875Y001625D01*
X010125Y002000D01*
D21*
X005500Y002500D02*
X005500Y002750D01*
D22*
X006125Y003729D02*
X006104Y004000D01*
X003521Y001750D02*
X003500Y001729D01*
X009500Y004146D02*
X009604Y004125D01*
D23*
X009529Y004117D02*
X009529Y004174D01*
X009850Y004174D01*
X009850Y004117D01*
X009529Y004117D01*
X009529Y003838D01*
X009756Y003838D01*
X009794Y003848D01*
X009828Y003868D01*
X009850Y003890D01*
X009850Y003250D01*
X009746Y003250D01*
X009733Y003281D01*
X009656Y003358D01*
X008691Y004323D01*
X008711Y004318D01*
X008780Y004318D01*
X008848Y004318D01*
X008887Y004328D01*
X008904Y004338D01*
X008924Y004318D01*
X009114Y004318D01*
X009114Y004174D01*
X009471Y004174D01*
X009471Y004117D01*
X009114Y004117D01*
X009114Y003968D01*
X009124Y003930D01*
X009144Y003896D01*
X009172Y003868D01*
X009206Y003848D01*
X009244Y003838D01*
X009471Y003838D01*
X009471Y004117D01*
X009529Y004117D01*
X009529Y004145D02*
X009850Y004145D01*
X009850Y003849D02*
X009795Y003849D01*
X009850Y003751D02*
X009263Y003751D01*
X009205Y003849D02*
X009165Y003849D01*
X009119Y003948D02*
X009066Y003948D01*
X009114Y004046D02*
X008968Y004046D01*
X008869Y004145D02*
X009471Y004145D01*
X009471Y004174D02*
X009471Y004453D01*
X009244Y004453D01*
X009235Y004451D01*
X009235Y004547D01*
X009798Y004547D01*
X009850Y004598D01*
X009850Y004401D01*
X009828Y004423D01*
X009794Y004443D01*
X009756Y004453D01*
X009529Y004453D01*
X009529Y004174D01*
X009471Y004174D01*
X009471Y004243D02*
X009529Y004243D01*
X009529Y004342D02*
X009471Y004342D01*
X009471Y004440D02*
X009529Y004440D01*
X009799Y004440D02*
X009850Y004440D01*
X009850Y004539D02*
X009235Y004539D01*
X009114Y004243D02*
X008771Y004243D01*
X008780Y004318D02*
X008780Y004773D01*
X008780Y004773D01*
X008780Y005228D01*
X008848Y005228D01*
X008887Y005218D01*
X008904Y005208D01*
X008924Y005228D01*
X009147Y005228D01*
X009213Y005162D01*
X009798Y005162D01*
X009850Y005110D01*
X009850Y007280D01*
X009802Y007165D01*
X009710Y007073D01*
X009595Y007025D01*
X009587Y007017D01*
X009337Y006767D01*
X009235Y006767D01*
X009235Y006705D01*
X009316Y006705D01*
X009437Y006655D01*
X009530Y006562D01*
X009580Y006441D01*
X009580Y006309D01*
X009530Y006188D01*
X009437Y006095D01*
X009316Y006045D01*
X009184Y006045D01*
X009080Y006088D01*
X009080Y006059D01*
X009030Y005938D01*
X008937Y005845D01*
X008816Y005795D01*
X008684Y005795D01*
X008563Y005845D01*
X008483Y005925D01*
X007422Y005925D01*
X007422Y005825D01*
X008506Y005825D01*
X008506Y005265D01*
X008496Y005228D01*
X009850Y005228D01*
X009850Y005130D02*
X009831Y005130D01*
X009850Y005327D02*
X008506Y005327D01*
X008506Y005425D02*
X009850Y005425D01*
X009850Y005524D02*
X008506Y005524D01*
X008524Y005476D02*
X008524Y004773D01*
X008780Y004773D01*
X008780Y005228D01*
X008711Y005228D01*
X008672Y005218D01*
X008652Y005205D01*
X008631Y005218D01*
X008593Y005228D01*
X008524Y005228D01*
X008524Y004773D01*
X008524Y004773D01*
X008524Y004773D01*
X008580Y004773D01*
X008780Y004773D01*
X008780Y004318D01*
X008780Y004342D02*
X008780Y004342D01*
X008780Y004440D02*
X008780Y004440D01*
X008780Y004539D02*
X008780Y004539D01*
X008780Y004637D02*
X008780Y004637D01*
X008780Y004736D02*
X008780Y004736D01*
X008780Y004773D02*
X008780Y004773D01*
X008780Y004773D01*
X008780Y004834D02*
X008780Y004834D01*
X008780Y004933D02*
X008780Y004933D01*
X008780Y005031D02*
X008780Y005031D01*
X008780Y005130D02*
X008780Y005130D01*
X008524Y005130D02*
X008524Y005130D01*
X008524Y005228D02*
X008496Y005228D01*
X008524Y005228D02*
X008524Y004773D01*
X008524Y004834D02*
X008524Y004834D01*
X008524Y004933D02*
X008524Y004933D01*
X008524Y005031D02*
X008524Y005031D01*
X008506Y005622D02*
X009850Y005622D01*
X009850Y005721D02*
X008506Y005721D01*
X008422Y005750D02*
X008524Y005851D01*
X008506Y005819D02*
X008626Y005819D01*
X008491Y005918D02*
X007422Y005918D01*
X007322Y005918D02*
X004520Y005918D01*
X004520Y005885D02*
X004520Y006145D01*
X004510Y006183D01*
X004490Y006217D01*
X004462Y006245D01*
X004428Y006265D01*
X004390Y006275D01*
X004260Y006275D01*
X004260Y005885D01*
X004240Y005885D01*
X004240Y006275D01*
X004110Y006275D01*
X004072Y006265D01*
X004038Y006245D01*
X004010Y006217D01*
X004003Y006204D01*
X003932Y006275D01*
X003568Y006275D01*
X003500Y006207D01*
X003460Y006247D01*
X003460Y006337D01*
X003337Y006460D01*
X002335Y006460D01*
X002335Y006538D01*
X002967Y007170D01*
X003066Y007170D01*
X003187Y007220D01*
X003250Y007283D01*
X003313Y007220D01*
X003434Y007170D01*
X003566Y007170D01*
X003687Y007220D01*
X003780Y007313D01*
X003822Y007415D01*
X004031Y007415D01*
X004915Y006420D01*
X004915Y006413D01*
X004972Y006356D01*
X005026Y006295D01*
X005033Y006295D01*
X005038Y006290D01*
X005119Y006290D01*
X005200Y006285D01*
X005205Y006290D01*
X005962Y006290D01*
X006085Y006413D01*
X006175Y006503D01*
X006175Y006522D01*
X006220Y006522D01*
X006220Y006977D01*
X006220Y006977D01*
X006220Y006522D01*
X006248Y006522D01*
X006238Y006485D01*
X006238Y005925D01*
X007322Y005925D01*
X007322Y005825D01*
X006238Y005825D01*
X006238Y005265D01*
X006248Y005228D01*
X005489Y005228D01*
X005530Y005187D02*
X005437Y005280D01*
X005316Y005330D01*
X005184Y005330D01*
X005063Y005280D01*
X004970Y005187D01*
X004920Y005066D01*
X004920Y004967D01*
X004790Y004837D01*
X004790Y003960D01*
X004310Y003960D01*
X004310Y004200D01*
X003620Y004200D01*
X003620Y004300D01*
X004310Y004300D01*
X004310Y004545D01*
X004300Y004583D01*
X004280Y004618D01*
X004253Y004646D01*
X004218Y004665D01*
X004180Y004676D01*
X003620Y004676D01*
X003620Y004300D01*
X003520Y004300D01*
X003520Y004676D01*
X003335Y004676D01*
X003335Y005165D01*
X003712Y005165D01*
X003835Y005288D01*
X003960Y005413D01*
X003960Y005503D01*
X004003Y005546D01*
X004010Y005533D01*
X004038Y005505D01*
X004072Y005485D01*
X004110Y005475D01*
X004240Y005475D01*
X004240Y005865D01*
X004260Y005865D01*
X004260Y005885D01*
X004520Y005885D01*
X004520Y005865D02*
X004260Y005865D01*
X004260Y005475D01*
X004390Y005475D01*
X004428Y005485D01*
X004462Y005505D01*
X004490Y005533D01*
X004510Y005567D01*
X004520Y005605D01*
X004520Y005865D01*
X004520Y005819D02*
X006238Y005819D01*
X006238Y005721D02*
X004520Y005721D01*
X004520Y005622D02*
X006238Y005622D01*
X006238Y005524D02*
X004481Y005524D01*
X004260Y005524D02*
X004240Y005524D01*
X004240Y005622D02*
X004260Y005622D01*
X004260Y005721D02*
X004240Y005721D01*
X004240Y005819D02*
X004260Y005819D01*
X004260Y005918D02*
X004240Y005918D01*
X004240Y006016D02*
X004260Y006016D01*
X004260Y006115D02*
X004240Y006115D01*
X004240Y006213D02*
X004260Y006213D01*
X004492Y006213D02*
X006238Y006213D01*
X006238Y006115D02*
X004520Y006115D01*
X004520Y006016D02*
X006238Y006016D01*
X006238Y006312D02*
X005983Y006312D01*
X006082Y006410D02*
X006238Y006410D01*
X006244Y006509D02*
X006175Y006509D01*
X006220Y006607D02*
X006220Y006607D01*
X006220Y006706D02*
X006220Y006706D01*
X006220Y006804D02*
X006220Y006804D01*
X006220Y006903D02*
X006220Y006903D01*
X007234Y007938D02*
X007312Y007970D01*
X007405Y008063D01*
X007437Y008141D01*
X007546Y008032D01*
X007546Y007432D01*
X007500Y007432D01*
X007454Y007432D01*
X007454Y007718D01*
X007234Y007938D01*
X007284Y007888D02*
X007546Y007888D01*
X007546Y007986D02*
X007328Y007986D01*
X007414Y008085D02*
X007493Y008085D01*
X007546Y007789D02*
X007383Y007789D01*
X007454Y007691D02*
X007546Y007691D01*
X007546Y007592D02*
X007454Y007592D01*
X007454Y007494D02*
X007546Y007494D01*
X007500Y007432D02*
X007500Y006977D01*
X007500Y007432D01*
X007500Y007395D02*
X007500Y007395D01*
X007500Y007297D02*
X007500Y007297D01*
X007500Y007198D02*
X007500Y007198D01*
X007500Y007100D02*
X007500Y007100D01*
X007500Y007001D02*
X007500Y007001D01*
X007500Y006977D02*
X007500Y006977D01*
X007966Y007432D02*
X007966Y008206D01*
X007776Y008396D01*
X007776Y008721D01*
X007833Y008721D01*
X007833Y008364D01*
X007982Y008364D01*
X008020Y008374D01*
X008054Y008394D01*
X008082Y008422D01*
X008084Y008425D01*
X008093Y008423D01*
X008130Y008373D01*
X008130Y008359D01*
X008173Y008317D01*
X008209Y008269D01*
X008223Y008266D01*
X008266Y008223D01*
X008269Y008209D01*
X008317Y008173D01*
X008359Y008130D01*
X008373Y008130D01*
X008423Y008093D01*
X008427Y008080D01*
X008479Y008051D01*
X008514Y008025D01*
X008320Y008025D01*
X008219Y007983D01*
X008142Y007906D01*
X008100Y007805D01*
X008100Y007772D01*
X008040Y007712D01*
X008040Y007432D01*
X008012Y007432D01*
X008012Y006977D01*
X008012Y006977D01*
X008012Y007432D01*
X007966Y007432D01*
X008012Y007395D02*
X008012Y007395D01*
X008012Y007297D02*
X008012Y007297D01*
X008012Y007198D02*
X008012Y007198D01*
X008012Y007100D02*
X008012Y007100D01*
X008012Y007001D02*
X008012Y007001D01*
X008040Y007494D02*
X007966Y007494D01*
X007966Y007592D02*
X008040Y007592D01*
X008040Y007691D02*
X007966Y007691D01*
X007966Y007789D02*
X008100Y007789D01*
X008134Y007888D02*
X007966Y007888D01*
X007966Y007986D02*
X008226Y007986D01*
X008303Y008183D02*
X007966Y008183D01*
X007966Y008085D02*
X008425Y008085D01*
X008199Y008282D02*
X007890Y008282D01*
X007833Y008380D02*
X007792Y008380D01*
X007776Y008479D02*
X007833Y008479D01*
X007833Y008577D02*
X007776Y008577D01*
X007776Y008676D02*
X007833Y008676D01*
X007776Y008721D02*
X007497Y008721D01*
X007497Y008675D01*
X007460Y008712D01*
X007422Y008750D01*
X007776Y008750D01*
X007776Y008721D01*
X007497Y008676D02*
X007496Y008676D01*
X008030Y008380D02*
X008125Y008380D01*
X009571Y007001D02*
X009850Y007001D01*
X009850Y006903D02*
X009472Y006903D01*
X009374Y006804D02*
X009850Y006804D01*
X009850Y006706D02*
X009235Y006706D01*
X009485Y006607D02*
X009850Y006607D01*
X009850Y006509D02*
X009552Y006509D01*
X009580Y006410D02*
X009850Y006410D01*
X009850Y006312D02*
X009580Y006312D01*
X009540Y006213D02*
X009850Y006213D01*
X009850Y006115D02*
X009456Y006115D01*
X009062Y006016D02*
X009850Y006016D01*
X009850Y005918D02*
X009009Y005918D01*
X008874Y005819D02*
X009850Y005819D01*
X009850Y007100D02*
X009736Y007100D01*
X009816Y007198D02*
X009850Y007198D01*
X008422Y005750D02*
X008250Y005750D01*
X007244Y004773D02*
X007244Y004318D01*
X007199Y004318D01*
X007204Y004138D01*
X007280Y004062D01*
X007290Y004037D01*
X007290Y004318D01*
X007244Y004318D01*
X007244Y004773D01*
X007244Y004773D01*
X007244Y004736D02*
X007244Y004736D01*
X007244Y004637D02*
X007244Y004637D01*
X007244Y004539D02*
X007244Y004539D01*
X007244Y004440D02*
X007244Y004440D01*
X007244Y004342D02*
X007244Y004342D01*
X007201Y004243D02*
X007290Y004243D01*
X007290Y004145D02*
X007204Y004145D01*
X007286Y004046D02*
X007290Y004046D01*
X006250Y004375D02*
X006250Y004743D01*
X006220Y004773D01*
X006220Y005228D01*
X006152Y005228D01*
X006113Y005218D01*
X006096Y005208D01*
X006076Y005228D01*
X005853Y005228D01*
X005837Y005211D01*
X005820Y005228D01*
X005597Y005228D01*
X005538Y005168D01*
X005530Y005187D01*
X005324Y005327D02*
X006238Y005327D01*
X006238Y005425D02*
X003960Y005425D01*
X003981Y005524D02*
X004019Y005524D01*
X003873Y005327D02*
X005176Y005327D01*
X005011Y005228D02*
X003775Y005228D01*
X003335Y005130D02*
X004946Y005130D01*
X004920Y005031D02*
X003335Y005031D01*
X003335Y004933D02*
X004886Y004933D01*
X004790Y004834D02*
X003335Y004834D01*
X003335Y004736D02*
X004790Y004736D01*
X004790Y004637D02*
X004261Y004637D01*
X004310Y004539D02*
X004790Y004539D01*
X004790Y004440D02*
X004310Y004440D01*
X004310Y004342D02*
X004790Y004342D01*
X004790Y004243D02*
X003620Y004243D01*
X003620Y004342D02*
X003520Y004342D01*
X003520Y004440D02*
X003620Y004440D01*
X003620Y004539D02*
X003520Y004539D01*
X003520Y004637D02*
X003620Y004637D01*
X004310Y004145D02*
X004790Y004145D01*
X004790Y004046D02*
X004310Y004046D01*
X005922Y003250D02*
X005960Y003288D01*
X005960Y003614D01*
X006076Y003614D01*
X006076Y003971D01*
X006133Y003971D01*
X006133Y003614D01*
X006225Y003614D01*
X006225Y003250D01*
X005922Y003250D01*
X005930Y003258D02*
X006225Y003258D01*
X006225Y003357D02*
X005960Y003357D01*
X005960Y003455D02*
X006225Y003455D01*
X006225Y003554D02*
X005960Y003554D01*
X006076Y003652D02*
X006133Y003652D01*
X006133Y003751D02*
X006076Y003751D01*
X006076Y003849D02*
X006133Y003849D01*
X006133Y003948D02*
X006076Y003948D01*
X006104Y004000D02*
X006104Y004229D01*
X006250Y004375D01*
X006133Y004322D02*
X006122Y004325D01*
X006076Y004279D01*
X006076Y004029D01*
X006133Y004029D01*
X006133Y004322D01*
X006133Y004243D02*
X006076Y004243D01*
X006076Y004145D02*
X006133Y004145D01*
X006133Y004046D02*
X006076Y004046D01*
X006220Y004773D02*
X006220Y004773D01*
X006220Y005228D01*
X006248Y005228D01*
X006220Y005130D02*
X006220Y005130D01*
X006220Y005031D02*
X006220Y005031D01*
X006220Y004933D02*
X006220Y004933D01*
X006220Y004834D02*
X006220Y004834D01*
X005012Y006312D02*
X003460Y006312D01*
X003494Y006213D02*
X003506Y006213D01*
X003387Y006410D02*
X004918Y006410D01*
X004836Y006509D02*
X002335Y006509D01*
X002404Y006607D02*
X004749Y006607D01*
X004661Y006706D02*
X002503Y006706D01*
X002601Y006804D02*
X004574Y006804D01*
X004486Y006903D02*
X002700Y006903D01*
X002798Y007001D02*
X004399Y007001D01*
X004311Y007100D02*
X002897Y007100D01*
X003133Y007198D02*
X003367Y007198D01*
X003633Y007198D02*
X004224Y007198D01*
X004136Y007297D02*
X003763Y007297D01*
X003814Y007395D02*
X004048Y007395D01*
X004008Y006213D02*
X003994Y006213D01*
X009362Y003652D02*
X009850Y003652D01*
X009850Y003554D02*
X009460Y003554D01*
X009559Y003455D02*
X009850Y003455D01*
X009850Y003357D02*
X009657Y003357D01*
X009743Y003258D02*
X009850Y003258D01*
X009529Y003849D02*
X009471Y003849D01*
X009471Y003948D02*
X009529Y003948D01*
X009529Y004046D02*
X009471Y004046D01*
D24*
X008875Y005375D03*
X008625Y005625D03*
X009125Y005750D03*
X006125Y005625D03*
X005750Y005625D03*
X005375Y005625D03*
X004875Y005875D03*
X005375Y006125D03*
X005750Y006125D03*
X006125Y006125D03*
X001250Y009750D03*
D25*
X006220Y005970D02*
X006595Y005970D01*
D26*
X008250Y005750D02*
X008524Y005476D01*
M02*
