G75*
%MOIN*%
%OFA0B0*%
%FSLAX24Y24*%
%IPPOS*%
%LPD*%
%AMOC8*
5,1,8,0,0,1.08239X$1,22.5*
%
%ADD10R,0.0532X0.0375*%
%ADD11R,0.0375X0.0532*%
%ADD12R,0.0651X0.0651*%
%ADD13R,0.0300X0.0560*%
%ADD14C,0.1560*%
%ADD15C,0.0800*%
%ADD16R,0.0158X0.0670*%
%ADD17R,0.2029X0.1241*%
%ADD18R,0.1241X0.0611*%
%ADD19C,0.0420*%
%ADD20C,0.0370*%
D10*
X003500Y001021D03*
X003500Y001729D03*
X009500Y004146D03*
X009500Y004854D03*
X003000Y009021D03*
X002375Y009021D03*
X001750Y009021D03*
X001750Y009729D03*
X002375Y009729D03*
X003000Y009729D03*
D11*
X004896Y008750D03*
X005604Y008750D03*
X006006Y008750D03*
X006714Y008750D03*
X007096Y008750D03*
X007804Y008750D03*
X007604Y009500D03*
X006896Y009500D03*
X006104Y004000D03*
X005396Y004000D03*
D12*
X004811Y009500D03*
X006189Y009500D03*
D13*
X004250Y008125D03*
X003750Y008125D03*
X003250Y008125D03*
X002750Y008125D03*
X002250Y008125D03*
X001750Y008125D03*
X001250Y008125D03*
X001250Y005875D03*
X001750Y005875D03*
X002250Y005875D03*
X002750Y005875D03*
X003250Y005875D03*
X003750Y005875D03*
X004250Y005875D03*
D14*
X001750Y001750D03*
X009250Y009250D03*
D15*
X009500Y002500D03*
X008500Y002500D03*
X007500Y002500D03*
X006500Y002500D03*
X005500Y002500D03*
X004500Y002500D03*
D16*
X005709Y004773D03*
X005965Y004773D03*
X006220Y004773D03*
X006476Y004773D03*
X006732Y004773D03*
X006988Y004773D03*
X007244Y004773D03*
X007500Y004773D03*
X007756Y004773D03*
X008012Y004773D03*
X008268Y004773D03*
X008524Y004773D03*
X008780Y004773D03*
X009035Y004773D03*
X009035Y006977D03*
X008780Y006977D03*
X008524Y006977D03*
X008268Y006977D03*
X008012Y006977D03*
X007756Y006977D03*
X007500Y006977D03*
X007244Y006977D03*
X006988Y006977D03*
X006732Y006977D03*
X006476Y006977D03*
X006220Y006977D03*
X005965Y006977D03*
X005709Y006977D03*
D17*
X007372Y005875D03*
D18*
X003570Y004250D03*
X001680Y004250D03*
D19*
X001250Y005250D03*
X002750Y005125D03*
X004250Y004875D03*
X005250Y005000D03*
X003875Y006625D03*
X003500Y007500D03*
X003000Y007500D03*
X002500Y007625D03*
X001375Y008625D03*
X001250Y006875D03*
X003625Y008875D03*
X004750Y008000D03*
X005125Y007750D03*
X007125Y008250D03*
X007500Y010000D03*
X009523Y007352D03*
X009250Y006375D03*
X008750Y006125D03*
X007000Y003875D03*
X007375Y003125D03*
X007750Y003500D03*
X003500Y002875D03*
D20*
X005375Y005625D03*
X005750Y005625D03*
X006125Y005625D03*
X006125Y006125D03*
X005750Y006125D03*
X005375Y006125D03*
X004875Y005875D03*
X008625Y005625D03*
X008875Y005375D03*
X009125Y005750D03*
X001250Y009750D03*
M02*
