G75*
%MOIN*%
%OFA0B0*%
%FSLAX24Y24*%
%IPPOS*%
%LPD*%
%AMOC8*
5,1,8,0,0,1.08239X$1,22.5*
%
%ADD10C,0.0050*%
%ADD11C,0.0000*%
D10*
X000500Y000500D02*
X000500Y010500D01*
X010500Y010500D01*
X010500Y000500D01*
X000500Y000500D01*
D11*
X001000Y001750D02*
X001002Y001804D01*
X001008Y001858D01*
X001018Y001911D01*
X001031Y001964D01*
X001048Y002015D01*
X001069Y002065D01*
X001094Y002113D01*
X001122Y002160D01*
X001153Y002204D01*
X001187Y002246D01*
X001224Y002285D01*
X001264Y002322D01*
X001307Y002355D01*
X001352Y002386D01*
X001399Y002413D01*
X001447Y002436D01*
X001498Y002456D01*
X001549Y002473D01*
X001602Y002485D01*
X001655Y002494D01*
X001709Y002499D01*
X001764Y002500D01*
X001818Y002497D01*
X001871Y002490D01*
X001924Y002479D01*
X001977Y002465D01*
X002028Y002447D01*
X002077Y002425D01*
X002125Y002400D01*
X002171Y002371D01*
X002215Y002339D01*
X002256Y002304D01*
X002294Y002266D01*
X002330Y002225D01*
X002363Y002182D01*
X002393Y002137D01*
X002419Y002089D01*
X002442Y002040D01*
X002461Y001989D01*
X002476Y001938D01*
X002488Y001885D01*
X002496Y001831D01*
X002500Y001777D01*
X002500Y001723D01*
X002496Y001669D01*
X002488Y001615D01*
X002476Y001562D01*
X002461Y001511D01*
X002442Y001460D01*
X002419Y001411D01*
X002393Y001363D01*
X002363Y001318D01*
X002330Y001275D01*
X002294Y001234D01*
X002256Y001196D01*
X002215Y001161D01*
X002171Y001129D01*
X002125Y001100D01*
X002077Y001075D01*
X002028Y001053D01*
X001977Y001035D01*
X001924Y001021D01*
X001871Y001010D01*
X001818Y001003D01*
X001764Y001000D01*
X001709Y001001D01*
X001655Y001006D01*
X001602Y001015D01*
X001549Y001027D01*
X001498Y001044D01*
X001447Y001064D01*
X001399Y001087D01*
X001352Y001114D01*
X001307Y001145D01*
X001264Y001178D01*
X001224Y001215D01*
X001187Y001254D01*
X001153Y001296D01*
X001122Y001340D01*
X001094Y001387D01*
X001069Y001435D01*
X001048Y001485D01*
X001031Y001536D01*
X001018Y001589D01*
X001008Y001642D01*
X001002Y001696D01*
X001000Y001750D01*
X008500Y009250D02*
X008502Y009304D01*
X008508Y009358D01*
X008518Y009411D01*
X008531Y009464D01*
X008548Y009515D01*
X008569Y009565D01*
X008594Y009613D01*
X008622Y009660D01*
X008653Y009704D01*
X008687Y009746D01*
X008724Y009785D01*
X008764Y009822D01*
X008807Y009855D01*
X008852Y009886D01*
X008899Y009913D01*
X008947Y009936D01*
X008998Y009956D01*
X009049Y009973D01*
X009102Y009985D01*
X009155Y009994D01*
X009209Y009999D01*
X009264Y010000D01*
X009318Y009997D01*
X009371Y009990D01*
X009424Y009979D01*
X009477Y009965D01*
X009528Y009947D01*
X009577Y009925D01*
X009625Y009900D01*
X009671Y009871D01*
X009715Y009839D01*
X009756Y009804D01*
X009794Y009766D01*
X009830Y009725D01*
X009863Y009682D01*
X009893Y009637D01*
X009919Y009589D01*
X009942Y009540D01*
X009961Y009489D01*
X009976Y009438D01*
X009988Y009385D01*
X009996Y009331D01*
X010000Y009277D01*
X010000Y009223D01*
X009996Y009169D01*
X009988Y009115D01*
X009976Y009062D01*
X009961Y009011D01*
X009942Y008960D01*
X009919Y008911D01*
X009893Y008863D01*
X009863Y008818D01*
X009830Y008775D01*
X009794Y008734D01*
X009756Y008696D01*
X009715Y008661D01*
X009671Y008629D01*
X009625Y008600D01*
X009577Y008575D01*
X009528Y008553D01*
X009477Y008535D01*
X009424Y008521D01*
X009371Y008510D01*
X009318Y008503D01*
X009264Y008500D01*
X009209Y008501D01*
X009155Y008506D01*
X009102Y008515D01*
X009049Y008527D01*
X008998Y008544D01*
X008947Y008564D01*
X008899Y008587D01*
X008852Y008614D01*
X008807Y008645D01*
X008764Y008678D01*
X008724Y008715D01*
X008687Y008754D01*
X008653Y008796D01*
X008622Y008840D01*
X008594Y008887D01*
X008569Y008935D01*
X008548Y008985D01*
X008531Y009036D01*
X008518Y009089D01*
X008508Y009142D01*
X008502Y009196D01*
X008500Y009250D01*
M02*
