G75*
%MOIN*%
%OFA0B0*%
%FSLAX24Y24*%
%IPPOS*%
%LPD*%
%AMOC8*
5,1,8,0,0,1.08239X$1,22.5*
%
%ADD10R,0.0510X0.1100*%
%ADD11R,0.0500X0.0500*%
%ADD12C,0.0740*%
%ADD13C,0.0360*%
%ADD14C,0.0120*%
%ADD15C,0.0310*%
%ADD16C,0.0250*%
D10*
X001500Y004000D03*
X002500Y004000D03*
X003500Y004000D03*
X004500Y004000D03*
D11*
X005500Y009500D03*
X006500Y009500D03*
D12*
X006500Y002500D03*
X005500Y002500D03*
X004500Y002500D03*
X007500Y002500D03*
X008500Y002500D03*
X009500Y002500D03*
D13*
X007750Y003500D03*
X007375Y003125D03*
X007000Y003875D03*
X005250Y005000D03*
X004250Y004875D03*
X002750Y005125D03*
X001250Y005250D03*
X001250Y006875D03*
X002500Y007625D03*
X003000Y007500D03*
X003500Y007500D03*
X003875Y006625D03*
X005125Y007750D03*
X004750Y008000D03*
X003625Y008875D03*
X001375Y008625D03*
X007125Y008250D03*
X007500Y010000D03*
X009523Y007352D03*
X009250Y006375D03*
X008750Y006125D03*
X003500Y002875D03*
D14*
X002875Y002750D02*
X002875Y002731D01*
X002481Y003125D01*
X001500Y003125D01*
X001500Y004000D01*
X001250Y004250D01*
X001250Y005250D01*
X001250Y006000D02*
X001250Y006875D01*
X001625Y006500D02*
X004250Y006500D01*
X004875Y005875D01*
X004375Y005250D02*
X004875Y004750D01*
X004875Y003875D01*
X005250Y003500D01*
X007750Y003500D01*
X007375Y003125D02*
X004250Y003125D01*
X004000Y002875D01*
X003875Y002769D01*
X003606Y002500D01*
X003125Y002500D01*
X002875Y002750D01*
X003500Y002875D02*
X004500Y003750D01*
X004500Y004000D01*
X003875Y004500D02*
X003875Y004625D01*
X004000Y004750D01*
X004250Y004750D01*
X004250Y004875D01*
X004125Y005250D02*
X004375Y005250D01*
X004125Y005250D02*
X003875Y005000D01*
X002875Y005000D01*
X002750Y005125D01*
X002500Y004750D02*
X001250Y006000D01*
X001625Y006500D02*
X001625Y007625D01*
X000875Y008375D01*
X000875Y009250D01*
X001250Y009625D01*
X001250Y009750D01*
X001375Y009375D02*
X001375Y008625D01*
X001375Y009375D02*
X002000Y010000D01*
X007500Y010000D01*
X006500Y009500D02*
X006000Y009000D01*
X004250Y009000D01*
X004250Y008375D01*
X002500Y008375D01*
X002500Y007625D01*
X003000Y007500D02*
X003250Y007125D01*
X007750Y007125D01*
X008750Y006125D01*
X009250Y006375D02*
X009250Y006625D01*
X008250Y007375D01*
X003500Y007375D01*
X003500Y007500D01*
X003625Y008875D02*
X004000Y008875D01*
X004000Y009500D01*
X005500Y009500D01*
X005250Y005000D02*
X005250Y003875D01*
X007000Y003875D01*
X003875Y004500D02*
X003500Y004500D01*
X003500Y004000D01*
X002500Y004000D02*
X002500Y004750D01*
D15*
X004875Y005875D03*
X005375Y005625D03*
X005750Y005625D03*
X006125Y005625D03*
X006125Y006125D03*
X005750Y006125D03*
X005375Y006125D03*
X008625Y005625D03*
X008875Y005375D03*
X009125Y005750D03*
X001250Y009750D03*
D16*
X001090Y009000D02*
X000850Y009000D01*
X000850Y006968D01*
X000907Y007104D01*
X001021Y007218D01*
X001169Y007280D01*
X001331Y007280D01*
X001479Y007218D01*
X001593Y007104D01*
X001655Y006956D01*
X001655Y006794D01*
X001593Y006646D01*
X001535Y006587D01*
X001535Y006118D01*
X002375Y005278D01*
X002407Y005354D01*
X002521Y005468D01*
X002669Y005530D01*
X002831Y005530D01*
X002979Y005468D01*
X003093Y005354D01*
X003122Y005285D01*
X003757Y005285D01*
X003883Y005411D01*
X003964Y005492D01*
X004068Y005535D01*
X004432Y005535D01*
X004536Y005492D01*
X004875Y005153D01*
X004907Y005229D01*
X005021Y005343D01*
X005169Y005405D01*
X005331Y005405D01*
X005479Y005343D01*
X005593Y005229D01*
X005655Y005081D01*
X005655Y004919D01*
X005593Y004771D01*
X005535Y004712D01*
X005535Y004160D01*
X006712Y004160D01*
X006771Y004218D01*
X006919Y004280D01*
X007081Y004280D01*
X007229Y004218D01*
X007343Y004104D01*
X007405Y003956D01*
X007405Y003794D01*
X007401Y003785D01*
X007462Y003785D01*
X007521Y003843D01*
X007669Y003905D01*
X007831Y003905D01*
X007979Y003843D01*
X008093Y003729D01*
X008155Y003581D01*
X008155Y003475D01*
X009034Y003475D01*
X009275Y003958D01*
X009275Y005970D01*
X009169Y005970D01*
X009131Y005986D01*
X009093Y005896D01*
X008979Y005782D01*
X008831Y005720D01*
X008669Y005720D01*
X008521Y005782D01*
X008407Y005896D01*
X008345Y006044D01*
X008345Y006127D01*
X007632Y006840D01*
X003278Y006840D01*
X003250Y006834D01*
X003222Y006840D01*
X003193Y006840D01*
X003167Y006851D01*
X003139Y006857D01*
X003115Y006872D01*
X003089Y006883D01*
X003068Y006904D01*
X003044Y006920D01*
X003029Y006943D01*
X003008Y006964D01*
X002997Y006990D01*
X002927Y007095D01*
X002919Y007095D01*
X002771Y007157D01*
X002670Y007257D01*
X002581Y007220D01*
X002419Y007220D01*
X002271Y007282D01*
X002157Y007396D01*
X002095Y007544D01*
X002095Y007706D01*
X002157Y007854D01*
X002215Y007913D01*
X002215Y008432D01*
X002258Y008536D01*
X002339Y008617D01*
X002443Y008660D01*
X003276Y008660D01*
X003220Y008794D01*
X003220Y008956D01*
X003238Y009000D01*
X001660Y009000D01*
X001660Y008913D01*
X001718Y008854D01*
X001780Y008706D01*
X001780Y008544D01*
X001718Y008396D01*
X001604Y008282D01*
X001456Y008220D01*
X001294Y008220D01*
X001146Y008282D01*
X001032Y008396D01*
X000970Y008544D01*
X000970Y008706D01*
X001032Y008854D01*
X001090Y008913D01*
X001090Y009000D01*
X001090Y008949D02*
X000850Y008949D01*
X000850Y008701D02*
X000970Y008701D01*
X001008Y008452D02*
X000850Y008452D01*
X000850Y008204D02*
X002215Y008204D01*
X002223Y008452D02*
X001742Y008452D01*
X001780Y008701D02*
X003259Y008701D01*
X003220Y008949D02*
X001660Y008949D01*
X002215Y007955D02*
X000850Y007955D01*
X000850Y007707D02*
X002095Y007707D01*
X002131Y007458D02*
X000850Y007458D01*
X000850Y007210D02*
X001012Y007210D01*
X001488Y007210D02*
X002718Y007210D01*
X003011Y006961D02*
X001653Y006961D01*
X001621Y006713D02*
X007759Y006713D01*
X008008Y006464D02*
X001535Y006464D01*
X001535Y006216D02*
X008256Y006216D01*
X008377Y005967D02*
X001686Y005967D01*
X001935Y005719D02*
X009275Y005719D01*
X009275Y005470D02*
X004558Y005470D01*
X004807Y005222D02*
X004903Y005222D01*
X004447Y004775D02*
X004152Y004775D01*
X004020Y004643D01*
X004020Y003709D01*
X003980Y003674D01*
X003980Y003997D01*
X003503Y003997D01*
X003503Y004003D01*
X003503Y004715D01*
X003497Y004715D01*
X003497Y004003D01*
X003503Y004003D01*
X003980Y004003D01*
X003980Y004580D01*
X003965Y004637D01*
X003935Y004688D01*
X003908Y004715D01*
X003932Y004715D01*
X004036Y004758D01*
X004243Y004965D01*
X004257Y004965D01*
X004447Y004775D01*
X004101Y004725D02*
X003955Y004725D01*
X003980Y004476D02*
X004020Y004476D01*
X004020Y004228D02*
X003980Y004228D01*
X003980Y003979D02*
X004020Y003979D01*
X004020Y003731D02*
X003980Y003731D01*
X003497Y003997D02*
X003020Y003997D01*
X003020Y003420D01*
X003035Y003363D01*
X003065Y003312D01*
X003107Y003270D01*
X003158Y003240D01*
X003215Y003225D01*
X003287Y003225D01*
X003271Y003218D01*
X003177Y003125D01*
X002884Y003125D01*
X002784Y003225D01*
X002848Y003225D01*
X002980Y003357D01*
X002980Y004643D01*
X002908Y004715D01*
X003092Y004715D01*
X003065Y004688D01*
X003035Y004637D01*
X003020Y004580D01*
X003020Y004003D01*
X003497Y004003D01*
X003497Y003997D01*
X003497Y004228D02*
X003503Y004228D01*
X003497Y004476D02*
X003503Y004476D01*
X003020Y004476D02*
X002980Y004476D01*
X002980Y004228D02*
X003020Y004228D01*
X003020Y003979D02*
X002980Y003979D01*
X002980Y003731D02*
X003020Y003731D01*
X003020Y003482D02*
X002980Y003482D01*
X002857Y003234D02*
X003184Y003234D01*
X004500Y002500D02*
X004500Y001875D01*
X004750Y001625D01*
X009875Y001625D01*
X010125Y002000D01*
X010125Y003000D01*
X010000Y003500D01*
X010000Y007000D01*
X009523Y007352D01*
X008125Y008250D01*
X007125Y008250D01*
X005000Y008250D01*
X004750Y008000D01*
X005125Y007750D02*
X005375Y007875D01*
X008000Y007875D01*
X009625Y006750D01*
X009625Y003875D01*
X009250Y003125D01*
X008125Y003125D01*
X007500Y002500D01*
X008155Y003482D02*
X009037Y003482D01*
X009161Y003731D02*
X008092Y003731D01*
X007395Y003979D02*
X009275Y003979D01*
X009275Y004228D02*
X007207Y004228D01*
X006793Y004228D02*
X005535Y004228D01*
X005535Y004476D02*
X009275Y004476D01*
X009275Y004725D02*
X005547Y004725D01*
X005655Y004973D02*
X009275Y004973D01*
X009275Y005222D02*
X005597Y005222D01*
X003942Y005470D02*
X002975Y005470D01*
X002525Y005470D02*
X002183Y005470D01*
X009123Y005967D02*
X009275Y005967D01*
M02*
