G75*
%MOIN*%
%OFA0B0*%
%FSLAX24Y24*%
%IPPOS*%
%LPD*%
%AMOC8*
5,1,8,0,0,1.08239X$1,22.5*
%
%ADD10R,0.0532X0.0375*%
%ADD11R,0.0651X0.0651*%
%ADD12R,0.0300X0.0560*%
%ADD13C,0.1460*%
%ADD14R,0.0375X0.0532*%
%ADD15R,0.1162X0.1556*%
%ADD16R,0.0760X0.1440*%
%ADD17R,0.0158X0.0257*%
%ADD18R,0.0336X0.0158*%
%ADD19R,0.0800X0.0800*%
%ADD20C,0.0800*%
%ADD21C,0.0360*%
%ADD22C,0.0370*%
%ADD23C,0.0420*%
D10*
X001150Y008146D03*
X001800Y008146D03*
X002375Y008146D03*
X002375Y008854D03*
X001800Y008854D03*
X001150Y008854D03*
D11*
X001386Y009700D03*
X002764Y009700D03*
D12*
X002625Y006875D03*
X002125Y006875D03*
X001625Y006875D03*
X001125Y006875D03*
X003125Y006875D03*
X003625Y006875D03*
X004125Y006875D03*
X004125Y004625D03*
X003625Y004625D03*
X003125Y004625D03*
X002625Y004625D03*
X002125Y004625D03*
X001625Y004625D03*
X001125Y004625D03*
D13*
X001750Y001750D03*
X009250Y009250D03*
D14*
X009121Y006100D03*
X009121Y005500D03*
X009829Y005500D03*
X009829Y006100D03*
D15*
X006657Y009150D03*
X003743Y009150D03*
D16*
X007650Y007200D03*
X009650Y007200D03*
D17*
X008992Y004499D03*
X008795Y004499D03*
X008598Y004499D03*
X008402Y004499D03*
X008205Y004499D03*
X008008Y004499D03*
X008008Y003751D03*
X008205Y003751D03*
X008402Y003751D03*
X008598Y003751D03*
X008795Y003751D03*
X008992Y003751D03*
X006867Y003751D03*
X006670Y003751D03*
X006473Y003751D03*
X006277Y003751D03*
X006080Y003751D03*
X005883Y003751D03*
X005883Y004499D03*
X006080Y004499D03*
X006277Y004499D03*
X006473Y004499D03*
X006670Y004499D03*
X006867Y004499D03*
D18*
X006906Y004223D03*
X006906Y004027D03*
X005844Y004027D03*
X005844Y004223D03*
X007969Y004223D03*
X007969Y004027D03*
X009031Y004027D03*
X009031Y004223D03*
D19*
X006500Y002000D03*
D20*
X007500Y002000D03*
X008500Y002000D03*
X009500Y002000D03*
X005500Y002000D03*
X004500Y002000D03*
X005125Y007250D03*
X006125Y007250D03*
D21*
X007725Y008275D03*
X008300Y007200D03*
X007150Y005500D03*
X007175Y004750D03*
X007500Y004750D03*
X007600Y004425D03*
X007600Y004100D03*
X007600Y003775D03*
X007275Y003775D03*
X007275Y004100D03*
X007275Y004425D03*
X008000Y003250D03*
X008000Y002400D03*
X007975Y001300D03*
X009000Y001300D03*
X009350Y003250D03*
X009375Y003825D03*
X009375Y004125D03*
X009375Y004450D03*
X009375Y004800D03*
X006500Y001300D03*
X005000Y001300D03*
X003500Y001300D03*
X003500Y002000D03*
X003750Y003000D03*
X003225Y003075D03*
X004800Y003100D03*
X005000Y003850D03*
X005000Y004175D03*
X005325Y004175D03*
X005325Y003850D03*
X005325Y004500D03*
X005625Y004800D03*
X004625Y004825D03*
X005750Y003275D03*
X001950Y005575D03*
X001775Y007625D03*
X001225Y003200D03*
X007700Y010125D03*
D22*
X008800Y007675D03*
X008850Y006700D03*
X008475Y006150D03*
X006825Y006750D03*
X003900Y007575D03*
X003000Y008175D03*
D23*
X003000Y007500D03*
X002925Y009125D03*
X001000Y007600D03*
M02*
