G75*
%MOIN*%
%OFA0B0*%
%FSLAX24Y24*%
%IPPOS*%
%LPD*%
%AMOC8*
5,1,8,0,0,1.08239X$1,22.5*
%
%ADD10R,0.0472X0.0315*%
%ADD11R,0.0591X0.0591*%
%ADD12R,0.0240X0.0500*%
%ADD13R,0.0315X0.0472*%
%ADD14R,0.1102X0.1496*%
%ADD15R,0.0700X0.1380*%
%ADD16R,0.0098X0.0197*%
%ADD17R,0.0276X0.0098*%
%ADD18R,0.0740X0.0740*%
%ADD19C,0.0740*%
%ADD20C,0.0300*%
%ADD21C,0.0100*%
%ADD22C,0.0300*%
%ADD23C,0.0310*%
%ADD24C,0.0360*%
D10*
X001150Y008146D03*
X001800Y008146D03*
X002375Y008146D03*
X002375Y008854D03*
X001800Y008854D03*
X001150Y008854D03*
D11*
X001386Y009700D03*
X002764Y009700D03*
D12*
X002625Y006875D03*
X002125Y006875D03*
X001625Y006875D03*
X001125Y006875D03*
X003125Y006875D03*
X003625Y006875D03*
X004125Y006875D03*
X004125Y004625D03*
X003625Y004625D03*
X003125Y004625D03*
X002625Y004625D03*
X002125Y004625D03*
X001625Y004625D03*
X001125Y004625D03*
D13*
X009121Y005500D03*
X009121Y006100D03*
X009829Y006100D03*
X009829Y005500D03*
D14*
X006657Y009150D03*
X003743Y009150D03*
D15*
X007650Y007200D03*
X009650Y007200D03*
D16*
X008992Y004499D03*
X008795Y004499D03*
X008598Y004499D03*
X008402Y004499D03*
X008205Y004499D03*
X008008Y004499D03*
X008008Y003751D03*
X008205Y003751D03*
X008402Y003751D03*
X008598Y003751D03*
X008795Y003751D03*
X008992Y003751D03*
X006867Y003751D03*
X006670Y003751D03*
X006473Y003751D03*
X006277Y003751D03*
X006080Y003751D03*
X005883Y003751D03*
X005883Y004499D03*
X006080Y004499D03*
X006277Y004499D03*
X006473Y004499D03*
X006670Y004499D03*
X006867Y004499D03*
D17*
X006906Y004223D03*
X006906Y004027D03*
X005844Y004027D03*
X005844Y004223D03*
X007969Y004223D03*
X007969Y004027D03*
X009031Y004027D03*
X009031Y004223D03*
D18*
X006500Y002000D03*
D19*
X007500Y002000D03*
X008500Y002000D03*
X009500Y002000D03*
X005500Y002000D03*
X004500Y002000D03*
X005125Y007250D03*
X006125Y007250D03*
D20*
X007725Y008275D03*
X008300Y007200D03*
X007150Y005500D03*
X007175Y004750D03*
X007500Y004750D03*
X007600Y004425D03*
X007600Y004100D03*
X007600Y003775D03*
X007275Y003775D03*
X007275Y004100D03*
X007275Y004425D03*
X008000Y003250D03*
X008000Y002400D03*
X007975Y001300D03*
X009000Y001300D03*
X009350Y003250D03*
X009375Y003825D03*
X009375Y004125D03*
X009375Y004450D03*
X009375Y004800D03*
X006500Y001300D03*
X005000Y001300D03*
X003500Y001300D03*
X003500Y002000D03*
X003750Y003000D03*
X003225Y003075D03*
X004800Y003100D03*
X005000Y003850D03*
X005000Y004175D03*
X005325Y004175D03*
X005325Y003850D03*
X005325Y004500D03*
X005625Y004800D03*
X004625Y004825D03*
X005750Y003275D03*
X001950Y005575D03*
X001775Y007625D03*
X001225Y003200D03*
X007700Y010125D03*
D21*
X006090Y002667D02*
X002702Y002667D01*
X002730Y002639D02*
X002639Y002730D01*
X002638Y002736D01*
X002618Y002752D01*
X002600Y002770D01*
X002594Y002770D01*
X002491Y002847D01*
X002489Y002853D01*
X002466Y002865D01*
X002446Y002880D01*
X002440Y002879D01*
X002327Y002941D01*
X002325Y002946D01*
X002301Y002955D01*
X002278Y002968D01*
X002272Y002966D01*
X002152Y003011D01*
X002148Y003016D01*
X002123Y003022D01*
X002099Y003030D01*
X002094Y003028D01*
X001968Y003055D01*
X001964Y003060D01*
X001939Y003062D01*
X001913Y003067D01*
X001908Y003064D01*
X001783Y003073D01*
X001781Y003075D01*
X001753Y003075D01*
X001724Y003077D01*
X001722Y003075D01*
X000775Y003075D01*
X000775Y006124D01*
X000809Y006090D01*
X000965Y005934D01*
X000965Y004985D01*
X000959Y004985D01*
X000895Y004921D01*
X000895Y004329D01*
X000959Y004265D01*
X001291Y004265D01*
X001355Y004329D01*
X001355Y004921D01*
X001291Y004985D01*
X001285Y004985D01*
X001285Y005439D01*
X001309Y005415D01*
X001742Y005415D01*
X001803Y005355D01*
X001898Y005315D01*
X001965Y005315D01*
X001965Y004985D01*
X001959Y004985D01*
X001895Y004921D01*
X001895Y004329D01*
X001939Y004285D01*
X001811Y004285D01*
X001855Y004329D01*
X001855Y004921D01*
X001791Y004985D01*
X001459Y004985D01*
X001395Y004921D01*
X001395Y004329D01*
X001459Y004265D01*
X001465Y004265D01*
X001465Y004059D01*
X001559Y003965D01*
X003590Y003965D01*
X003590Y003208D01*
X003530Y003147D01*
X003490Y003052D01*
X003490Y002948D01*
X003530Y002853D01*
X003603Y002780D01*
X003698Y002740D01*
X003802Y002740D01*
X003897Y002780D01*
X003970Y002853D01*
X004010Y002948D01*
X004010Y003052D01*
X003970Y003147D01*
X003910Y003208D01*
X003910Y004191D01*
X003816Y004285D01*
X003811Y004285D01*
X003855Y004329D01*
X003855Y004921D01*
X003813Y004962D01*
X003816Y004965D01*
X003884Y004965D01*
X003865Y004933D01*
X003855Y004895D01*
X003855Y004635D01*
X004115Y004635D01*
X004115Y004615D01*
X004135Y004615D01*
X004135Y004635D01*
X004395Y004635D01*
X004395Y004895D01*
X004385Y004933D01*
X004366Y004965D01*
X005422Y004965D01*
X005417Y004960D01*
X005064Y004960D01*
X005063Y004961D01*
X004998Y004960D01*
X004934Y004960D01*
X004932Y004958D01*
X004930Y004958D01*
X004886Y004912D01*
X004840Y004866D01*
X004840Y004864D01*
X004395Y004398D01*
X004395Y004615D01*
X004135Y004615D01*
X004135Y004225D01*
X004265Y004225D01*
X004303Y004235D01*
X004315Y004242D01*
X004315Y003484D01*
X004565Y003234D01*
X004571Y003227D01*
X004540Y003152D01*
X004540Y003048D01*
X004580Y002953D01*
X004653Y002880D01*
X004748Y002840D01*
X004852Y002840D01*
X004947Y002880D01*
X005020Y002953D01*
X005060Y003048D01*
X005060Y003134D01*
X005160Y003234D01*
X005160Y003366D01*
X005066Y003460D01*
X004791Y003460D01*
X004635Y003616D01*
X004635Y004186D01*
X005068Y004640D01*
X005417Y004640D01*
X005466Y004592D01*
X005466Y004499D01*
X005466Y004433D01*
X005466Y004433D01*
X005466Y004432D01*
X005513Y004386D01*
X005560Y004339D01*
X005560Y004339D01*
X005560Y004339D01*
X005571Y004339D01*
X005566Y004331D01*
X005556Y004292D01*
X005556Y004223D01*
X005556Y004154D01*
X005564Y004125D01*
X005556Y004096D01*
X005556Y004027D01*
X005677Y004027D01*
X005677Y004027D01*
X005556Y004027D01*
X005556Y003958D01*
X005566Y003919D01*
X005586Y003885D01*
X005614Y003857D01*
X005648Y003838D01*
X005686Y003827D01*
X005724Y003827D01*
X005724Y003801D01*
X005635Y003671D01*
X005600Y003638D01*
X005599Y003618D01*
X005588Y003602D01*
X005597Y003554D01*
X005596Y003488D01*
X005530Y003422D01*
X005490Y003327D01*
X005490Y003223D01*
X005530Y003128D01*
X005603Y003055D01*
X005698Y003015D01*
X005802Y003015D01*
X005897Y003055D01*
X005970Y003128D01*
X005990Y003175D01*
X005990Y002823D01*
X006030Y002728D01*
X006103Y002655D01*
X006240Y002517D01*
X006240Y002480D01*
X006084Y002480D01*
X006020Y002416D01*
X006020Y001584D01*
X006084Y001520D01*
X006916Y001520D01*
X006980Y001584D01*
X006980Y002416D01*
X006916Y002480D01*
X006760Y002480D01*
X006760Y002677D01*
X006720Y002772D01*
X006510Y002983D01*
X006510Y003214D01*
X006540Y003184D01*
X006634Y003090D01*
X006667Y003090D01*
X006782Y002975D01*
X007094Y002273D01*
X006980Y002273D01*
X006980Y002175D02*
X007053Y002175D01*
X007020Y002095D02*
X007020Y001905D01*
X007093Y001728D01*
X007228Y001593D01*
X007405Y001520D01*
X007595Y001520D01*
X007772Y001593D01*
X007907Y001728D01*
X007980Y001905D01*
X007980Y002095D01*
X007907Y002272D01*
X007772Y002407D01*
X007595Y002480D01*
X007571Y002480D01*
X007239Y003228D01*
X007220Y003272D01*
X007218Y003275D01*
X007217Y003278D01*
X007181Y003311D01*
X007022Y003470D01*
X006941Y003504D01*
X006974Y003513D01*
X007008Y003533D01*
X007036Y003560D01*
X007056Y003595D01*
X007066Y003633D01*
X007066Y003751D01*
X006867Y003751D01*
X006867Y003751D01*
X006670Y003751D01*
X006670Y003981D01*
X006625Y004027D01*
X006527Y004125D01*
X006575Y004125D01*
X006621Y004145D02*
X006129Y004145D01*
X006131Y004154D02*
X006123Y004125D01*
X006131Y004096D01*
X006131Y004027D01*
X006010Y004027D01*
X006010Y004027D01*
X006131Y004027D01*
X006131Y003959D01*
X006175Y003959D01*
X006178Y003956D01*
X006182Y003959D01*
X006371Y003959D01*
X006375Y003956D01*
X006379Y003959D01*
X006519Y003959D01*
X006529Y003969D01*
X006563Y003989D01*
X006601Y003999D01*
X006619Y003999D01*
X006619Y004027D01*
X006740Y004027D01*
X006740Y004027D01*
X006619Y004027D01*
X006619Y004096D01*
X006627Y004125D01*
X006619Y004154D01*
X006619Y004223D01*
X006740Y004223D01*
X006740Y004223D01*
X006619Y004223D01*
X006619Y004291D01*
X006575Y004291D01*
X006572Y004294D01*
X006568Y004291D01*
X006379Y004291D01*
X006375Y004294D01*
X006371Y004291D01*
X006182Y004291D01*
X006178Y004294D01*
X006175Y004291D01*
X006131Y004291D01*
X006131Y004223D01*
X006010Y004223D01*
X006010Y004223D01*
X006131Y004223D01*
X006131Y004154D01*
X006131Y004243D02*
X006619Y004243D01*
X006619Y004046D02*
X006131Y004046D01*
X006080Y003751D02*
X005980Y003505D01*
X005750Y003275D01*
X005758Y003567D01*
X005883Y003751D01*
X005689Y003751D02*
X004635Y003751D01*
X004635Y003849D02*
X005628Y003849D01*
X005558Y003948D02*
X004635Y003948D01*
X004635Y004046D02*
X005556Y004046D01*
X005558Y004145D02*
X004635Y004145D01*
X004690Y004243D02*
X005556Y004243D01*
X005556Y004223D02*
X005677Y004223D01*
X005556Y004223D01*
X005557Y004342D02*
X004784Y004342D01*
X004878Y004440D02*
X005466Y004440D01*
X005466Y004539D02*
X004972Y004539D01*
X005066Y004637D02*
X005420Y004637D01*
X005626Y004499D02*
X005625Y004800D01*
X005000Y004800D01*
X004475Y004250D01*
X004475Y003550D01*
X004725Y003300D01*
X005000Y003300D01*
X004800Y003100D01*
X005060Y003061D02*
X005596Y003061D01*
X005516Y003160D02*
X005086Y003160D01*
X005160Y003258D02*
X005490Y003258D01*
X005502Y003357D02*
X005160Y003357D01*
X005071Y003455D02*
X005562Y003455D01*
X005597Y003554D02*
X004698Y003554D01*
X004635Y003652D02*
X005615Y003652D01*
X005844Y004027D02*
X005745Y004125D01*
X005625Y004125D01*
X005677Y004223D02*
X005677Y004223D01*
X005843Y004223D02*
X005844Y004223D01*
X005844Y004027D01*
X005843Y004027D01*
X005843Y004223D01*
X005844Y004223D02*
X005844Y004027D01*
X006625Y004027D01*
X006906Y004027D01*
X006906Y004223D01*
X006907Y004223D01*
X006907Y004027D01*
X006906Y004027D01*
X006867Y003987D01*
X006867Y003751D01*
X006670Y003751D01*
X006670Y003751D01*
X006473Y003751D02*
X006473Y003652D01*
X006475Y003650D01*
X006475Y003475D01*
X006700Y003250D01*
X006875Y003250D01*
X006696Y003061D02*
X006510Y003061D01*
X006510Y003160D02*
X006564Y003160D01*
X006530Y002963D02*
X006788Y002963D01*
X006831Y002864D02*
X006629Y002864D01*
X006723Y002766D02*
X006875Y002766D01*
X006919Y002667D02*
X006760Y002667D01*
X006760Y002569D02*
X006963Y002569D01*
X006926Y002470D02*
X007007Y002470D01*
X006980Y002372D02*
X007050Y002372D01*
X007094Y002273D02*
X007093Y002272D01*
X007020Y002095D01*
X007020Y002076D02*
X006980Y002076D01*
X006980Y001978D02*
X007020Y001978D01*
X007031Y001879D02*
X006980Y001879D01*
X006980Y001781D02*
X007071Y001781D01*
X007139Y001682D02*
X006980Y001682D01*
X006979Y001584D02*
X007251Y001584D01*
X007749Y001584D02*
X008251Y001584D01*
X008228Y001593D02*
X008405Y001520D01*
X008595Y001520D01*
X008772Y001593D01*
X008907Y001728D01*
X008980Y001905D01*
X008980Y002095D01*
X008940Y002192D01*
X009025Y002107D01*
X009020Y002095D01*
X009020Y001905D01*
X009093Y001728D01*
X009228Y001593D01*
X009405Y001520D01*
X009595Y001520D01*
X009772Y001593D01*
X009907Y001728D01*
X009980Y001905D01*
X009980Y002095D01*
X009907Y002272D01*
X009772Y002407D01*
X009595Y002480D01*
X009405Y002480D01*
X009393Y002475D01*
X009185Y002683D01*
X009185Y003047D01*
X009203Y003030D01*
X009205Y003029D01*
X009206Y003027D01*
X009253Y003009D01*
X009298Y002990D01*
X009301Y002990D01*
X009303Y002989D01*
X009352Y002990D01*
X009402Y002990D01*
X009404Y002991D01*
X009406Y002991D01*
X009452Y003011D01*
X009497Y003030D01*
X009499Y003031D01*
X009501Y003032D01*
X009535Y003068D01*
X009570Y003103D01*
X009571Y003105D01*
X010015Y003563D01*
X010050Y003598D01*
X010051Y003600D01*
X010052Y003602D01*
X010070Y003648D01*
X010089Y003694D01*
X010089Y003696D01*
X010090Y003698D01*
X010089Y003748D01*
X010089Y005211D01*
X010097Y005218D01*
X010097Y005782D01*
X010089Y005789D01*
X010089Y005811D01*
X010097Y005818D01*
X010097Y006382D01*
X010089Y006389D01*
X010089Y006444D01*
X010110Y006464D01*
X010110Y007925D01*
X010225Y007925D01*
X010225Y001331D01*
X009669Y000775D01*
X003075Y000775D01*
X003075Y001722D01*
X003077Y001724D01*
X003075Y001753D01*
X003075Y001781D01*
X003073Y001783D01*
X003064Y001908D01*
X003067Y001913D01*
X003062Y001939D01*
X003060Y001964D01*
X003055Y001968D01*
X003028Y002094D01*
X003030Y002099D01*
X003022Y002123D01*
X003016Y002148D01*
X003011Y002152D01*
X002966Y002272D01*
X002968Y002278D01*
X002955Y002301D01*
X002946Y002325D01*
X002941Y002327D01*
X002879Y002440D01*
X002880Y002446D01*
X002865Y002466D01*
X002853Y002489D01*
X002847Y002491D01*
X002770Y002594D01*
X002770Y002600D01*
X002752Y002618D01*
X002736Y002638D01*
X002730Y002639D01*
X002788Y002569D02*
X006189Y002569D01*
X006103Y002655D02*
X006103Y002655D01*
X006014Y002766D02*
X003863Y002766D01*
X003975Y002864D02*
X004690Y002864D01*
X004576Y002963D02*
X004010Y002963D01*
X004006Y003061D02*
X004540Y003061D01*
X004543Y003160D02*
X003958Y003160D01*
X003910Y003258D02*
X004541Y003258D01*
X004442Y003357D02*
X003910Y003357D01*
X003910Y003455D02*
X004344Y003455D01*
X004315Y003554D02*
X003910Y003554D01*
X003910Y003652D02*
X004315Y003652D01*
X004315Y003751D02*
X003910Y003751D01*
X003910Y003849D02*
X004315Y003849D01*
X004315Y003948D02*
X003910Y003948D01*
X003910Y004046D02*
X004315Y004046D01*
X004315Y004145D02*
X003910Y004145D01*
X003947Y004235D02*
X003913Y004255D01*
X003885Y004283D01*
X003865Y004317D01*
X003855Y004355D01*
X003855Y004615D01*
X004115Y004615D01*
X004115Y004225D01*
X003985Y004225D01*
X003947Y004235D01*
X003934Y004243D02*
X003858Y004243D01*
X003855Y004342D02*
X003859Y004342D01*
X003855Y004440D02*
X003855Y004440D01*
X003855Y004539D02*
X003855Y004539D01*
X003855Y004637D02*
X003855Y004637D01*
X003855Y004736D02*
X003855Y004736D01*
X003855Y004834D02*
X003855Y004834D01*
X003843Y004933D02*
X003865Y004933D01*
X003750Y005125D02*
X005925Y005125D01*
X006250Y004800D01*
X006250Y004526D01*
X006277Y004499D01*
X006080Y004499D02*
X005883Y004499D01*
X005626Y004499D01*
X005844Y004223D02*
X006906Y004223D01*
X007969Y004223D01*
X007968Y004223D01*
X007968Y004027D01*
X007969Y004027D01*
X007969Y004223D01*
X009031Y004223D01*
X009032Y004223D01*
X009032Y004027D01*
X009031Y004027D01*
X009031Y004223D01*
X009031Y004145D02*
X009032Y004145D01*
X009031Y004046D02*
X009032Y004046D01*
X009031Y004027D02*
X008992Y003987D01*
X008992Y003751D01*
X008992Y003751D01*
X008795Y003751D01*
X008992Y003751D01*
X009191Y003751D01*
X008992Y003751D01*
X008992Y003751D01*
X008795Y003751D02*
X008795Y003751D01*
X008598Y003751D02*
X008598Y003652D01*
X008600Y003650D01*
X008600Y003500D01*
X008750Y003500D01*
X008925Y003250D01*
X009088Y003455D02*
X009187Y003455D01*
X009165Y003432D02*
X009137Y003405D01*
X009072Y003470D01*
X008995Y003503D01*
X009061Y003503D01*
X009099Y003513D01*
X009133Y003533D01*
X009161Y003560D01*
X009181Y003595D01*
X009191Y003633D01*
X009191Y003751D01*
X009191Y003828D01*
X009227Y003838D01*
X009261Y003857D01*
X009289Y003885D01*
X009309Y003919D01*
X009319Y003958D01*
X009319Y004027D01*
X009319Y004096D01*
X009311Y004125D01*
X009319Y004154D01*
X009319Y004223D01*
X009198Y004223D01*
X009198Y004223D01*
X009319Y004223D01*
X009319Y004292D01*
X009309Y004331D01*
X009289Y004365D01*
X009261Y004393D01*
X009227Y004412D01*
X009189Y004423D01*
X009151Y004423D01*
X009151Y004432D01*
X009160Y004441D01*
X009160Y005066D01*
X009092Y005134D01*
X009092Y005471D01*
X009149Y005471D01*
X009149Y005114D01*
X009298Y005114D01*
X009336Y005124D01*
X009370Y005144D01*
X009398Y005172D01*
X009418Y005206D01*
X009428Y005244D01*
X009428Y005471D01*
X009149Y005471D01*
X009149Y005529D01*
X009092Y005529D01*
X009092Y005886D01*
X009092Y006071D01*
X009149Y006071D01*
X009149Y005529D01*
X009428Y005529D01*
X009428Y005756D01*
X009418Y005794D01*
X009415Y005800D01*
X009418Y005806D01*
X009428Y005844D01*
X009428Y006071D01*
X009149Y006071D01*
X009149Y006129D01*
X009092Y006129D01*
X009092Y006486D01*
X008943Y006486D01*
X008905Y006476D01*
X008871Y006456D01*
X008843Y006428D01*
X008823Y006394D01*
X008813Y006356D01*
X008813Y006129D01*
X009092Y006129D01*
X009092Y006071D01*
X008813Y006071D01*
X008813Y005844D01*
X008823Y005806D01*
X008827Y005800D01*
X008823Y005794D01*
X008813Y005756D01*
X008813Y005529D01*
X009092Y005529D01*
X009092Y005471D01*
X008813Y005471D01*
X008813Y005413D01*
X007826Y006400D01*
X008046Y006400D01*
X008110Y006464D01*
X008110Y006940D01*
X008352Y006940D01*
X008447Y006980D01*
X008520Y007053D01*
X008560Y007148D01*
X008560Y007252D01*
X008520Y007347D01*
X008447Y007420D01*
X008352Y007460D01*
X008110Y007460D01*
X008110Y007936D01*
X008046Y008000D01*
X007254Y008000D01*
X007240Y007986D01*
X007240Y007986D01*
X007160Y008066D01*
X007160Y008292D01*
X007253Y008292D01*
X007318Y008356D01*
X007318Y009944D01*
X007253Y010008D01*
X006060Y010008D01*
X005996Y009944D01*
X005996Y008356D01*
X006060Y008292D01*
X006840Y008292D01*
X006840Y007934D01*
X006934Y007840D01*
X007190Y007584D01*
X007190Y006535D01*
X004311Y006535D01*
X004355Y006579D01*
X004355Y006715D01*
X004816Y006715D01*
X004918Y006816D01*
X005030Y006770D01*
X005220Y006770D01*
X005397Y006843D01*
X005532Y006978D01*
X005605Y007155D01*
X005605Y007345D01*
X005532Y007522D01*
X005397Y007657D01*
X005220Y007730D01*
X005030Y007730D01*
X004853Y007657D01*
X004718Y007522D01*
X004645Y007345D01*
X004645Y007155D01*
X004691Y007043D01*
X004684Y007035D01*
X004355Y007035D01*
X004355Y007171D01*
X004291Y007235D01*
X003959Y007235D01*
X003895Y007171D01*
X003895Y006579D01*
X003939Y006535D01*
X003811Y006535D01*
X003855Y006579D01*
X003855Y007171D01*
X003791Y007235D01*
X003459Y007235D01*
X003395Y007171D01*
X003395Y006579D01*
X003459Y006515D01*
X003465Y006515D01*
X003465Y006355D01*
X003285Y006355D01*
X003285Y006515D01*
X003291Y006515D01*
X003355Y006579D01*
X003355Y007171D01*
X003291Y007235D01*
X003118Y007235D01*
X003164Y007254D01*
X003246Y007336D01*
X003290Y007442D01*
X003290Y007558D01*
X003246Y007664D01*
X003164Y007746D01*
X003058Y007790D01*
X002942Y007790D01*
X002836Y007746D01*
X002754Y007664D01*
X002710Y007558D01*
X002710Y007442D01*
X002712Y007438D01*
X002509Y007235D01*
X002459Y007235D01*
X002395Y007171D01*
X002395Y006579D01*
X002459Y006515D01*
X002791Y006515D01*
X002855Y006579D01*
X002855Y007129D01*
X002895Y007169D01*
X002895Y006579D01*
X002959Y006515D01*
X002965Y006515D01*
X002965Y006175D01*
X002285Y006175D01*
X002285Y006515D01*
X002291Y006515D01*
X002355Y006579D01*
X002355Y007171D01*
X002291Y007235D01*
X001959Y007235D01*
X001895Y007171D01*
X001895Y006579D01*
X001959Y006515D01*
X001965Y006515D01*
X001965Y005995D01*
X001785Y005995D01*
X001785Y006515D01*
X001791Y006515D01*
X001855Y006579D01*
X001855Y007171D01*
X001791Y007235D01*
X001459Y007235D01*
X001395Y007171D01*
X001395Y006706D01*
X001381Y006720D01*
X001355Y006773D01*
X001355Y007171D01*
X001291Y007235D01*
X001035Y007235D01*
X001035Y007310D01*
X001058Y007310D01*
X001164Y007354D01*
X001246Y007436D01*
X001290Y007542D01*
X001290Y007658D01*
X001246Y007764D01*
X001164Y007846D01*
X001160Y007848D01*
X001160Y007878D01*
X001432Y007878D01*
X001475Y007921D01*
X001518Y007878D01*
X001685Y007878D01*
X001687Y007870D01*
X001628Y007845D01*
X001555Y007772D01*
X001515Y007677D01*
X001515Y007573D01*
X001555Y007478D01*
X001628Y007405D01*
X001723Y007365D01*
X001827Y007365D01*
X001922Y007405D01*
X001995Y007478D01*
X002035Y007573D01*
X002035Y007675D01*
X002044Y007688D01*
X002035Y007739D01*
X002035Y007791D01*
X002024Y007803D01*
X002010Y007878D01*
X002082Y007878D01*
X002088Y007884D01*
X002093Y007878D01*
X002657Y007878D01*
X002721Y007943D01*
X002721Y008349D01*
X002657Y008413D01*
X002093Y008413D01*
X002088Y008407D01*
X002082Y008413D01*
X001518Y008413D01*
X001475Y008370D01*
X001432Y008413D01*
X000868Y008413D01*
X000804Y008349D01*
X000804Y007943D01*
X000840Y007906D01*
X000840Y007848D01*
X000836Y007846D01*
X000775Y007785D01*
X000775Y009669D01*
X000981Y009875D01*
X000981Y009359D01*
X000990Y009350D01*
X000990Y009122D01*
X000868Y009122D01*
X000804Y009057D01*
X000804Y008651D01*
X000868Y008587D01*
X001432Y008587D01*
X001447Y008602D01*
X001472Y008577D01*
X001506Y008557D01*
X001544Y008547D01*
X001771Y008547D01*
X001771Y008826D01*
X001829Y008826D01*
X001829Y008883D01*
X002186Y008883D01*
X002346Y008883D01*
X002346Y008826D01*
X001829Y008826D01*
X001829Y008547D01*
X002056Y008547D01*
X002088Y008555D01*
X002119Y008547D01*
X002346Y008547D01*
X002346Y008826D01*
X002404Y008826D01*
X002404Y008883D01*
X002761Y008883D01*
X002761Y009032D01*
X002751Y009070D01*
X002731Y009104D01*
X002703Y009132D01*
X002669Y009152D01*
X002631Y009162D01*
X002404Y009162D01*
X002404Y008883D01*
X002346Y008883D01*
X002346Y009162D01*
X002119Y009162D01*
X002088Y009153D01*
X002056Y009162D01*
X001829Y009162D01*
X001829Y008883D01*
X001771Y008883D01*
X001771Y009162D01*
X001544Y009162D01*
X001506Y009152D01*
X001472Y009132D01*
X001447Y009107D01*
X001432Y009122D01*
X001310Y009122D01*
X001310Y009295D01*
X001727Y009295D01*
X001791Y009359D01*
X001791Y010041D01*
X001727Y010105D01*
X001211Y010105D01*
X001331Y010225D01*
X007460Y010225D01*
X007440Y010177D01*
X007440Y010073D01*
X007480Y009978D01*
X007553Y009905D01*
X007648Y009865D01*
X007752Y009865D01*
X007847Y009905D01*
X007920Y009978D01*
X007925Y009989D01*
X007925Y009278D01*
X007923Y009276D01*
X007925Y009247D01*
X007925Y009219D01*
X007927Y009217D01*
X007936Y009092D01*
X007933Y009087D01*
X007938Y009061D01*
X007940Y009036D01*
X007945Y009032D01*
X007972Y008906D01*
X007970Y008901D01*
X007978Y008877D01*
X007984Y008852D01*
X007989Y008848D01*
X008034Y008728D01*
X008032Y008722D01*
X008045Y008699D01*
X008054Y008675D01*
X008059Y008673D01*
X008121Y008560D01*
X008120Y008554D01*
X008135Y008534D01*
X008147Y008511D01*
X008153Y008509D01*
X008230Y008406D01*
X008230Y008400D01*
X008248Y008382D01*
X008264Y008362D01*
X008270Y008361D01*
X008361Y008270D01*
X008362Y008264D01*
X008382Y008248D01*
X008400Y008230D01*
X008406Y008230D01*
X008509Y008153D01*
X008511Y008147D01*
X008534Y008135D01*
X008554Y008120D01*
X008560Y008121D01*
X008673Y008059D01*
X008675Y008054D01*
X008699Y008045D01*
X008722Y008032D01*
X008728Y008034D01*
X008848Y007989D01*
X008852Y007984D01*
X008877Y007978D01*
X008901Y007970D01*
X008906Y007972D01*
X009032Y007945D01*
X009036Y007940D01*
X009061Y007938D01*
X009077Y007935D01*
X008865Y007935D01*
X008853Y007940D01*
X008747Y007940D01*
X008650Y007900D01*
X008575Y007825D01*
X008535Y007728D01*
X008535Y007622D01*
X008575Y007525D01*
X008650Y007450D01*
X008747Y007410D01*
X008853Y007410D01*
X008865Y007415D01*
X009190Y007415D01*
X009190Y006486D01*
X009149Y006486D01*
X009149Y006129D01*
X009428Y006129D01*
X009428Y006356D01*
X009418Y006394D01*
X009415Y006400D01*
X009569Y006400D01*
X009569Y006389D01*
X009562Y006382D01*
X009562Y005818D01*
X009569Y005811D01*
X009569Y005789D01*
X009562Y005782D01*
X009562Y005218D01*
X009569Y005211D01*
X009569Y003851D01*
X009165Y003432D01*
X009154Y003554D02*
X009282Y003554D01*
X009191Y003652D02*
X009377Y003652D01*
X009472Y003751D02*
X009191Y003751D01*
X009247Y003849D02*
X009568Y003849D01*
X009569Y003948D02*
X009317Y003948D01*
X009319Y004027D02*
X009198Y004027D01*
X009319Y004027D01*
X009319Y004046D02*
X009569Y004046D01*
X009569Y004145D02*
X009317Y004145D01*
X009319Y004243D02*
X009569Y004243D01*
X009569Y004342D02*
X009303Y004342D01*
X009159Y004440D02*
X009569Y004440D01*
X009569Y004539D02*
X009160Y004539D01*
X009160Y004637D02*
X009569Y004637D01*
X009569Y004736D02*
X009160Y004736D01*
X009160Y004834D02*
X009569Y004834D01*
X009569Y004933D02*
X009160Y004933D01*
X009160Y005031D02*
X009569Y005031D01*
X009569Y005130D02*
X009346Y005130D01*
X009424Y005228D02*
X009562Y005228D01*
X009562Y005327D02*
X009428Y005327D01*
X009428Y005425D02*
X009562Y005425D01*
X009562Y005524D02*
X009149Y005524D01*
X009092Y005524D02*
X008703Y005524D01*
X008604Y005622D02*
X008813Y005622D01*
X008813Y005721D02*
X008506Y005721D01*
X008407Y005819D02*
X008820Y005819D01*
X008813Y005918D02*
X008309Y005918D01*
X008210Y006016D02*
X008813Y006016D01*
X008813Y006213D02*
X008013Y006213D01*
X007915Y006312D02*
X008813Y006312D01*
X008833Y006410D02*
X008056Y006410D01*
X008110Y006509D02*
X009190Y006509D01*
X009190Y006607D02*
X008110Y006607D01*
X008110Y006706D02*
X009190Y006706D01*
X009190Y006804D02*
X008110Y006804D01*
X008110Y006903D02*
X009190Y006903D01*
X009190Y007001D02*
X008469Y007001D01*
X008540Y007100D02*
X009190Y007100D01*
X009190Y007198D02*
X008560Y007198D01*
X008541Y007297D02*
X009190Y007297D01*
X009190Y007395D02*
X008473Y007395D01*
X008607Y007494D02*
X008110Y007494D01*
X008110Y007592D02*
X008548Y007592D01*
X008535Y007691D02*
X008110Y007691D01*
X008110Y007789D02*
X008560Y007789D01*
X008638Y007888D02*
X008110Y007888D01*
X008060Y007986D02*
X008850Y007986D01*
X008626Y008085D02*
X007160Y008085D01*
X007160Y008183D02*
X008470Y008183D01*
X008349Y008282D02*
X007160Y008282D01*
X007318Y008380D02*
X008250Y008380D01*
X008176Y008479D02*
X007318Y008479D01*
X007318Y008577D02*
X008111Y008577D01*
X008054Y008676D02*
X007318Y008676D01*
X007318Y008774D02*
X008017Y008774D01*
X007979Y008873D02*
X007318Y008873D01*
X007318Y008971D02*
X007958Y008971D01*
X007937Y009070D02*
X007318Y009070D01*
X007318Y009168D02*
X007931Y009168D01*
X007924Y009267D02*
X007318Y009267D01*
X007318Y009365D02*
X007925Y009365D01*
X007925Y009464D02*
X007318Y009464D01*
X007318Y009562D02*
X007925Y009562D01*
X007925Y009661D02*
X007318Y009661D01*
X007318Y009759D02*
X007925Y009759D01*
X007925Y009858D02*
X007318Y009858D01*
X007305Y009956D02*
X007501Y009956D01*
X007448Y010055D02*
X003198Y010055D01*
X003199Y010053D02*
X003179Y010087D01*
X003151Y010115D01*
X003117Y010135D01*
X003079Y010145D01*
X002814Y010145D01*
X002814Y009750D01*
X002714Y009750D01*
X002714Y010145D01*
X002449Y010145D01*
X002411Y010135D01*
X002377Y010115D01*
X002349Y010087D01*
X002329Y010053D01*
X002319Y010015D01*
X002319Y009750D01*
X002714Y009750D01*
X002714Y009650D01*
X002814Y009650D01*
X002814Y009255D01*
X003079Y009255D01*
X003082Y009256D01*
X003082Y008356D01*
X003147Y008292D01*
X004340Y008292D01*
X004388Y008340D01*
X004934Y008340D01*
X005735Y007539D01*
X005718Y007522D01*
X005645Y007345D01*
X005645Y007155D01*
X005718Y006978D01*
X005853Y006843D01*
X006030Y006770D01*
X006220Y006770D01*
X006397Y006843D01*
X006532Y006978D01*
X006605Y007155D01*
X006605Y007345D01*
X006532Y007522D01*
X006397Y007657D01*
X006220Y007730D01*
X006030Y007730D01*
X006006Y007720D01*
X005160Y008566D01*
X005066Y008660D01*
X004404Y008660D01*
X004404Y009944D01*
X004340Y010008D01*
X003209Y010008D01*
X003209Y010015D01*
X003199Y010053D01*
X002814Y010055D02*
X002714Y010055D01*
X002714Y009956D02*
X002814Y009956D01*
X002814Y009858D02*
X002714Y009858D01*
X002714Y009759D02*
X002814Y009759D01*
X002764Y009700D02*
X002475Y009411D01*
X002375Y008854D01*
X002504Y008854D01*
X002925Y009125D01*
X003082Y009168D02*
X001310Y009168D01*
X001310Y009267D02*
X002408Y009267D01*
X002411Y009265D02*
X002377Y009285D01*
X002349Y009313D01*
X002329Y009347D01*
X002319Y009385D01*
X002319Y009650D01*
X002714Y009650D01*
X002714Y009255D01*
X002449Y009255D01*
X002411Y009265D01*
X002324Y009365D02*
X001791Y009365D01*
X001791Y009464D02*
X002319Y009464D01*
X002319Y009562D02*
X001791Y009562D01*
X001791Y009661D02*
X002714Y009661D01*
X002714Y009562D02*
X002814Y009562D01*
X002814Y009464D02*
X002714Y009464D01*
X002714Y009365D02*
X002814Y009365D01*
X002814Y009267D02*
X002714Y009267D01*
X002751Y009070D02*
X003082Y009070D01*
X003082Y008971D02*
X002761Y008971D01*
X002761Y008826D02*
X002404Y008826D01*
X002404Y008547D01*
X002631Y008547D01*
X002669Y008557D01*
X002703Y008577D01*
X002731Y008605D01*
X002751Y008639D01*
X002761Y008677D01*
X002761Y008826D01*
X002761Y008774D02*
X003082Y008774D01*
X003082Y008676D02*
X002761Y008676D01*
X002704Y008577D02*
X003082Y008577D01*
X003082Y008479D02*
X000775Y008479D01*
X000775Y008577D02*
X001471Y008577D01*
X001465Y008380D02*
X001485Y008380D01*
X001771Y008577D02*
X001829Y008577D01*
X001829Y008676D02*
X001771Y008676D01*
X001771Y008774D02*
X001829Y008774D01*
X001800Y008854D02*
X002375Y008854D01*
X002404Y008873D02*
X003082Y008873D01*
X003082Y008380D02*
X002690Y008380D01*
X002721Y008282D02*
X004992Y008282D01*
X005091Y008183D02*
X002721Y008183D01*
X002721Y008085D02*
X005189Y008085D01*
X005288Y007986D02*
X002721Y007986D01*
X002666Y007888D02*
X005386Y007888D01*
X005485Y007789D02*
X003060Y007789D01*
X002940Y007789D02*
X002035Y007789D01*
X002044Y007691D02*
X002780Y007691D01*
X002724Y007592D02*
X002035Y007592D01*
X002002Y007494D02*
X002710Y007494D01*
X002669Y007395D02*
X001899Y007395D01*
X001922Y007198D02*
X001828Y007198D01*
X001855Y007100D02*
X001895Y007100D01*
X001895Y007001D02*
X001855Y007001D01*
X001855Y006903D02*
X001895Y006903D01*
X001895Y006804D02*
X001855Y006804D01*
X001855Y006706D02*
X001895Y006706D01*
X001895Y006607D02*
X001855Y006607D01*
X001785Y006509D02*
X001965Y006509D01*
X001965Y006410D02*
X001785Y006410D01*
X001785Y006312D02*
X001965Y006312D01*
X001965Y006213D02*
X001785Y006213D01*
X001785Y006115D02*
X001965Y006115D01*
X001965Y006016D02*
X001785Y006016D01*
X001625Y005835D02*
X006200Y005835D01*
X006210Y005825D01*
X007275Y005825D01*
X008400Y004700D01*
X008400Y004526D01*
X008402Y004499D01*
X008205Y004499D02*
X008008Y004499D01*
X008001Y004649D01*
X007150Y005500D01*
X006956Y005327D02*
X006950Y005327D01*
X006930Y005353D02*
X007003Y005280D01*
X007098Y005240D01*
X007184Y005240D01*
X007844Y004580D01*
X007848Y004495D01*
X007848Y004433D01*
X007849Y004432D01*
X007849Y004423D01*
X007811Y004423D01*
X007773Y004412D01*
X007739Y004393D01*
X007711Y004365D01*
X007691Y004331D01*
X007681Y004292D01*
X007681Y004223D01*
X007681Y004154D01*
X007689Y004125D01*
X007681Y004096D01*
X007681Y004027D01*
X007802Y004027D01*
X007802Y004027D01*
X007681Y004027D01*
X007681Y003958D01*
X007691Y003919D01*
X007711Y003885D01*
X007739Y003857D01*
X007773Y003838D01*
X007811Y003827D01*
X007849Y003827D01*
X007849Y003818D01*
X007848Y003817D01*
X007848Y003510D01*
X007846Y003464D01*
X007780Y003397D01*
X007740Y003302D01*
X007740Y003198D01*
X007780Y003103D01*
X007853Y003030D01*
X007948Y002990D01*
X008052Y002990D01*
X008115Y003016D01*
X008115Y003009D01*
X008112Y002967D01*
X008115Y002958D01*
X008115Y002948D01*
X008131Y002909D01*
X008240Y002583D01*
X008240Y002412D01*
X008228Y002407D01*
X008093Y002272D01*
X008020Y002095D01*
X008020Y001905D01*
X008093Y001728D01*
X008228Y001593D01*
X008139Y001682D02*
X007861Y001682D01*
X007929Y001781D02*
X008071Y001781D01*
X008031Y001879D02*
X007969Y001879D01*
X007980Y001978D02*
X008020Y001978D01*
X008020Y002076D02*
X007980Y002076D01*
X007947Y002175D02*
X008053Y002175D01*
X008094Y002273D02*
X007906Y002273D01*
X007807Y002372D02*
X008193Y002372D01*
X008240Y002470D02*
X007620Y002470D01*
X007532Y002569D02*
X008240Y002569D01*
X008212Y002667D02*
X007488Y002667D01*
X007444Y002766D02*
X008179Y002766D01*
X008146Y002864D02*
X007401Y002864D01*
X007357Y002963D02*
X008113Y002963D01*
X007821Y003061D02*
X007313Y003061D01*
X007269Y003160D02*
X007756Y003160D01*
X007740Y003258D02*
X007226Y003258D01*
X007136Y003357D02*
X007763Y003357D01*
X007837Y003455D02*
X007038Y003455D01*
X007029Y003554D02*
X007848Y003554D01*
X007848Y003652D02*
X007066Y003652D01*
X007066Y003751D02*
X007848Y003751D01*
X007753Y003849D02*
X007122Y003849D01*
X007136Y003857D02*
X007102Y003838D01*
X007066Y003828D01*
X007066Y003751D01*
X006867Y003751D01*
X006867Y003751D01*
X006906Y004027D02*
X007969Y004027D01*
X007968Y004046D02*
X007969Y004046D01*
X007968Y004145D02*
X007969Y004145D01*
X007802Y004223D02*
X007802Y004223D01*
X007681Y004223D01*
X007802Y004223D01*
X007681Y004243D02*
X007194Y004243D01*
X007194Y004223D02*
X007194Y004292D01*
X007184Y004331D01*
X007164Y004365D01*
X007136Y004393D01*
X007102Y004412D01*
X007064Y004423D01*
X007026Y004423D01*
X007026Y004432D01*
X007035Y004441D01*
X007035Y005241D01*
X006611Y005665D01*
X006947Y005665D01*
X006930Y005647D01*
X006890Y005552D01*
X006890Y005448D01*
X006930Y005353D01*
X006900Y005425D02*
X006851Y005425D01*
X006890Y005524D02*
X006753Y005524D01*
X006654Y005622D02*
X006919Y005622D01*
X007035Y005228D02*
X007196Y005228D01*
X007294Y005130D02*
X007035Y005130D01*
X007035Y005031D02*
X007393Y005031D01*
X007491Y004933D02*
X007035Y004933D01*
X007035Y004834D02*
X007590Y004834D01*
X007688Y004736D02*
X007035Y004736D01*
X007035Y004637D02*
X007787Y004637D01*
X007846Y004539D02*
X007035Y004539D01*
X007034Y004440D02*
X007848Y004440D01*
X007697Y004342D02*
X007178Y004342D01*
X007194Y004223D02*
X007073Y004223D01*
X007073Y004223D01*
X007194Y004223D01*
X007194Y004154D01*
X007186Y004125D01*
X007194Y004096D01*
X007194Y004027D01*
X007073Y004027D01*
X007073Y004027D01*
X007194Y004027D01*
X007194Y003958D01*
X007184Y003919D01*
X007164Y003885D01*
X007136Y003857D01*
X007192Y003948D02*
X007683Y003948D01*
X007681Y004046D02*
X007194Y004046D01*
X007192Y004145D02*
X007683Y004145D01*
X008008Y003751D02*
X008008Y003508D01*
X008000Y003250D01*
X008175Y003450D01*
X008205Y003480D01*
X008205Y003751D01*
X008402Y003751D02*
X008402Y003277D01*
X008375Y003250D01*
X009185Y002963D02*
X010225Y002963D01*
X010225Y003061D02*
X009529Y003061D01*
X009624Y003160D02*
X010225Y003160D01*
X010225Y003258D02*
X009719Y003258D01*
X009815Y003357D02*
X010225Y003357D01*
X010225Y003455D02*
X009910Y003455D01*
X010005Y003554D02*
X010225Y003554D01*
X010225Y003652D02*
X010072Y003652D01*
X010089Y003751D02*
X010225Y003751D01*
X010225Y003849D02*
X010089Y003849D01*
X010089Y003948D02*
X010225Y003948D01*
X010225Y004046D02*
X010089Y004046D01*
X010089Y004145D02*
X010225Y004145D01*
X010225Y004243D02*
X010089Y004243D01*
X010089Y004342D02*
X010225Y004342D01*
X010225Y004440D02*
X010089Y004440D01*
X010089Y004539D02*
X010225Y004539D01*
X010225Y004637D02*
X010089Y004637D01*
X010089Y004736D02*
X010225Y004736D01*
X010225Y004834D02*
X010089Y004834D01*
X010089Y004933D02*
X010225Y004933D01*
X010225Y005031D02*
X010089Y005031D01*
X010089Y005130D02*
X010225Y005130D01*
X010225Y005228D02*
X010097Y005228D01*
X010097Y005327D02*
X010225Y005327D01*
X010225Y005425D02*
X010097Y005425D01*
X010097Y005524D02*
X010225Y005524D01*
X010225Y005622D02*
X010097Y005622D01*
X010097Y005721D02*
X010225Y005721D01*
X010225Y005819D02*
X010097Y005819D01*
X010097Y005918D02*
X010225Y005918D01*
X010225Y006016D02*
X010097Y006016D01*
X010097Y006115D02*
X010225Y006115D01*
X010225Y006213D02*
X010097Y006213D01*
X010097Y006312D02*
X010225Y006312D01*
X010225Y006410D02*
X010089Y006410D01*
X010110Y006509D02*
X010225Y006509D01*
X010225Y006607D02*
X010110Y006607D01*
X010110Y006706D02*
X010225Y006706D01*
X010225Y006804D02*
X010110Y006804D01*
X010110Y006903D02*
X010225Y006903D01*
X010225Y007001D02*
X010110Y007001D01*
X010110Y007100D02*
X010225Y007100D01*
X010225Y007198D02*
X010110Y007198D01*
X010110Y007297D02*
X010225Y007297D01*
X010225Y007395D02*
X010110Y007395D01*
X010110Y007494D02*
X010225Y007494D01*
X010225Y007592D02*
X010110Y007592D01*
X010110Y007691D02*
X010225Y007691D01*
X010225Y007789D02*
X010110Y007789D01*
X010110Y007888D02*
X010225Y007888D01*
X009149Y006410D02*
X009092Y006410D01*
X009092Y006312D02*
X009149Y006312D01*
X009149Y006213D02*
X009092Y006213D01*
X009092Y006115D02*
X008112Y006115D01*
X007625Y006375D02*
X009000Y005000D01*
X009000Y004507D01*
X008992Y004499D01*
X008800Y004544D02*
X008795Y004499D01*
X008800Y004544D02*
X008800Y004850D01*
X007450Y006200D01*
X006930Y006200D01*
X006925Y006195D01*
X003125Y006195D01*
X003125Y006875D01*
X003355Y006903D02*
X003395Y006903D01*
X003395Y007001D02*
X003355Y007001D01*
X003355Y007100D02*
X003395Y007100D01*
X003422Y007198D02*
X003328Y007198D01*
X003207Y007297D02*
X004645Y007297D01*
X004645Y007198D02*
X004328Y007198D01*
X004355Y007100D02*
X004668Y007100D01*
X004750Y006875D02*
X005125Y007250D01*
X005462Y007592D02*
X005682Y007592D01*
X005706Y007494D02*
X005544Y007494D01*
X005584Y007395D02*
X005666Y007395D01*
X005645Y007297D02*
X005605Y007297D01*
X005605Y007198D02*
X005645Y007198D01*
X005668Y007100D02*
X005582Y007100D01*
X005541Y007001D02*
X005709Y007001D01*
X005794Y006903D02*
X005456Y006903D01*
X005303Y006804D02*
X005947Y006804D01*
X006303Y006804D02*
X007190Y006804D01*
X007190Y006706D02*
X004355Y006706D01*
X004355Y006607D02*
X007190Y006607D01*
X007190Y006903D02*
X006456Y006903D01*
X006541Y007001D02*
X007190Y007001D01*
X007190Y007100D02*
X006582Y007100D01*
X006605Y007198D02*
X007190Y007198D01*
X007190Y007297D02*
X006605Y007297D01*
X006584Y007395D02*
X007190Y007395D01*
X007190Y007494D02*
X006544Y007494D01*
X006462Y007592D02*
X007182Y007592D01*
X007083Y007691D02*
X006316Y007691D01*
X006125Y007375D02*
X005000Y008500D01*
X004000Y008500D01*
X004000Y008893D01*
X003743Y009150D01*
X004404Y009168D02*
X005996Y009168D01*
X005996Y009070D02*
X004404Y009070D01*
X004404Y008971D02*
X005996Y008971D01*
X005996Y008873D02*
X004404Y008873D01*
X004404Y008774D02*
X005996Y008774D01*
X005996Y008676D02*
X004404Y008676D01*
X004404Y009267D02*
X005996Y009267D01*
X005996Y009365D02*
X004404Y009365D01*
X004404Y009464D02*
X005996Y009464D01*
X005996Y009562D02*
X004404Y009562D01*
X004404Y009661D02*
X005996Y009661D01*
X005996Y009759D02*
X004404Y009759D01*
X004404Y009858D02*
X005996Y009858D01*
X006008Y009956D02*
X004392Y009956D01*
X005149Y008577D02*
X005996Y008577D01*
X005996Y008479D02*
X005248Y008479D01*
X005346Y008380D02*
X005996Y008380D01*
X005642Y008085D02*
X006840Y008085D01*
X006840Y008183D02*
X005543Y008183D01*
X005445Y008282D02*
X006840Y008282D01*
X007000Y008000D02*
X007000Y008807D01*
X006657Y009150D01*
X007000Y008000D02*
X007650Y007350D01*
X007650Y007200D01*
X006985Y007789D02*
X005937Y007789D01*
X005839Y007888D02*
X006886Y007888D01*
X006840Y007986D02*
X005740Y007986D01*
X005583Y007691D02*
X005316Y007691D01*
X004934Y007691D02*
X003220Y007691D01*
X003276Y007592D02*
X004788Y007592D01*
X004706Y007494D02*
X003290Y007494D01*
X003270Y007395D02*
X004666Y007395D01*
X004750Y006875D02*
X004125Y006875D01*
X003895Y006903D02*
X003855Y006903D01*
X003855Y007001D02*
X003895Y007001D01*
X003895Y007100D02*
X003855Y007100D01*
X003828Y007198D02*
X003922Y007198D01*
X003625Y006875D02*
X003625Y006375D01*
X007625Y006375D01*
X007350Y006000D02*
X006390Y006000D01*
X006375Y006015D01*
X002125Y006015D01*
X002125Y006875D01*
X002355Y006903D02*
X002395Y006903D01*
X002395Y007001D02*
X002355Y007001D01*
X002355Y007100D02*
X002395Y007100D01*
X002422Y007198D02*
X002328Y007198D01*
X002570Y007297D02*
X001035Y007297D01*
X001205Y007395D02*
X001651Y007395D01*
X001548Y007494D02*
X001270Y007494D01*
X001290Y007592D02*
X001515Y007592D01*
X001521Y007691D02*
X001276Y007691D01*
X001221Y007789D02*
X001571Y007789D01*
X001509Y007888D02*
X001441Y007888D01*
X001150Y008146D02*
X001000Y007996D01*
X001000Y007600D01*
X000875Y007475D01*
X000875Y006250D01*
X001125Y006000D01*
X001125Y004625D01*
X001355Y004637D02*
X001395Y004637D01*
X001395Y004539D02*
X001355Y004539D01*
X001355Y004440D02*
X001395Y004440D01*
X001395Y004342D02*
X001355Y004342D01*
X001465Y004243D02*
X000775Y004243D01*
X000775Y004145D02*
X001465Y004145D01*
X001478Y004046D02*
X000775Y004046D01*
X000775Y003948D02*
X003590Y003948D01*
X003590Y003849D02*
X000775Y003849D01*
X000775Y003751D02*
X003590Y003751D01*
X003590Y003652D02*
X000775Y003652D01*
X000775Y003554D02*
X003590Y003554D01*
X003590Y003455D02*
X000775Y003455D01*
X000775Y003357D02*
X003590Y003357D01*
X003590Y003258D02*
X000775Y003258D01*
X000775Y003160D02*
X003542Y003160D01*
X003494Y003061D02*
X001948Y003061D01*
X002288Y002963D02*
X003490Y002963D01*
X003525Y002864D02*
X002468Y002864D01*
X002604Y002766D02*
X003637Y002766D01*
X003750Y003000D02*
X003750Y004125D01*
X001625Y004125D01*
X001625Y004625D01*
X001855Y004637D02*
X001895Y004637D01*
X001895Y004539D02*
X001855Y004539D01*
X001855Y004440D02*
X001895Y004440D01*
X001895Y004342D02*
X001855Y004342D01*
X002125Y004625D02*
X002125Y005280D01*
X002500Y005655D01*
X006000Y005655D01*
X006005Y005650D01*
X006400Y005650D01*
X006875Y005175D01*
X006875Y004507D01*
X006867Y004499D01*
X006670Y004499D02*
X006670Y004544D01*
X006670Y005080D01*
X006275Y005475D01*
X002750Y005475D01*
X002625Y005350D01*
X002625Y004625D01*
X003125Y004625D02*
X003125Y005170D01*
X003250Y005295D01*
X005655Y005295D01*
X005660Y005300D01*
X006100Y005300D01*
X006475Y004925D01*
X006475Y004550D01*
X006480Y004526D01*
X006473Y004499D01*
X006906Y004145D02*
X006907Y004145D01*
X006906Y004046D02*
X006907Y004046D01*
X006277Y003751D02*
X006277Y003277D01*
X006250Y003250D01*
X005990Y003160D02*
X005984Y003160D01*
X005990Y003061D02*
X005904Y003061D01*
X005990Y002963D02*
X005024Y002963D01*
X004910Y002864D02*
X005990Y002864D01*
X006074Y002470D02*
X005620Y002470D01*
X005595Y002480D02*
X005405Y002480D01*
X005228Y002407D01*
X005093Y002272D01*
X005020Y002095D01*
X005020Y001905D01*
X005093Y001728D01*
X005228Y001593D01*
X005405Y001520D01*
X005595Y001520D01*
X005772Y001593D01*
X005907Y001728D01*
X005980Y001905D01*
X005980Y002095D01*
X005907Y002272D01*
X005772Y002407D01*
X005595Y002480D01*
X005380Y002470D02*
X004723Y002470D01*
X004700Y002482D02*
X004622Y002507D01*
X004550Y002519D01*
X004550Y002050D01*
X004450Y002050D01*
X004450Y002519D01*
X004378Y002507D01*
X004300Y002482D01*
X004227Y002445D01*
X004161Y002397D01*
X004103Y002339D01*
X004055Y002273D01*
X004018Y002200D01*
X003993Y002122D01*
X003981Y002050D01*
X004450Y002050D01*
X004450Y001950D01*
X003981Y001950D01*
X003993Y001878D01*
X004018Y001800D01*
X004055Y001727D01*
X004103Y001661D01*
X004161Y001603D01*
X004227Y001555D01*
X004300Y001518D01*
X004378Y001493D01*
X004450Y001481D01*
X004450Y001950D01*
X004550Y001950D01*
X004550Y002050D01*
X005019Y002050D01*
X005007Y002122D01*
X004982Y002200D01*
X004945Y002273D01*
X004897Y002339D01*
X004839Y002397D01*
X004773Y002445D01*
X004700Y002482D01*
X004864Y002372D02*
X005193Y002372D01*
X005094Y002273D02*
X004944Y002273D01*
X004990Y002175D02*
X005053Y002175D01*
X005020Y002076D02*
X005014Y002076D01*
X005020Y001978D02*
X004550Y001978D01*
X004550Y001950D02*
X005019Y001950D01*
X005007Y001878D01*
X004982Y001800D01*
X004945Y001727D01*
X004897Y001661D01*
X004839Y001603D01*
X004773Y001555D01*
X004700Y001518D01*
X004622Y001493D01*
X004550Y001481D01*
X004550Y001950D01*
X004550Y001879D02*
X004450Y001879D01*
X004450Y001781D02*
X004550Y001781D01*
X004550Y001682D02*
X004450Y001682D01*
X004450Y001584D02*
X004550Y001584D01*
X004550Y001485D02*
X004450Y001485D01*
X004427Y001485D02*
X003075Y001485D01*
X003075Y001387D02*
X010225Y001387D01*
X010225Y001485D02*
X004573Y001485D01*
X004811Y001584D02*
X005251Y001584D01*
X005139Y001682D02*
X004912Y001682D01*
X004972Y001781D02*
X005071Y001781D01*
X005031Y001879D02*
X005007Y001879D01*
X004550Y002076D02*
X004450Y002076D01*
X004450Y001978D02*
X003053Y001978D01*
X003066Y001879D02*
X003993Y001879D01*
X004028Y001781D02*
X003075Y001781D01*
X003075Y001682D02*
X004088Y001682D01*
X004189Y001584D02*
X003075Y001584D01*
X003075Y001288D02*
X010182Y001288D01*
X010083Y001190D02*
X003075Y001190D01*
X003075Y001091D02*
X009985Y001091D01*
X009886Y000993D02*
X003075Y000993D01*
X003075Y000894D02*
X009788Y000894D01*
X009689Y000796D02*
X003075Y000796D01*
X003032Y002076D02*
X003986Y002076D01*
X004010Y002175D02*
X003002Y002175D01*
X002966Y002273D02*
X004056Y002273D01*
X004136Y002372D02*
X002917Y002372D01*
X002863Y002470D02*
X004277Y002470D01*
X004450Y002470D02*
X004550Y002470D01*
X004550Y002372D02*
X004450Y002372D01*
X004450Y002273D02*
X004550Y002273D01*
X004550Y002175D02*
X004450Y002175D01*
X005749Y001584D02*
X006021Y001584D01*
X006020Y001682D02*
X005861Y001682D01*
X005929Y001781D02*
X006020Y001781D01*
X006020Y001879D02*
X005969Y001879D01*
X005980Y001978D02*
X006020Y001978D01*
X006020Y002076D02*
X005980Y002076D01*
X005947Y002175D02*
X006020Y002175D01*
X006020Y002273D02*
X005906Y002273D01*
X005807Y002372D02*
X006020Y002372D01*
X005843Y004046D02*
X005844Y004046D01*
X005843Y004145D02*
X005844Y004145D01*
X004905Y004933D02*
X004385Y004933D01*
X004395Y004834D02*
X004811Y004834D01*
X004717Y004736D02*
X004395Y004736D01*
X004395Y004637D02*
X004623Y004637D01*
X004529Y004539D02*
X004395Y004539D01*
X004395Y004440D02*
X004435Y004440D01*
X004250Y004625D02*
X004625Y004825D01*
X004250Y004625D02*
X004125Y004625D01*
X004115Y004539D02*
X004135Y004539D01*
X004135Y004440D02*
X004115Y004440D01*
X004115Y004342D02*
X004135Y004342D01*
X004135Y004243D02*
X004115Y004243D01*
X003625Y004625D02*
X003625Y005000D01*
X003750Y005125D01*
X002965Y006213D02*
X002285Y006213D01*
X002285Y006312D02*
X002965Y006312D01*
X002965Y006410D02*
X002285Y006410D01*
X002285Y006509D02*
X002965Y006509D01*
X002895Y006607D02*
X002855Y006607D01*
X002855Y006706D02*
X002895Y006706D01*
X002895Y006804D02*
X002855Y006804D01*
X002855Y006903D02*
X002895Y006903D01*
X002895Y007001D02*
X002855Y007001D01*
X002855Y007100D02*
X002895Y007100D01*
X002625Y007125D02*
X002625Y006875D01*
X002395Y006804D02*
X002355Y006804D01*
X002355Y006706D02*
X002395Y006706D01*
X002395Y006607D02*
X002355Y006607D01*
X002625Y007125D02*
X003000Y007500D01*
X002375Y008146D02*
X001800Y008146D01*
X001875Y007725D01*
X001775Y007625D01*
X001422Y007198D02*
X001328Y007198D01*
X001355Y007100D02*
X001395Y007100D01*
X001395Y007001D02*
X001355Y007001D01*
X001355Y006903D02*
X001395Y006903D01*
X001395Y006804D02*
X001355Y006804D01*
X001250Y006625D02*
X001375Y006500D01*
X001375Y005575D01*
X001950Y005575D01*
X001870Y005327D02*
X001285Y005327D01*
X001285Y005425D02*
X001299Y005425D01*
X001285Y005228D02*
X001965Y005228D01*
X001965Y005130D02*
X001285Y005130D01*
X001285Y005031D02*
X001965Y005031D01*
X001907Y004933D02*
X001843Y004933D01*
X001855Y004834D02*
X001895Y004834D01*
X001895Y004736D02*
X001855Y004736D01*
X001395Y004736D02*
X001355Y004736D01*
X001355Y004834D02*
X001395Y004834D01*
X001407Y004933D02*
X001343Y004933D01*
X000965Y005031D02*
X000775Y005031D01*
X000775Y004933D02*
X000907Y004933D01*
X000895Y004834D02*
X000775Y004834D01*
X000775Y004736D02*
X000895Y004736D01*
X000895Y004637D02*
X000775Y004637D01*
X000775Y004539D02*
X000895Y004539D01*
X000895Y004440D02*
X000775Y004440D01*
X000775Y004342D02*
X000895Y004342D01*
X000965Y005130D02*
X000775Y005130D01*
X000775Y005228D02*
X000965Y005228D01*
X000965Y005327D02*
X000775Y005327D01*
X000775Y005425D02*
X000965Y005425D01*
X000965Y005524D02*
X000775Y005524D01*
X000775Y005622D02*
X000965Y005622D01*
X000965Y005721D02*
X000775Y005721D01*
X000775Y005819D02*
X000965Y005819D01*
X000965Y005918D02*
X000775Y005918D01*
X000775Y006016D02*
X000883Y006016D01*
X000784Y006115D02*
X000775Y006115D01*
X001250Y006625D02*
X001125Y006875D01*
X001625Y006875D02*
X001625Y005835D01*
X003285Y006410D02*
X003465Y006410D01*
X003465Y006509D02*
X003285Y006509D01*
X003355Y006607D02*
X003395Y006607D01*
X003395Y006706D02*
X003355Y006706D01*
X003355Y006804D02*
X003395Y006804D01*
X003855Y006804D02*
X003895Y006804D01*
X003895Y006706D02*
X003855Y006706D01*
X003855Y006607D02*
X003895Y006607D01*
X004905Y006804D02*
X004947Y006804D01*
X006125Y007250D02*
X006125Y007375D01*
X007350Y006000D02*
X008600Y004750D01*
X008600Y004526D01*
X008598Y004499D01*
X009198Y004027D02*
X009198Y004027D01*
X009149Y005130D02*
X009097Y005130D01*
X009092Y005228D02*
X009149Y005228D01*
X009149Y005327D02*
X009092Y005327D01*
X009092Y005425D02*
X009149Y005425D01*
X009149Y005622D02*
X009092Y005622D01*
X009092Y005721D02*
X009149Y005721D01*
X009149Y005819D02*
X009092Y005819D01*
X009092Y005918D02*
X009149Y005918D01*
X009149Y006016D02*
X009092Y006016D01*
X009149Y006115D02*
X009562Y006115D01*
X009562Y006213D02*
X009428Y006213D01*
X009428Y006312D02*
X009562Y006312D01*
X009562Y006016D02*
X009428Y006016D01*
X009428Y005918D02*
X009562Y005918D01*
X009562Y005819D02*
X009421Y005819D01*
X009428Y005721D02*
X009562Y005721D01*
X009562Y005622D02*
X009428Y005622D01*
X008813Y005425D02*
X008801Y005425D01*
X009185Y002864D02*
X010225Y002864D01*
X010225Y002766D02*
X009185Y002766D01*
X009201Y002667D02*
X010225Y002667D01*
X010225Y002569D02*
X009299Y002569D01*
X009620Y002470D02*
X010225Y002470D01*
X010225Y002372D02*
X009807Y002372D01*
X009906Y002273D02*
X010225Y002273D01*
X010225Y002175D02*
X009947Y002175D01*
X009980Y002076D02*
X010225Y002076D01*
X010225Y001978D02*
X009980Y001978D01*
X009969Y001879D02*
X010225Y001879D01*
X010225Y001781D02*
X009929Y001781D01*
X009861Y001682D02*
X010225Y001682D01*
X010225Y001584D02*
X009749Y001584D01*
X009251Y001584D02*
X008749Y001584D01*
X008861Y001682D02*
X009139Y001682D01*
X009071Y001781D02*
X008929Y001781D01*
X008969Y001879D02*
X009031Y001879D01*
X009020Y001978D02*
X008980Y001978D01*
X008980Y002076D02*
X009020Y002076D01*
X008958Y002175D02*
X008947Y002175D01*
X002404Y008577D02*
X002346Y008577D01*
X002346Y008676D02*
X002404Y008676D01*
X002404Y008774D02*
X002346Y008774D01*
X002346Y008873D02*
X001829Y008873D01*
X001829Y008971D02*
X001771Y008971D01*
X001771Y009070D02*
X001829Y009070D01*
X002346Y009070D02*
X002404Y009070D01*
X002404Y008971D02*
X002346Y008971D01*
X002319Y009759D02*
X001791Y009759D01*
X001791Y009858D02*
X002319Y009858D01*
X002319Y009956D02*
X001791Y009956D01*
X001778Y010055D02*
X002330Y010055D01*
X001386Y009700D02*
X001150Y009464D01*
X001150Y008854D01*
X000804Y008873D02*
X000775Y008873D01*
X000775Y008971D02*
X000804Y008971D01*
X000816Y009070D02*
X000775Y009070D01*
X000775Y009168D02*
X000990Y009168D01*
X000990Y009267D02*
X000775Y009267D01*
X000775Y009365D02*
X000981Y009365D01*
X000981Y009464D02*
X000775Y009464D01*
X000775Y009562D02*
X000981Y009562D01*
X000981Y009661D02*
X000775Y009661D01*
X000865Y009759D02*
X000981Y009759D01*
X000981Y009858D02*
X000964Y009858D01*
X001259Y010153D02*
X007440Y010153D01*
X007899Y009956D02*
X007925Y009956D01*
X000804Y008774D02*
X000775Y008774D01*
X000775Y008676D02*
X000804Y008676D01*
X000775Y008380D02*
X000835Y008380D01*
X000804Y008282D02*
X000775Y008282D01*
X000775Y008183D02*
X000804Y008183D01*
X000804Y008085D02*
X000775Y008085D01*
X000775Y007986D02*
X000804Y007986D01*
X000775Y007888D02*
X000840Y007888D01*
X000779Y007789D02*
X000775Y007789D01*
D22*
X004125Y004625D02*
X004127Y002698D01*
X004427Y002073D01*
X004500Y002000D01*
X004127Y002698D02*
X005350Y002700D01*
X005350Y004125D01*
X005500Y004125D02*
X009375Y004125D01*
X009425Y004125D01*
X009350Y004275D02*
X009250Y004100D01*
X009105Y004100D01*
X009031Y004027D01*
X009350Y004275D02*
X009350Y005125D01*
X009121Y005429D01*
X009121Y005500D01*
X009121Y006100D01*
X008846Y006104D01*
X008850Y006700D01*
X008300Y007200D02*
X007650Y007200D01*
X008800Y007675D02*
X009425Y007675D01*
X009625Y007475D01*
X009650Y007200D01*
X009829Y007021D01*
X009829Y006100D01*
X009829Y005500D01*
X009829Y003746D01*
X009350Y003250D01*
X008925Y003250D02*
X008925Y002575D01*
X009500Y002000D01*
X008500Y002000D02*
X008500Y002625D01*
X008375Y003000D01*
X008375Y003250D01*
X007000Y003125D02*
X007500Y002000D01*
X006500Y002000D02*
X006500Y002625D01*
X006250Y002875D01*
X006250Y003250D01*
X006875Y003250D02*
X007000Y003125D01*
X006575Y004125D02*
X006175Y004125D01*
D23*
X008475Y006150D03*
X008850Y006700D03*
X008800Y007675D03*
X006825Y006750D03*
X003900Y007575D03*
X003000Y008175D03*
D24*
X003000Y007500D03*
X002925Y009125D03*
X001000Y007600D03*
M02*
