G04 EAGLE Gerber X2 export*
%TF.Part,Single*%
%TF.FileFunction,Legend,Bot,1*%
%TF.FilePolarity,Positive*%
%TF.GenerationSoftware,Autodesk,EAGLE,9.1.3*%
%TF.CreationDate,2018-09-04T16:16:14Z*%
G75*
%MOIN*%
%FSLAX36Y36*%
%LPD*%
%AMOC8*
5,1,8,0,0,1.08239X$1,22.5*%
G01*
%ADD10C,0.002000*%
%ADD11C,0.005000*%
%ADD12C,0.008000*%
%ADD13C,0.009000*%
%ADD14C,0.006000*%
%ADD15C,0.004000*%
%ADD16C,0.003000*%
%ADD17R,0.075000X0.025000*%
%ADD18R,0.025000X0.050000*%
%ADD19R,0.025000X0.100000*%
%ADD20R,0.175000X0.025000*%


D10*
X1077539Y806000D02*
X1077539Y829020D01*
X1066030Y829020D01*
X1062193Y825183D01*
X1062193Y817510D01*
X1066030Y813673D01*
X1077539Y813673D01*
X1069866Y813673D02*
X1062193Y806000D01*
X1054520Y821346D02*
X1046847Y829020D01*
X1046847Y806000D01*
X1054520Y806000D02*
X1039173Y806000D01*
D11*
X1031500Y1100000D02*
X1031393Y1097707D01*
X1031342Y1095413D01*
X1031348Y1093118D01*
X1031410Y1090824D01*
X1031528Y1088532D01*
X1031703Y1086243D01*
X1031933Y1083960D01*
X1032219Y1081682D01*
X1032561Y1079413D01*
X1032959Y1077152D01*
X1033411Y1074902D01*
X1033919Y1072664D01*
X1034481Y1070439D01*
X1035098Y1068228D01*
X1035769Y1066034D01*
X1036493Y1063856D01*
X1037270Y1061696D01*
X1038100Y1059557D01*
X1038983Y1057438D01*
X1039917Y1055341D01*
X1040902Y1053268D01*
X1041937Y1051220D01*
X1043023Y1049198D01*
X1044157Y1047203D01*
X1045340Y1045236D01*
X1046571Y1043299D01*
X1047849Y1041393D01*
X1049174Y1039519D01*
X1050544Y1037677D01*
X1051958Y1035870D01*
X1053417Y1034098D01*
X1054918Y1032362D01*
X1056462Y1030664D01*
X1058046Y1029003D01*
X1059671Y1027383D01*
X1061336Y1025802D01*
X1063038Y1024263D01*
X1064777Y1022766D01*
X1066553Y1021312D01*
X1068364Y1019902D01*
X1070209Y1018536D01*
X1072087Y1017217D01*
X1073996Y1015943D01*
X1075936Y1014717D01*
X1077906Y1013539D01*
X1079904Y1012409D01*
X1081929Y1011329D01*
X1083979Y1010299D01*
X1086055Y1009319D01*
X1088154Y1008390D01*
X1090274Y1007513D01*
X1092416Y1006688D01*
X1094578Y1005916D01*
X1096757Y1005198D01*
X1098954Y1004532D01*
X1101166Y1003921D01*
X1103393Y1003364D01*
X1105632Y1002862D01*
X1107883Y1002415D01*
X1110145Y1002024D01*
X1112415Y1001687D01*
X1114693Y1001407D01*
X1116977Y1001182D01*
X1119266Y1001014D01*
X1121558Y1000901D01*
X1123852Y1000845D01*
X1126148Y1000845D01*
X1128442Y1000901D01*
X1130734Y1001014D01*
X1133023Y1001182D01*
X1135307Y1001407D01*
X1137585Y1001687D01*
X1139855Y1002024D01*
X1142117Y1002415D01*
X1144368Y1002862D01*
X1146607Y1003364D01*
X1148834Y1003921D01*
X1151046Y1004532D01*
X1153243Y1005198D01*
X1155422Y1005916D01*
X1157584Y1006688D01*
X1159726Y1007513D01*
X1161846Y1008390D01*
X1163945Y1009319D01*
X1166021Y1010299D01*
X1168071Y1011329D01*
X1170096Y1012409D01*
X1172094Y1013539D01*
X1174064Y1014717D01*
X1176004Y1015943D01*
X1177913Y1017217D01*
X1179791Y1018536D01*
X1181636Y1019902D01*
X1183447Y1021312D01*
X1185223Y1022766D01*
X1186962Y1024263D01*
X1188664Y1025802D01*
X1190329Y1027383D01*
X1191954Y1029003D01*
X1193538Y1030664D01*
X1195082Y1032362D01*
X1196583Y1034098D01*
X1198042Y1035870D01*
X1199456Y1037677D01*
X1200826Y1039519D01*
X1202151Y1041393D01*
X1203429Y1043299D01*
X1204660Y1045236D01*
X1205843Y1047203D01*
X1206977Y1049198D01*
X1208063Y1051220D01*
X1209098Y1053268D01*
X1210083Y1055341D01*
X1211017Y1057438D01*
X1211900Y1059557D01*
X1212730Y1061696D01*
X1213507Y1063856D01*
X1214231Y1066034D01*
X1214902Y1068228D01*
X1215519Y1070439D01*
X1216081Y1072664D01*
X1216589Y1074902D01*
X1217041Y1077152D01*
X1217439Y1079413D01*
X1217781Y1081682D01*
X1218067Y1083960D01*
X1218297Y1086243D01*
X1218472Y1088532D01*
X1218590Y1090824D01*
X1218652Y1093118D01*
X1218658Y1095413D01*
X1218607Y1097707D01*
X1218500Y1100000D01*
X368500Y1100000D02*
X368607Y1097707D01*
X368658Y1095413D01*
X368652Y1093118D01*
X368590Y1090824D01*
X368472Y1088532D01*
X368297Y1086243D01*
X368067Y1083960D01*
X367781Y1081682D01*
X367439Y1079413D01*
X367041Y1077152D01*
X366589Y1074902D01*
X366081Y1072664D01*
X365519Y1070439D01*
X364902Y1068228D01*
X364231Y1066034D01*
X363507Y1063856D01*
X362730Y1061696D01*
X361900Y1059557D01*
X361017Y1057438D01*
X360083Y1055341D01*
X359098Y1053268D01*
X358063Y1051220D01*
X356977Y1049198D01*
X355843Y1047203D01*
X354660Y1045236D01*
X353429Y1043299D01*
X352151Y1041393D01*
X350826Y1039519D01*
X349456Y1037677D01*
X348042Y1035870D01*
X346583Y1034098D01*
X345082Y1032362D01*
X343538Y1030664D01*
X341954Y1029003D01*
X340329Y1027383D01*
X338664Y1025802D01*
X336962Y1024263D01*
X335223Y1022766D01*
X333447Y1021312D01*
X331636Y1019902D01*
X329791Y1018536D01*
X327913Y1017217D01*
X326004Y1015943D01*
X324064Y1014717D01*
X322094Y1013539D01*
X320096Y1012409D01*
X318071Y1011329D01*
X316021Y1010299D01*
X313945Y1009319D01*
X311846Y1008390D01*
X309726Y1007513D01*
X307584Y1006688D01*
X305422Y1005916D01*
X303243Y1005198D01*
X301046Y1004532D01*
X298834Y1003921D01*
X296607Y1003364D01*
X294368Y1002862D01*
X292117Y1002415D01*
X289855Y1002024D01*
X287585Y1001687D01*
X285307Y1001407D01*
X283023Y1001182D01*
X280734Y1001014D01*
X278442Y1000901D01*
X276148Y1000845D01*
X273852Y1000845D01*
X271558Y1000901D01*
X269266Y1001014D01*
X266977Y1001182D01*
X264693Y1001407D01*
X262415Y1001687D01*
X260145Y1002024D01*
X257883Y1002415D01*
X255632Y1002862D01*
X253393Y1003364D01*
X251166Y1003921D01*
X248954Y1004532D01*
X246757Y1005198D01*
X244578Y1005916D01*
X242416Y1006688D01*
X240274Y1007513D01*
X238154Y1008390D01*
X236055Y1009319D01*
X233979Y1010299D01*
X231929Y1011329D01*
X229904Y1012409D01*
X227906Y1013539D01*
X225936Y1014717D01*
X223996Y1015943D01*
X222087Y1017217D01*
X220209Y1018536D01*
X218364Y1019902D01*
X216553Y1021312D01*
X214777Y1022766D01*
X213038Y1024263D01*
X211336Y1025802D01*
X209671Y1027383D01*
X208046Y1029003D01*
X206462Y1030664D01*
X204918Y1032362D01*
X203417Y1034098D01*
X201958Y1035870D01*
X200544Y1037677D01*
X199174Y1039519D01*
X197849Y1041393D01*
X196571Y1043299D01*
X195340Y1045236D01*
X194157Y1047203D01*
X193023Y1049198D01*
X191937Y1051220D01*
X190902Y1053268D01*
X189917Y1055341D01*
X188983Y1057438D01*
X188100Y1059557D01*
X187270Y1061696D01*
X186493Y1063856D01*
X185769Y1066034D01*
X185098Y1068228D01*
X184481Y1070439D01*
X183919Y1072664D01*
X183411Y1074902D01*
X182959Y1077152D01*
X182561Y1079413D01*
X182219Y1081682D01*
X181933Y1083960D01*
X181703Y1086243D01*
X181528Y1088532D01*
X181410Y1090824D01*
X181348Y1093118D01*
X181342Y1095413D01*
X181393Y1097707D01*
X181500Y1100000D01*
X500000Y985000D02*
X900000Y985000D01*
X500000Y985000D02*
X500000Y665000D01*
X900000Y665000D01*
X900000Y985000D01*
X725000Y850000D02*
X725000Y775000D01*
X725000Y850000D02*
X750000Y850000D01*
X700000Y900000D01*
X650000Y850000D01*
X675000Y850000D01*
X675000Y775000D01*
X725000Y775000D01*
D12*
X1286500Y213506D02*
X1293506Y206500D01*
X1286500Y213506D02*
X1286500Y220512D01*
X1293506Y227518D01*
X1328536Y227518D01*
X1328536Y220512D02*
X1328536Y234524D01*
X1286500Y259545D02*
X1286500Y273557D01*
X1293506Y280563D01*
X1307518Y280563D01*
X1314524Y273557D01*
X1314524Y259545D01*
X1307518Y252539D01*
X1293506Y252539D01*
X1286500Y259545D01*
X1293506Y298578D02*
X1314524Y298578D01*
X1293506Y298578D02*
X1286500Y305584D01*
X1286500Y326602D01*
X1279494Y326602D02*
X1314524Y326602D01*
X1279494Y326602D02*
X1272488Y319596D01*
X1272488Y312590D01*
X1286500Y344618D02*
X1286500Y365636D01*
X1293506Y372642D01*
X1300512Y365636D01*
X1300512Y351624D01*
X1307518Y344618D01*
X1314524Y351624D01*
X1314524Y372642D01*
X1321530Y397663D02*
X1293506Y397663D01*
X1286500Y404669D01*
X1314524Y404669D02*
X1314524Y390657D01*
X1314524Y421350D02*
X1314524Y428356D01*
X1286500Y428356D01*
X1286500Y421350D02*
X1286500Y435362D01*
X1328536Y428356D02*
X1335542Y428356D01*
X1314524Y459048D02*
X1314524Y480066D01*
X1314524Y459048D02*
X1307518Y452043D01*
X1293506Y452043D01*
X1286500Y459048D01*
X1286500Y480066D01*
X1286500Y498082D02*
X1328536Y498082D01*
X1300512Y498082D02*
X1286500Y519100D01*
X1300512Y498082D02*
X1314524Y519100D01*
D13*
X118044Y197000D02*
X67000Y197000D01*
X101029Y214015D02*
X118044Y197000D01*
X101029Y214015D02*
X118044Y231029D01*
X67000Y231029D01*
X67000Y260754D02*
X67000Y277769D01*
X75507Y286276D01*
X92522Y286276D01*
X101029Y277769D01*
X101029Y260754D01*
X92522Y252247D01*
X75507Y252247D01*
X67000Y260754D01*
X67000Y341523D02*
X118044Y341523D01*
X67000Y341523D02*
X67000Y316002D01*
X75507Y307494D01*
X92522Y307494D01*
X101029Y316002D01*
X101029Y341523D01*
X101029Y362742D02*
X75507Y362742D01*
X67000Y371249D01*
X67000Y396771D01*
X101029Y396771D01*
X118044Y417989D02*
X118044Y426496D01*
X67000Y426496D01*
X67000Y417989D02*
X67000Y435003D01*
X67000Y463327D02*
X67000Y480342D01*
X75507Y488849D01*
X92522Y488849D01*
X101029Y480342D01*
X101029Y463327D01*
X92522Y454820D01*
X75507Y454820D01*
X67000Y463327D01*
D14*
X1217642Y1164538D02*
X1247000Y1164538D01*
X1247000Y1142519D01*
X1232321Y1149858D01*
X1224981Y1149858D01*
X1217642Y1142519D01*
X1217642Y1127840D01*
X1224981Y1120500D01*
X1239660Y1120500D01*
X1247000Y1127840D01*
X879227Y1135027D02*
X836524Y1135027D01*
X679227Y1135027D02*
X636524Y1135027D01*
X657876Y1113676D02*
X657876Y1156379D01*
X736524Y1167055D02*
X736524Y1103000D01*
X768552Y1103000D01*
X779227Y1113676D01*
X779227Y1135027D01*
X768552Y1145703D01*
X736524Y1145703D01*
X568552Y1145703D02*
X536524Y1145703D01*
X568552Y1145703D02*
X579227Y1135027D01*
X579227Y1113676D01*
X568552Y1103000D01*
X536524Y1103000D01*
D11*
X1188681Y976870D02*
X1235925Y976870D01*
X1235925Y898130D02*
X1188681Y898130D01*
D15*
X1232826Y999500D02*
X1232826Y1035531D01*
X1232826Y999500D02*
X1208805Y999500D01*
X1195994Y1035531D02*
X1171974Y1035531D01*
X1195994Y1035531D02*
X1195994Y999500D01*
X1171974Y999500D01*
X1183984Y1017515D02*
X1195994Y1017515D01*
X1159163Y999500D02*
X1159163Y1035531D01*
X1159163Y999500D02*
X1141148Y999500D01*
X1135143Y1005505D01*
X1135143Y1029526D01*
X1141148Y1035531D01*
X1159163Y1035531D01*
X1122332Y1023520D02*
X1110321Y1035531D01*
X1110321Y999500D01*
X1098311Y999500D02*
X1122332Y999500D01*
D10*
X1015183Y661346D02*
X1019020Y657510D01*
X1019020Y649836D01*
X1015183Y646000D01*
X999836Y646000D01*
X996000Y649836D01*
X996000Y657510D01*
X999836Y661346D01*
X1011346Y669020D02*
X1019020Y676693D01*
X996000Y676693D01*
X996000Y669020D02*
X996000Y684366D01*
D11*
X500000Y665000D02*
X500000Y985000D01*
X900000Y985000D02*
X900000Y665000D01*
D16*
X498500Y932672D02*
X492328Y926500D01*
X486156Y926500D01*
X479984Y932672D01*
X479984Y963532D01*
X486156Y963532D02*
X473812Y963532D01*
X461669Y963532D02*
X461669Y926500D01*
X461669Y963532D02*
X443153Y963532D01*
X436981Y957360D01*
X436981Y945016D01*
X443153Y938844D01*
X461669Y938844D01*
X424837Y951188D02*
X412493Y963532D01*
X412493Y926500D01*
X424837Y926500D02*
X400149Y926500D01*
D17*
X1100000Y50000D03*
D18*
X1075000Y87500D03*
X1125000Y87500D03*
D19*
X1175000Y87500D03*
X1025000Y87500D03*
D20*
X1100000Y150000D03*
D11*
X812500Y250000D02*
X637500Y250000D01*
X637500Y600000D02*
X812500Y600000D01*
X652500Y275000D02*
X652503Y275245D01*
X652512Y275491D01*
X652527Y275736D01*
X652548Y275980D01*
X652575Y276224D01*
X652608Y276467D01*
X652647Y276710D01*
X652692Y276951D01*
X652743Y277191D01*
X652800Y277430D01*
X652862Y277667D01*
X652931Y277903D01*
X653005Y278137D01*
X653085Y278369D01*
X653170Y278599D01*
X653261Y278827D01*
X653358Y279052D01*
X653460Y279276D01*
X653568Y279496D01*
X653681Y279714D01*
X653799Y279929D01*
X653923Y280141D01*
X654051Y280350D01*
X654185Y280556D01*
X654324Y280758D01*
X654468Y280957D01*
X654617Y281152D01*
X654770Y281344D01*
X654928Y281532D01*
X655090Y281716D01*
X655258Y281895D01*
X655429Y282071D01*
X655605Y282242D01*
X655784Y282410D01*
X655968Y282572D01*
X656156Y282730D01*
X656348Y282883D01*
X656543Y283032D01*
X656742Y283176D01*
X656944Y283315D01*
X657150Y283449D01*
X657359Y283577D01*
X657571Y283701D01*
X657786Y283819D01*
X658004Y283932D01*
X658224Y284040D01*
X658448Y284142D01*
X658673Y284239D01*
X658901Y284330D01*
X659131Y284415D01*
X659363Y284495D01*
X659597Y284569D01*
X659833Y284638D01*
X660070Y284700D01*
X660309Y284757D01*
X660549Y284808D01*
X660790Y284853D01*
X661033Y284892D01*
X661276Y284925D01*
X661520Y284952D01*
X661764Y284973D01*
X662009Y284988D01*
X662255Y284997D01*
X662500Y285000D01*
X662745Y284997D01*
X662991Y284988D01*
X663236Y284973D01*
X663480Y284952D01*
X663724Y284925D01*
X663967Y284892D01*
X664210Y284853D01*
X664451Y284808D01*
X664691Y284757D01*
X664930Y284700D01*
X665167Y284638D01*
X665403Y284569D01*
X665637Y284495D01*
X665869Y284415D01*
X666099Y284330D01*
X666327Y284239D01*
X666552Y284142D01*
X666776Y284040D01*
X666996Y283932D01*
X667214Y283819D01*
X667429Y283701D01*
X667641Y283577D01*
X667850Y283449D01*
X668056Y283315D01*
X668258Y283176D01*
X668457Y283032D01*
X668652Y282883D01*
X668844Y282730D01*
X669032Y282572D01*
X669216Y282410D01*
X669395Y282242D01*
X669571Y282071D01*
X669742Y281895D01*
X669910Y281716D01*
X670072Y281532D01*
X670230Y281344D01*
X670383Y281152D01*
X670532Y280957D01*
X670676Y280758D01*
X670815Y280556D01*
X670949Y280350D01*
X671077Y280141D01*
X671201Y279929D01*
X671319Y279714D01*
X671432Y279496D01*
X671540Y279276D01*
X671642Y279052D01*
X671739Y278827D01*
X671830Y278599D01*
X671915Y278369D01*
X671995Y278137D01*
X672069Y277903D01*
X672138Y277667D01*
X672200Y277430D01*
X672257Y277191D01*
X672308Y276951D01*
X672353Y276710D01*
X672392Y276467D01*
X672425Y276224D01*
X672452Y275980D01*
X672473Y275736D01*
X672488Y275491D01*
X672497Y275245D01*
X672500Y275000D01*
X672497Y274755D01*
X672488Y274509D01*
X672473Y274264D01*
X672452Y274020D01*
X672425Y273776D01*
X672392Y273533D01*
X672353Y273290D01*
X672308Y273049D01*
X672257Y272809D01*
X672200Y272570D01*
X672138Y272333D01*
X672069Y272097D01*
X671995Y271863D01*
X671915Y271631D01*
X671830Y271401D01*
X671739Y271173D01*
X671642Y270948D01*
X671540Y270724D01*
X671432Y270504D01*
X671319Y270286D01*
X671201Y270071D01*
X671077Y269859D01*
X670949Y269650D01*
X670815Y269444D01*
X670676Y269242D01*
X670532Y269043D01*
X670383Y268848D01*
X670230Y268656D01*
X670072Y268468D01*
X669910Y268284D01*
X669742Y268105D01*
X669571Y267929D01*
X669395Y267758D01*
X669216Y267590D01*
X669032Y267428D01*
X668844Y267270D01*
X668652Y267117D01*
X668457Y266968D01*
X668258Y266824D01*
X668056Y266685D01*
X667850Y266551D01*
X667641Y266423D01*
X667429Y266299D01*
X667214Y266181D01*
X666996Y266068D01*
X666776Y265960D01*
X666552Y265858D01*
X666327Y265761D01*
X666099Y265670D01*
X665869Y265585D01*
X665637Y265505D01*
X665403Y265431D01*
X665167Y265362D01*
X664930Y265300D01*
X664691Y265243D01*
X664451Y265192D01*
X664210Y265147D01*
X663967Y265108D01*
X663724Y265075D01*
X663480Y265048D01*
X663236Y265027D01*
X662991Y265012D01*
X662745Y265003D01*
X662500Y265000D01*
X662255Y265003D01*
X662009Y265012D01*
X661764Y265027D01*
X661520Y265048D01*
X661276Y265075D01*
X661033Y265108D01*
X660790Y265147D01*
X660549Y265192D01*
X660309Y265243D01*
X660070Y265300D01*
X659833Y265362D01*
X659597Y265431D01*
X659363Y265505D01*
X659131Y265585D01*
X658901Y265670D01*
X658673Y265761D01*
X658448Y265858D01*
X658224Y265960D01*
X658004Y266068D01*
X657786Y266181D01*
X657571Y266299D01*
X657359Y266423D01*
X657150Y266551D01*
X656944Y266685D01*
X656742Y266824D01*
X656543Y266968D01*
X656348Y267117D01*
X656156Y267270D01*
X655968Y267428D01*
X655784Y267590D01*
X655605Y267758D01*
X655429Y267929D01*
X655258Y268105D01*
X655090Y268284D01*
X654928Y268468D01*
X654770Y268656D01*
X654617Y268848D01*
X654468Y269043D01*
X654324Y269242D01*
X654185Y269444D01*
X654051Y269650D01*
X653923Y269859D01*
X653799Y270071D01*
X653681Y270286D01*
X653568Y270504D01*
X653460Y270724D01*
X653358Y270948D01*
X653261Y271173D01*
X653170Y271401D01*
X653085Y271631D01*
X653005Y271863D01*
X652931Y272097D01*
X652862Y272333D01*
X652800Y272570D01*
X652743Y272809D01*
X652692Y273049D01*
X652647Y273290D01*
X652608Y273533D01*
X652575Y273776D01*
X652548Y274020D01*
X652527Y274264D01*
X652512Y274509D01*
X652503Y274755D01*
X652500Y275000D01*
X637500Y250000D02*
X637500Y600000D01*
X812500Y600000D02*
X812500Y250000D01*
D10*
X632539Y236520D02*
X632539Y217336D01*
X628703Y213500D01*
X621030Y213500D01*
X617193Y217336D01*
X617193Y236520D01*
X609520Y232683D02*
X605683Y236520D01*
X598010Y236520D01*
X594173Y232683D01*
X594173Y228846D01*
X598010Y225010D01*
X601847Y225010D01*
X598010Y225010D02*
X594173Y221173D01*
X594173Y217336D01*
X598010Y213500D01*
X605683Y213500D01*
X609520Y217336D01*
X1065039Y368500D02*
X1065039Y391520D01*
X1053530Y391520D01*
X1049693Y387683D01*
X1049693Y380010D01*
X1053530Y376173D01*
X1065039Y376173D01*
X1057366Y376173D02*
X1049693Y368500D01*
X1042020Y387683D02*
X1038183Y391520D01*
X1030510Y391520D01*
X1026673Y387683D01*
X1026673Y383846D01*
X1030510Y380010D01*
X1026673Y376173D01*
X1026673Y372336D01*
X1030510Y368500D01*
X1038183Y368500D01*
X1042020Y372336D01*
X1042020Y376173D01*
X1038183Y380010D01*
X1042020Y383846D01*
X1042020Y387683D01*
X1038183Y380010D02*
X1030510Y380010D01*
X466500Y571000D02*
X466500Y594020D01*
X454990Y594020D01*
X451154Y590183D01*
X451154Y582510D01*
X454990Y578673D01*
X466500Y578673D01*
X458827Y578673D02*
X451154Y571000D01*
X443480Y574836D02*
X439644Y571000D01*
X431971Y571000D01*
X428134Y574836D01*
X428134Y590183D01*
X431971Y594020D01*
X439644Y594020D01*
X443480Y590183D01*
X443480Y586346D01*
X439644Y582510D01*
X428134Y582510D01*
M02*
