M48
;GenerationSoftware,Autodesk,EAGLE,9.1.3*%
;CreationDate,2018-09-04T16:16:13Z*%
FMAT,2
ICI,OFF
INCH,TZ,00.0000
T6C0.0160
T5C0.0236
T4C0.0390
T3C0.0500
T2C0.0700
T1C0.0875
%
G90
M72
T1
X13000Y1000
X1000Y1000
T2
X9625Y8500
X9625Y2500
X4375Y8500
X4375Y2500
T3
X11000Y6500
X2000Y6750
X2000Y4250
X4000Y4250
X4000Y6750
X6000Y1500
X8000Y1500
X7000Y1500
X11000Y4500
X11000Y5500
T4
X13000Y9000
X13000Y7000
X13000Y10000
X1000Y11000
X1000Y9000
X13000Y8000
X13000Y11000
X1000Y7000
X1000Y10000
X1000Y8000
T5
X3000Y9000
X5375Y2125
T6
X8875Y6000
X10875Y7750
X7250Y3500
X7250Y5750
X12250Y8500
X6500Y7750
X9125Y6500
X7750Y5875
X7500Y3000
X9750Y500
X4500Y10250
X3250Y2750
X4500Y500
X9000Y1500
X8000Y8000
X9500Y11250
X11750Y7000
M30